<svg width="720" height="1231" viewBox="0 0 720 1231" fill="none" xmlns="http://www.w3.org/2000/svg">
<g clip-path="url(#clip0_902_8294)">
<g filter="url(#filter0_f_902_8294)">
<path d="M663.804 446.109C661.916 446.738 661.005 445.246 659.329 445.543C659.735 447.242 661.199 447.665 662.44 448.031C664.686 448.688 667.014 449.06 669.296 449.62C672.917 450.512 675.258 452.782 676.422 456.196C677.022 457.951 676.498 458.992 674.405 458.894C673.429 458.849 672.429 458.952 671.471 458.791C652.397 455.595 634.27 459.672 616.448 465.704C600.256 471.187 586.226 480.467 572.339 489.97C559.109 499.016 545.874 508.067 530.592 513.705C526.094 515.363 521.485 516.649 516.745 517.473C513.159 518.09 511.56 516.718 511.695 513.173C511.759 511.435 511.883 509.456 513.141 508.33C515.364 506.334 515.258 503.984 515.099 501.503C513.612 478.134 505.368 457.356 489.963 439.294C483.113 431.26 479.25 421.62 474.735 412.329C469.878 402.34 465.11 392.323 460.029 382.431C453.603 369.915 446.782 357.547 441.755 344.391C437.833 334.128 436.117 323.458 435.152 312.583C433.917 298.672 435.564 284.801 435.099 270.901C433.671 279.792 433.012 288.752 432.483 297.768C430.031 284.618 427.838 271.49 429.084 258.173C427.55 259.883 426.603 262.69 425.592 268.476C425.274 270.3 425.633 272.999 423.593 273.439C421.176 273.954 420.617 271.135 419.641 269.489C417.243 265.44 415.414 261.118 413.585 256.801C413.033 255.497 412.674 254.079 411.286 252.987C410.487 254.028 410.951 254.994 411.316 255.88C412.215 258.093 413.209 260.272 414.144 262.473C414.397 263.067 414.908 263.736 414.356 264.325C413.803 264.92 413.056 264.503 412.433 264.297C407.429 262.627 402.42 260.969 397.434 259.248C377.76 252.455 358.222 245.325 339.695 235.863C333.286 232.586 326.935 229.167 320.979 225.136C317.146 222.54 312.989 220.722 308.549 219.453C299.865 216.971 292.698 212.151 286.236 206.13C278.075 198.526 271.16 189.858 263.94 181.458C251.245 166.689 238.539 151.892 227.956 135.59C220.024 123.377 210.511 112.405 201.362 101.13C197.54 96.424 193.53 91.8212 190.943 86.3036C190.272 84.8742 188.92 82.7414 190.196 81.8895C191.748 80.8546 192.918 83.1245 194.006 84.2109C197.481 87.6987 201.044 91.1351 204.213 94.8745C208.811 100.301 214.956 102.182 221.735 103.074C227.609 103.846 233.436 103.72 239.298 102.988C243.114 102.513 243.725 103.245 242.773 106.733C241.644 110.861 242.796 114.183 245.648 117.482C258.713 132.606 275.805 142.526 292.909 152.412C309.561 162.041 325.324 172.767 338.93 186.301C341.888 189.246 345.533 191.253 349.649 191.922C358.392 193.345 366.171 197.228 374.179 200.51C382.317 203.843 390.119 207.851 397.351 212.814C399.345 214.181 401.532 213.42 403.601 213.763C406.083 214.175 408.323 214.804 410.375 216.239C417.566 221.282 425.357 225.21 433.635 228.327C438.08 230.002 441.391 233.438 444.724 236.617C446.677 238.481 445.883 240.5 442.972 242.072C439.433 243.982 436.093 246.103 433.729 249.402C433.406 249.848 433.135 250.328 432.983 250.923C438.586 246.023 444.954 242.135 450.763 237.544C454.679 234.45 458.365 234.519 462.599 237.195C466.979 239.962 468.914 243.982 470.101 248.653C471.56 254.382 472.736 260.174 474.582 265.823C477.545 274.869 483.349 281.627 492.015 285.704C506.303 292.428 521.379 296.785 537.189 298.603C540.894 299.032 544.61 299.512 548.302 298.815C555.893 297.374 560.356 291.919 564.242 286.167C571.215 275.841 570.451 264.691 567.07 253.422C565.224 247.264 562.472 241.477 559.368 235.834C559.015 235.188 558.374 234.639 558.662 233.084C561.002 236.394 562.884 239.373 564.442 242.547C566.006 245.726 567.494 248.939 568.946 252.164C570.404 255.417 571.78 258.705 573.632 261.77C570.098 247.858 563.531 235.422 554.346 224.21C558.639 227.395 562.29 231.111 565.177 235.519C567.982 239.802 570.181 244.376 571.821 249.179C575.778 260.752 579.641 272.353 583.539 283.943C584.139 285.733 584.122 285.71 582.434 286.687C581.752 287.082 582.087 287.717 582.352 288.191C583.134 289.621 583.922 291.05 584.798 292.422C593.376 305.991 598.35 320.868 601.919 336.3C605.183 350.423 608.134 364.695 615.414 377.554C624.21 393.089 634.011 408.029 644.371 422.615C645.706 424.496 647.017 426.395 648.358 428.276C652.832 434.588 656.913 441.249 663.804 446.109Z" fill="white" fill-opacity="0.12"/>
<path d="M572.314 640.164C579.734 638.265 586.86 635.584 593.71 632.342C600.043 629.34 606.17 629.5 612.384 632.262C618.629 635.035 623.609 639.518 628.695 643.846C643.518 656.448 659.993 666.723 676.997 676.243C687.863 682.326 698.681 688.496 709.577 694.528C714.004 696.981 718.667 699.005 723.488 700.64C725.011 701.155 726.287 701.852 727.286 703.15C734.542 712.562 733.666 721.767 723.423 729.395C721.712 730.67 719.849 731.739 718.114 732.98C717.109 733.706 716.144 733.574 715.062 733.271C672.793 721.43 630.365 710.16 587.966 698.77C571.35 694.305 554.581 690.354 538.129 685.334C527.922 682.218 518.279 677.964 510.865 670.205C504.332 663.366 500.287 655.138 498.341 645.996C497.647 642.731 498.576 639.569 499.67 636.476C503.774 624.834 509.23 613.731 514.034 602.364C516.609 596.28 518.62 590.008 520.819 583.792C522.789 578.235 525.529 572.917 528.151 567.594C534.031 555.65 540.516 543.997 546.796 532.247C550.206 525.866 555.498 523.676 562.042 522.727C568.686 521.766 575.336 522.144 581.963 522.784C586.414 523.213 590.471 524.945 594.275 527.204C602.054 531.818 610.315 535.832 617.453 541.241C622.909 545.375 628.001 550.246 632.517 555.513C634.963 558.371 637.55 561.133 638.643 564.821C639.026 566.102 639.419 567.405 638.761 568.72C632.376 581.591 626.266 594.593 618.799 606.926C610.609 620.449 598.984 629.832 583.697 634.972C579.746 636.316 575.877 637.939 572.314 640.164Z" fill="white" fill-opacity="0.12"/>
<path d="M436.522 181.99C441.814 184.408 447.605 185.049 453.179 186.467C469.478 190.606 486.27 193.002 502.199 198.342C515.704 202.871 528.158 209.509 535.86 222.151C536.26 222.814 536.554 223.786 538.089 223.666C537.142 219.847 534.126 217.394 532.015 214.226C533.256 213.706 533.979 214.507 534.755 214.884C544.221 219.452 551.712 226.039 556.904 235.09C562.936 245.605 567.77 256.48 567.705 268.796C567.652 278.843 563.23 286.996 555.516 293.509C552.623 295.956 549.272 297.185 545.291 297.134C526.176 296.865 508.431 291.524 491.48 283.411C484.03 279.849 479.215 273.851 476.445 266.218C474.07 259.665 473.012 252.81 471.177 246.046C474.429 248.733 476.434 252.387 479.485 255.183C476.892 248.767 472.259 243.781 467.255 239.047C467.402 238.773 467.549 238.492 467.702 238.218C472.735 239.47 477.762 240.717 482.796 241.969C482.19 239.825 480.532 239.745 479.132 239.35C465.397 235.479 451.621 231.74 437.91 227.795C419.224 222.42 404.342 211.276 390.877 198.057C390.413 197.599 389.625 197.107 389.966 196.404C391.189 193.843 389.237 193.705 387.602 193.402C383.939 192.728 380.247 192.219 377.301 189.64C376.466 188.914 375.284 188.857 374.208 188.965C370.657 189.337 367.729 188.011 364.959 186.026C352.894 177.381 340.8 168.765 328.717 160.142C311.26 147.689 293.791 135.253 276.346 122.783C275.093 121.885 273.906 120.867 272.83 119.769C270.013 116.893 266.779 114.635 262.969 113.2C259.541 111.907 256.56 109.952 253.797 107.625C252.539 106.567 251.251 105.498 249.816 104.703C246.03 102.61 242.473 100.826 237.516 101.678C230.807 102.833 224.057 101.107 217.672 98.7795C203.155 93.4849 192.795 83.9191 186.868 69.9278C186.515 69.0987 185.821 68.2811 186.339 67.2576C198.939 75.5083 212.927 74.4562 226.891 72.9696C238.316 71.7575 249.375 68.7499 260.447 65.8453C264.475 64.7875 265.38 65.4394 265.351 69.5561C265.333 72.0205 265.121 74.5191 264.657 76.9377C262.799 86.5607 256.096 91.8439 245.618 92.2784C241.691 92.4442 237.822 91.7181 233.9 91.8839C239.915 93.0332 245.865 94.5541 252.109 93.1875C258.266 91.8382 261.946 87.9844 264.116 82.4954C266.321 76.9149 266.297 71.1056 265.68 65.2964C265.074 59.6187 264.216 53.9639 263.493 48.2976C263.369 47.3141 262.634 45.7932 263.875 45.5016C265.221 45.1871 265.456 46.9025 265.833 47.8859C267.797 52.9918 268.632 58.378 269.819 63.9356C271.483 62.9807 273.23 62.5691 275.017 62.2775C278.18 61.7571 279.909 63.2094 279.591 66.3542C279.362 68.6356 278.68 70.8369 277.757 72.9525C277.087 74.4791 276.322 76.0172 274.288 75.9714C272.306 75.9314 272.424 74.0503 271.548 72.5808C271.107 74.9022 271.701 76.8806 272.083 78.8074C272.465 80.7286 274.041 80.397 275.334 79.7623C276.81 79.0419 277.516 77.641 278.116 76.2001C280.55 70.4024 281.155 64.21 282.308 58.0063C281.444 59.8817 279.897 60.2934 278.027 60.2705C276.763 60.2591 275.493 60.4706 274.241 60.6708C270.149 61.3226 270.131 61.3455 269.502 57.2115C268.926 53.4207 267.761 49.7899 266.403 46.2163C265.974 45.0899 265.321 43.5176 263.934 43.7463C262.452 43.9864 262.699 45.6789 262.587 46.8853C262.229 50.8363 263.681 54.61 263.775 58.5152C263.881 63.015 263.881 63.0036 259.494 64.1357C247.941 67.1147 236.405 70.1393 224.486 71.4716C216.167 72.4036 207.882 72.3979 199.627 70.9513C198.474 70.7511 197.334 70.4424 196.211 70.1222C186.956 67.4406 184.098 64.1529 183.187 54.8501C182.605 48.9037 183.428 43.0601 185.01 37.3138C185.404 35.8729 185.851 34.6722 187.732 36.0673C192.577 39.6466 198.339 40.3614 204.137 40.6873C225.498 41.8937 245.859 38.2973 265.033 28.7429C271.936 25.3066 276.069 26.5359 280.685 32.6882C282.543 35.1639 284.072 37.817 285.283 40.6415C285.659 41.5106 285.842 42.2596 287.029 41.1504C288.305 39.9668 288.676 41.4477 288.975 42.2196C289.893 44.6096 289.769 47.1083 289.311 49.5555C287.805 57.5146 286.218 65.4622 284.677 73.4156C284.425 74.725 284.213 76.0458 284.119 77.3723C284.048 78.3214 284.131 79.4936 285.259 79.7566C286.512 80.0482 286.823 78.876 287.159 77.9955C288.828 73.6214 290.451 69.2245 292.133 64.8562C294.156 59.5901 296.213 54.3355 298.295 49.0981C298.583 48.3662 298.659 47.0111 299.73 47.2855C300.741 47.5486 300.706 48.8465 300.541 49.7842C300.182 51.8483 299.794 53.9181 299.283 55.9479C296.249 67.978 293.033 79.9567 288.734 91.6323C288.176 93.1532 287.67 94.7199 287.4 96.3037C286.823 99.6429 288.064 101.656 291.127 103.262C319.08 117.963 348.549 129.547 377.183 142.852C384.216 146.117 390.372 150.702 396.898 154.733C406.57 160.703 416.301 166.62 425.127 173.791C428.067 176.181 430.789 178.788 433.212 181.664C434.317 182.979 435.287 183.316 436.557 182.001L436.522 181.99Z" fill="white" fill-opacity="0.12"/>
<path d="M700.529 934.267C703.069 926.079 698.053 918.869 694.572 911.448C684.159 889.246 672.112 867.873 658.923 847.123C654.913 840.811 650.18 834.944 646.47 828.426C640.461 817.871 636.139 806.642 632.376 795.206C630.918 790.775 628.996 786.469 628.272 781.815C628.055 780.42 626.92 779.465 625.809 778.716C620.194 774.942 616.924 769.511 615.16 763.375C611.262 749.819 604.06 737.811 597.31 725.558C593.147 717.999 589.713 710.098 586.608 702.07C586.438 701.63 586.062 701.144 586.438 700.749C587.002 700.16 587.737 700.538 588.372 700.721C592.794 701.967 597.251 703.111 601.614 704.523C611.662 707.782 622.24 709.16 632.194 712.682C645.177 717.279 658.7 720.189 671.653 724.884C677.151 726.873 680.579 730.207 681.696 735.742C683.142 742.923 686.241 749.739 686.641 757.149C686.682 757.961 687.123 758.595 687.681 759.144C697.665 769.013 702.357 781.449 705.938 794.463C715.151 827.963 723.03 861.761 730.086 895.747C730.668 898.537 731.48 901.287 732.25 904.038C732.461 904.798 732.667 905.501 732.244 906.239C730.351 909.538 729.851 913.266 728.769 916.817C726.335 924.839 722.478 931.997 715.304 937.057C712.952 938.716 710.307 939.705 707.467 940.122C703.645 940.677 700.523 938.298 700.529 934.267Z" fill="white" fill-opacity="0.12"/>
<path d="M776.113 725.97C778.747 721.304 779.223 716.267 779.17 711.161C779.117 706.112 777.959 701.218 776.842 696.284C779.429 700.926 781.369 705.746 781.81 711.07C782.216 716.021 781.152 720.773 779.564 725.381C776.613 733.935 777.083 742.266 780.864 750.431C785.638 760.751 788.119 771.621 787.996 782.862C787.866 795.172 786.649 807.414 780.74 818.678C780.387 819.352 779.988 820.016 779.564 820.65C779.423 820.862 779.135 820.988 778.165 821.714C782.169 812.474 783.98 803.497 784.874 794.389C785.762 785.337 785.979 776.246 783.768 766.526C782.586 768.379 782.939 769.671 783.104 770.86C785.185 785.595 784.051 800.106 779.964 814.418C779.07 817.545 777.847 820.547 776.06 823.32C773.549 827.22 770.986 828.175 766.411 826.665C763.413 825.676 761.131 823.875 759.702 821.045C756.757 815.207 754.958 808.952 752.564 802.908C748.584 792.833 743.833 783.125 738.147 773.873C735.125 768.962 734.849 764.067 737.16 758.881C738.518 755.828 739.964 752.803 740.676 749.504C741.081 747.635 740.74 745.908 740.099 744.193C739.87 743.581 739.576 742.86 738.747 742.866C737.753 742.877 737.471 743.718 737.324 744.444C737.042 745.839 737.007 747.286 736.683 748.675C736.342 750.156 735.919 751.643 735.307 753.032C732.409 759.59 730.133 760.391 723.595 757C718.797 754.513 715.246 750.934 714.611 745.399C714.017 740.196 715.963 736.022 720.614 733.266C725.559 730.338 729.922 726.902 732.315 721.602C736.084 713.265 735.431 705.318 730.08 697.759C729.528 696.981 727.658 696.129 729.175 695.071C730.392 694.225 732.115 694.191 733.332 695.78C737.418 701.098 738.806 707.062 738.071 713.574C738 714.214 737.865 714.849 737.959 715.507C740.217 711.447 739.958 707.216 738.759 702.933C738.141 700.732 737.418 698.559 737.401 696.232C737.389 694.666 737.93 693.733 739.629 693.459C749.237 691.887 758.838 691.029 768.51 693.025C772.021 693.745 774.22 695.74 775.396 698.96C777.93 705.907 777.171 713.06 776.789 720.178C776.695 722.111 776.348 724.038 776.113 725.97Z" fill="white" fill-opacity="0.12"/>
<path d="M759.619 944.176C766.016 936.886 770.344 928.361 774.365 919.544C775.712 920.602 774.959 921.648 774.765 922.569C773.254 929.579 769.091 935.24 764.846 940.86C762.353 944.159 759.866 947.464 757.461 950.82C751.823 958.699 750.4 967.819 749.4 977.065C747.33 996.122 741.139 1013.64 728.762 1028.81C727.21 1030.71 725.569 1032.54 723.347 1033.86C730.561 1023.91 738.564 1014.39 740.369 1001.79C738.963 1002.33 738.893 1003.61 738.558 1004.68C734.812 1016.76 726.886 1026.35 718.978 1035.95C717.996 1037.14 716.803 1037.35 715.303 1036.98C710.911 1035.88 708.036 1032.46 708.095 1028.07C708.112 1026.66 708.177 1025.14 708.706 1023.86C713.298 1012.69 711.817 1001.42 709.512 990.107C707.477 980.118 705.543 970.106 703.579 960.1C703.491 959.66 703.567 959.191 703.567 958.739C704.785 958.619 704.208 960.054 705.126 960.215C705.631 956.79 703.373 954.891 701.021 953.153C697.576 950.615 694.319 947.881 691.373 944.811C689.521 942.878 689.627 941.878 692.073 940.694C695.089 939.242 698.04 938.922 701.239 940.803C705.937 943.565 710.641 941.924 714.833 939.528C723.459 934.599 727.939 926.64 730.503 917.572C731.831 912.872 733.125 908.229 736 904.118C736.982 902.711 738.011 902.191 739.628 902.431C750.453 904.026 760.53 907.434 769.279 914.01C772.678 916.56 772.907 917.566 771.261 921.574C768.674 927.881 765.017 933.644 761.559 939.511C760.707 940.957 759.831 942.387 758.966 943.822C759.196 943.942 759.407 944.056 759.619 944.176Z" fill="white" fill-opacity="0.12"/>
<path d="M436.557 182.013C433.212 180.057 431.612 176.444 428.667 174.099C427.708 173.333 428.578 172.516 429.143 171.898C431.895 168.908 432.647 164.9 434.74 161.578C435.293 160.697 434.864 159.919 434.452 159.159C433.494 157.392 432.512 155.631 431.53 153.876C430.16 151.412 430.577 150.285 433.329 149.387C434.717 148.936 436.199 148.741 437.568 148.244C441.667 146.746 445.012 144.19 446.87 140.348C449.451 135.013 454.526 132.023 458.447 127.963C460.723 125.607 463.369 123.6 465.68 121.273C467.267 119.672 469.025 118.706 471.301 118.62C479.426 118.323 487.576 117.785 495.408 120.713C500.541 122.628 505.027 125.39 508.249 129.85C510.33 132.732 510.713 135.762 509.307 139.044C506.314 146.02 502.281 152.441 498.318 158.907C497.671 159.965 496.054 161.263 497.254 162.384C498.447 163.499 499.7 161.812 500.782 161.2C504.868 158.89 509.025 157.152 513.87 158.524C521.073 160.56 522.937 167.084 517.88 172.487C513.182 177.507 510.76 178.056 504.498 175.363C502.546 174.523 500.758 174.66 498.847 175.472C493.92 177.559 493.885 177.507 490.839 173.259C490.704 173.065 490.375 173.002 490.116 172.87C489.357 175.889 491.539 178.536 494.737 178.422C495.778 178.388 496.954 178.159 497.818 177.627C501.958 175.094 505.421 177.587 508.819 179.154C510.542 179.949 509.813 182.253 509.166 183.557C505.092 191.802 500.723 195.238 491.062 193.357C478.103 190.83 465.286 187.645 452.38 184.849C447.135 183.711 441.978 182.059 436.528 182.007C436.522 181.99 436.557 182.013 436.557 182.013Z" fill="white" fill-opacity="0.12"/>
<path d="M500.711 158.438C502.487 155.425 504.227 152.612 505.826 149.724C507.543 146.62 509.207 143.486 510.748 140.301C512.806 136.042 512.347 132.062 509.301 128.271C503.833 121.462 496.425 118.225 487.917 116.979C482.478 116.184 476.992 115.881 471.53 116.773C468.543 117.259 466.861 116.247 465.579 113.548C462.787 107.653 462.798 107.71 468.59 104.52C479.279 98.6363 489.445 100.14 499.435 106.075C500.346 106.613 501.24 107.173 502.351 107.51C501.699 105.955 500.364 105.006 498.976 104.16C497.401 103.199 495.796 102.273 494.126 101.484C492.573 100.758 490.921 100.237 488.569 99.3396C493.544 98.6192 497.683 99.0366 501.74 99.8371C519.55 103.359 533.349 113.091 544.68 126.499C546.702 128.889 547.614 131.868 548.643 134.744C549.272 136.493 550.101 138.049 551.706 139.158C559.062 144.23 560.649 151.543 559.855 159.639C559.097 167.324 555.775 174.116 551.418 180.434C546.896 186.993 542.463 193.648 535.854 198.542C532.544 200.995 528.863 202.722 525.047 204.26C523.895 204.723 522.766 204.803 521.614 204.409C520.232 203.928 518.832 203.465 517.515 202.848C511.289 199.915 510.854 200.298 513.047 193.774C513.729 191.744 513.194 189.823 512.588 187.896C512.135 186.438 511.559 185.008 511.236 183.522C510.671 180.926 510.824 178.805 514.058 177.61C517.462 176.352 519.72 173.544 521.402 170.468C524.706 164.436 520.155 157.106 512.682 156.363C509.413 156.037 506.226 156.38 503.233 157.838C502.581 158.175 501.94 158.673 500.711 158.438Z" fill="white" fill-opacity="0.12"/>
<path d="M668.613 466.785C665.179 465.795 662.028 464.126 657.806 464.715C663.086 466.036 667.596 467.774 671.059 471.393C671.594 471.948 672.288 472.462 672.57 473.131C676.527 482.611 681.66 491.668 681.943 502.355C682.213 512.372 679.132 521.28 674.034 529.725C669.154 537.81 663.127 545.106 656.86 552.15C653.649 555.758 651.674 555.684 647.493 551.304C647.064 550.858 646.935 549.835 646.041 550.298C645.282 550.692 645.653 551.51 645.911 552.099C646.329 553.06 646.882 553.963 647.346 554.901C648.199 556.627 650.145 558.674 647.722 560.155C645.465 561.533 643.871 559.326 642.819 557.708C640.108 553.557 636.31 550.647 632.153 548.062C629.766 546.576 627.431 544.98 624.962 543.637C622.792 542.459 622.345 541.458 623.998 539.291C629.613 531.904 633.611 523.607 637.786 515.408C641.155 508.793 640.743 501.983 639.579 495.013C637.974 485.407 635.387 476.024 633.076 466.579C632.218 463.08 632.464 462.782 636.104 461.976C643.136 460.421 650.198 459.632 657.359 460.987C661.716 461.81 665.797 463.171 668.613 466.785Z" fill="white" fill-opacity="0.12"/>
<path d="M566.146 506.089C564.13 506.506 563.065 507.598 562.019 508.65C556.374 514.322 550.853 520.097 545.609 526.123C543.227 528.862 540.611 530.949 536.518 530.097C535.307 529.846 534.519 529.463 534.284 528.256C534.231 527.976 534.131 527.707 534.055 527.427C532.391 521.246 532.361 521.212 537.794 517.513C539.958 516.037 542.263 514.762 544.485 513.373C545.25 512.893 546.385 512.738 546.42 511.023C542.069 512.601 538.553 515.065 535.137 517.678C533.984 518.565 532.955 519.668 531.421 519.863C529.774 520.068 528.481 519.377 527.94 517.85C527.446 516.455 528.675 516.049 529.692 515.7C545.609 510.234 559.25 500.908 572.867 491.565C586.584 482.16 600.467 473.063 616.412 467.477C619.846 466.276 620.164 466.35 620.987 469.849C623.139 479.038 625.55 488.163 625.455 497.723C625.379 505.745 622.651 513.058 619.699 520.326C617.941 524.66 615.725 528.822 613.855 533.122C612.861 535.403 611.838 535.941 609.504 534.426C604.947 531.464 600.12 528.891 595.51 526.003C589.989 522.544 583.921 520.926 577.447 520.709C569.91 520.463 562.342 520.228 555.093 522.899C554.569 523.093 553.905 523.465 553.476 522.887C553.076 522.35 553.546 521.812 553.858 521.338C556.498 517.307 559.502 513.556 563.036 510.222C564.212 509.125 565.429 508.044 566.146 506.089Z" fill="white" fill-opacity="0.12"/>
<path d="M235.075 0C252.185 0.829072 265.968 6.96421 276.451 19.6462C277.392 20.784 277.992 21.8418 277.104 23.2369C276.263 24.5463 275.234 25.3925 273.482 25.0265C270.107 24.3233 267.085 25.4668 264.174 26.9134C246.711 35.6158 228.126 39.4981 208.569 39.0407C202.208 38.8921 195.816 38.4575 190.042 35.3471C186.397 33.3802 186.209 32.9685 188.096 29.3434C197.957 10.412 214.038 1.02919 235.075 0Z" fill="white" fill-opacity="0.12"/>
<path d="M601.638 628.562C603.131 626.435 605.013 625.52 606.5 624.188C612.021 619.248 616.837 613.719 620.441 607.344C622.511 603.684 625.651 601.58 629.202 599.693C634.899 596.668 641.261 595.153 646.988 592.214C648.999 591.185 649.364 592.803 649.781 594.016C652.045 600.608 654.397 607.183 656.437 613.839C661.635 630.758 665.057 648.042 667.15 665.573C667.244 666.339 667.985 667.386 666.973 667.912C666.109 668.358 665.345 667.494 664.616 667.065C650.428 658.7 637.163 649.106 624.639 638.528C618.16 633.056 611.086 628.814 601.638 628.562Z" fill="white" fill-opacity="0.12"/>
<path d="M634.058 498.827C633.711 491.783 631.641 485.602 629.971 479.341C628.836 475.098 627.784 470.85 627.19 466.493C626.996 465.092 627.125 464.034 628.813 463.703C630.589 463.36 630.689 464.658 630.971 465.738C634.005 477.465 637.197 489.158 638.703 501.2C639.238 505.477 638.603 509.616 636.756 513.47C632.617 522.104 628.407 530.709 622.88 538.622C622.016 539.857 621.399 541.43 619.27 540.137C616.959 538.742 618.347 537.496 619.182 536.135C625.509 525.769 630.894 515.014 633.505 503.132C633.84 501.566 633.922 499.942 634.058 498.827Z" fill="white" fill-opacity="0.12"/>
<path d="M634.552 588.498C634.499 583.878 636.245 580.156 637.915 576.399C639.167 573.586 639.691 570.436 642.595 568.469C643.959 567.542 644.759 567.337 645.512 568.932C647.57 573.277 650.521 577.068 653.438 580.871C654.884 582.757 654.619 584.233 653.038 585.885C648.81 590.311 643.136 592.169 637.603 594.302C636.433 594.753 635.74 594.199 635.387 593.129C634.858 591.494 634.446 589.83 634.552 588.498Z" fill="white" fill-opacity="0.12"/>
<path d="M627.49 496.488C627.061 487.008 624.727 477.946 622.633 468.843C622.504 468.288 622.345 467.734 622.239 467.173C622.016 466.03 622.486 465.309 623.692 465.149C624.885 464.995 625.168 465.801 625.35 466.71C625.914 469.512 626.414 472.325 627.073 475.11C628.819 482.526 631.441 489.736 632.117 497.397C632.376 500.331 631.865 503.098 631.153 505.848C628.296 516.843 623.057 526.861 617.577 536.77C617.036 537.742 616.401 538.256 615.237 537.662C613.902 536.981 613.767 536.141 614.49 534.866C618.077 528.508 621.022 521.864 623.568 515.048C625.82 509.016 627.29 502.835 627.49 496.488Z" fill="white" fill-opacity="0.12"/>
<path d="M292.232 87.8189C293.32 83.3362 293.473 78.6191 297.236 75.2856C299.758 73.05 301.47 70.0139 304.462 68.2242C305.274 67.7382 306.244 66.8062 307.085 67.4523C308.067 68.2071 307.044 69.2077 306.638 69.991C304.104 74.914 299.976 78.6648 296.513 82.9074C295.137 84.5884 293.661 86.1837 292.232 87.8189Z" fill="white" fill-opacity="0.12"/>
</g>
</g>
<defs>
<filter id="filter0_f_902_8294" x="177" y="-6" width="617" height="1049.14" filterUnits="userSpaceOnUse" color-interpolation-filters="sRGB">
<feFlood flood-opacity="0" result="BackgroundImageFix"/>
<feBlend mode="normal" in="SourceGraphic" in2="BackgroundImageFix" result="shape"/>
<feGaussianBlur stdDeviation="3" result="effect1_foregroundBlur_902_8294"/>
</filter>
<clipPath id="clip0_902_8294">
<rect width="720" height="1231" fill="white"/>
</clipPath>
</defs>
</svg>
