<svg width="38" height="45" viewBox="0 0 38 45" fill="none" xmlns="http://www.w3.org/2000/svg">
<path d="M32.065 43.7436H5.35936C2.67941 43.7436 0.5 41.5642 0.5 38.8842V24.3166C0.5 21.6366 2.67941 19.4572 5.35936 19.4572H32.0754C34.7553 19.4572 36.9348 21.6366 36.9348 24.3166V38.8842C36.9243 41.5642 34.7553 43.7436 32.065 43.7436Z" fill="white" stroke="#0C2A6D" stroke-width="0.5822" stroke-miterlimit="10"/>
<mask id="mask0_986_1329" style="mask-type:luminance" maskUnits="userSpaceOnUse" x="1" y="20" width="35" height="23">
<path d="M31.3454 42.5235H6.08925C3.67 42.5235 1.72 40.5631 1.72 38.1543V25.0465C1.72 22.6273 3.68043 20.6773 6.08925 20.6773H31.3454C33.7647 20.6773 35.7147 22.6377 35.7147 25.0465V38.1647C35.7147 40.5735 33.7542 42.5235 31.3454 42.5235Z" fill="white"/>
</mask>
<g mask="url(#mask0_986_1329)">
<path d="M48.8225 56.3508L33.8481 53.2225L18.8842 56.3508L3.90989 53.2225L-11.0644 56.3508V12.3246L3.90989 9.19626L18.8842 12.3246L33.8481 9.19626L48.8225 12.3246V56.3508Z" fill="white"/>
<path d="M3.9101 50.9805L18.8844 54.1193L33.8483 50.9805L46.6328 53.6604V14.1078L33.8483 11.4278L18.8844 14.5666L3.9101 11.4278L-8.87439 14.1078V53.6604L3.9101 50.9805Z" fill="#D8F1F0"/>
<path d="M-8.87439 14.1078V33.6182L3.9101 30.7401L11.3973 24.4834V12.992L3.9101 11.4278L-8.87439 14.1078Z" fill="#FFE07D"/>
<path d="M46.6327 25.7869L39.9172 23.6179L33.8482 30.4273L29.6458 31.0842V42.6382L33.8482 44.6717L46.6327 39.1241V25.7869Z" fill="#FFE07D"/>
<path d="M-9.97989 33.8684L3.90995 30.7401L11.3971 24.4834L18.8843 32.7735L33.8482 30.4273L39.9172 23.6179L47.9257 26.204" stroke="white" stroke-width="1.3557" stroke-miterlimit="10"/>
<path d="M21.1574 32.419V54.1193" stroke="white" stroke-width="1.3557" stroke-miterlimit="10"/>
<path d="M29.6458 31.0842V42.6382L33.8482 44.6717L47.9257 38.561" stroke="white" stroke-width="1.3557" stroke-miterlimit="10"/>
<path d="M-0.907654 40.1252L3.90999 43.2639H13.806V54.1193" stroke="white" stroke-width="1.3557" stroke-miterlimit="10"/>
<path d="M11.3971 24.4834V12.1161" stroke="white" stroke-width="1.3557" stroke-miterlimit="10"/>
<path d="M3.91008 9.19626V53.2225L18.8844 56.3508V12.3246L3.91008 9.19626Z" fill="#EAEEF1"/>
<path d="M33.8483 9.19626V53.2225L48.8226 56.3508V12.3246L33.8483 9.19626Z" fill="#EAEEF1"/>
</g>
<path opacity="0.15" d="M33.285 31.6056C33.285 31.4388 33.2746 31.2615 33.2642 31.0947C33.2642 31.0321 33.2537 30.9695 33.2537 30.907C33.2433 30.8027 33.2329 30.6984 33.2225 30.5941C33.212 30.5211 33.2016 30.4377 33.1912 30.3647C33.1807 30.2813 33.1599 30.2083 33.1495 30.1249C33.1286 30.031 33.1182 29.9372 33.0973 29.8538C33.0869 29.812 33.0765 29.7703 33.066 29.7182C32.9722 29.3219 32.8575 28.9361 32.7115 28.5607V28.5503C32.0128 26.7358 30.6989 25.1195 28.9575 23.8369C28.9366 23.8265 28.9262 23.8161 28.9054 23.8056C28.7385 23.6909 28.5717 23.5658 28.4048 23.4511C28.3631 23.4198 28.3214 23.3989 28.2797 23.3677C28.1337 23.2738 27.9773 23.18 27.8313 23.0861C27.7791 23.0548 27.727 23.0235 27.6644 22.9923C27.5184 22.9088 27.3725 22.8254 27.216 22.742C27.1535 22.7107 27.1013 22.6794 27.0388 22.6481C26.8928 22.5647 26.7364 22.4917 26.5799 22.4187C26.5174 22.3874 26.4548 22.3562 26.4027 22.3353C26.2358 22.2623 26.069 22.1893 25.9021 22.1163C25.85 22.0955 25.7979 22.0746 25.7457 22.0538C25.5372 21.9703 25.3182 21.8869 25.0992 21.8035C25.0888 21.8035 25.0783 21.7931 25.0679 21.7931C24.8281 21.7096 24.5987 21.6262 24.3484 21.5532C24.3171 21.5428 24.2858 21.5324 24.2441 21.5219C24.046 21.4594 23.8374 21.3968 23.6393 21.3447C23.5663 21.3238 23.4829 21.303 23.4099 21.2821C23.2431 21.2404 23.0762 21.1987 22.9094 21.157C22.8155 21.1361 22.7217 21.1152 22.6382 21.0944C22.4818 21.0631 22.3254 21.0318 22.169 21.0005C22.0751 20.9797 21.9709 20.9693 21.877 20.9484C21.731 20.9275 21.5955 20.9067 21.4495 20.8858C21.4286 20.8858 21.3973 20.8754 21.3765 20.8754C21.2931 20.865 21.1992 20.8546 21.1054 20.8441C21.0011 20.8337 20.9072 20.8233 20.8029 20.8128C20.7404 20.8024 20.6674 20.8024 20.5944 20.792C20.5005 20.7816 20.4067 20.7711 20.3233 20.7711C20.2607 20.7711 20.1981 20.7607 20.1356 20.7607C20.0209 20.7503 19.8957 20.7503 19.781 20.7398C19.6976 20.7398 19.6142 20.7294 19.5308 20.7294C19.4995 20.7294 19.4682 20.7294 19.4369 20.7294C19.1971 20.719 18.9676 20.719 18.7278 20.719C18.488 20.719 18.2377 20.719 17.9979 20.7294C17.8832 20.7294 17.7685 20.7398 17.6537 20.7503C17.539 20.7607 17.4243 20.7607 17.3096 20.7711C17.2992 20.7711 17.2888 20.7711 17.2783 20.7711C17.1219 20.7816 16.9759 20.8024 16.8195 20.8128C16.7361 20.8233 16.6631 20.8233 16.5797 20.8337C16.4024 20.8546 16.2251 20.8754 16.0479 20.8963C15.9957 20.9067 15.954 20.9067 15.9019 20.9171C15.7037 20.9484 15.516 20.9797 15.3179 21.011C15.2866 21.011 15.2658 21.0214 15.2345 21.0214C15.0259 21.0631 14.8174 21.1048 14.6193 21.1465C14.6088 21.1465 14.5984 21.1465 14.588 21.157C14.3794 21.2091 14.1604 21.2508 13.9519 21.3134C12.6275 21.6575 11.3971 22.1372 10.2813 22.7316C8.79011 23.5241 7.50749 24.5251 6.50642 25.6722L6.49599 25.6826C6.37086 25.8182 6.25615 25.9642 6.15187 26.0997C6.14145 26.1102 6.14145 26.1102 6.13102 26.1206C6.02674 26.2562 5.91203 26.4021 5.81818 26.5481C5.80776 26.5586 5.80776 26.569 5.79733 26.5794C5.70348 26.715 5.5992 26.861 5.51578 27.007C5.50535 27.0174 5.50535 27.0278 5.49492 27.0382C5.40107 27.1842 5.31765 27.3302 5.23423 27.4762C5.2238 27.4866 5.2238 27.4971 5.2238 27.5075C4.99439 27.9246 4.79626 28.3626 4.63984 28.811C4.63984 28.8214 4.62941 28.8423 4.62941 28.8527C4.59813 28.957 4.55642 29.0612 4.52514 29.1655C4.50428 29.2281 4.48342 29.2907 4.46257 29.3532C4.43129 29.4471 4.41043 29.5409 4.38957 29.6243C4.37915 29.6869 4.35829 29.739 4.34786 29.8016C4.34786 29.812 4.34786 29.8225 4.33744 29.8433C4.33744 29.8538 4.33744 29.8538 4.33744 29.8642C4.31658 29.9476 4.30615 30.031 4.2853 30.1144C4.27487 30.1666 4.26444 30.2083 4.25401 30.2604C4.24358 30.2917 4.24358 30.323 4.24358 30.3647C4.24358 30.3751 4.24358 30.3856 4.24358 30.396C4.23316 30.469 4.22273 30.5524 4.2123 30.6254C4.2123 30.6567 4.20187 30.688 4.20187 30.7193C4.19145 30.7818 4.19145 30.8548 4.18102 30.9174C4.18102 30.9278 4.18102 30.9382 4.18102 30.9487C4.17059 31.0112 4.17059 31.0738 4.16016 31.1364C4.16016 31.1572 4.16016 31.1677 4.16016 31.1885C4.14973 31.3449 4.14973 31.5013 4.14973 31.6578C4.14973 31.8559 4.16016 32.0644 4.17059 32.2626C4.17059 32.3251 4.18102 32.3877 4.19145 32.4607C4.20187 32.5963 4.22273 32.7318 4.23316 32.8674C4.24358 32.9404 4.25401 33.0134 4.27487 33.0864C4.29572 33.2115 4.31658 33.3262 4.34786 33.4513C4.36872 33.5243 4.37915 33.6078 4.4 33.6808C4.43129 33.7955 4.46257 33.9206 4.49385 34.0353C4.51471 34.1083 4.53556 34.1813 4.56685 34.2543C4.60856 34.369 4.65027 34.4941 4.69198 34.6088C4.71284 34.6818 4.74412 34.7444 4.76498 34.8174C4.81711 34.9425 4.86925 35.0677 4.93182 35.1928C4.95268 35.2449 4.98396 35.3075 5.00481 35.3596C5.07781 35.5161 5.16123 35.6725 5.24465 35.8289C5.25508 35.8497 5.26551 35.8706 5.27594 35.8915C5.38022 36.0687 5.48449 36.2564 5.5992 36.4337C5.5992 36.4441 5.60963 36.4441 5.60963 36.4546C5.71391 36.6214 5.82861 36.7882 5.95374 36.9447C5.98503 36.9864 6.01631 37.0177 6.03717 37.0594C6.13102 37.1845 6.2353 37.3201 6.33957 37.4452C6.38129 37.4869 6.41257 37.539 6.45428 37.5808C6.55856 37.6955 6.65241 37.8102 6.76711 37.9249C6.80883 37.9666 6.85054 38.0187 6.89225 38.0604C6.99653 38.1751 7.11123 38.2794 7.22594 38.3941C7.26765 38.4358 7.30936 38.4776 7.35107 38.5193C7.4762 38.634 7.60134 38.7487 7.72647 38.853C7.76818 38.8842 7.79947 38.9155 7.84118 38.9468C7.98717 39.0719 8.14358 39.1971 8.3 39.3222C8.32086 39.3326 8.33129 39.3535 8.35214 39.3639C8.71711 39.6455 9.10294 39.9062 9.50963 40.1564C9.63476 40.2398 9.77032 40.3128 9.90588 40.3858C9.97888 40.4276 10.0519 40.4693 10.1144 40.5005C10.2083 40.5527 10.3126 40.6048 10.4168 40.657C10.5211 40.7091 10.6254 40.7612 10.7297 40.8134C10.834 40.8655 10.9278 40.9072 11.0321 40.9594C11.1155 41.0011 11.1989 41.0324 11.2824 41.0741C11.3971 41.1262 11.5013 41.1679 11.616 41.2201C11.7308 41.2722 11.8455 41.3139 11.9706 41.3661C12.054 41.3973 12.1374 41.4286 12.2209 41.4599C12.3147 41.4912 12.4086 41.5329 12.5024 41.5642C12.638 41.6163 12.784 41.658 12.9299 41.7102C13.0342 41.7415 13.1385 41.7727 13.2428 41.804C13.3158 41.8249 13.3888 41.8457 13.4618 41.8666C13.639 41.9187 13.8163 41.9709 14.004 42.0126C14.077 42.0334 14.1396 42.0439 14.2126 42.0647C14.3273 42.096 14.442 42.1169 14.5567 42.1481C14.6193 42.1586 14.6922 42.1794 14.7548 42.1898C14.9529 42.2316 15.1511 42.2733 15.3492 42.3046C15.4222 42.315 15.4848 42.3254 15.5578 42.3463C15.6725 42.3671 15.7976 42.388 15.9123 42.3984H15.9227C15.9332 42.3984 15.9436 42.3984 15.9644 42.3984C16.173 42.4297 16.392 42.461 16.611 42.4818C16.6214 42.4818 16.6214 42.4818 16.6318 42.4818C16.8508 42.5027 17.0698 42.5235 17.2992 42.5444C17.3409 42.5444 17.3931 42.5444 17.4348 42.5548C17.6225 42.5653 17.8102 42.5757 17.9979 42.5861H18.0083C18.2481 42.5965 18.4775 42.5965 18.7174 42.5965C18.8947 42.5965 19.0615 42.5965 19.2388 42.5861C19.2805 42.5861 19.3222 42.5861 19.3639 42.5861C19.4473 42.5861 19.5308 42.5757 19.6142 42.5757C19.7289 42.5653 19.854 42.5653 19.9687 42.5548C20.4171 42.5235 20.8551 42.4818 21.2931 42.4193C21.3348 42.4193 21.366 42.4088 21.4078 42.4088C21.5746 42.388 21.7414 42.3567 21.8979 42.3358C21.9396 42.3254 21.9709 42.3254 22.0126 42.315C22.7425 42.1898 23.4412 42.023 24.119 41.8144C24.1503 41.804 24.1816 41.7936 24.2024 41.7936C24.3484 41.7519 24.4944 41.6997 24.6508 41.6476C24.6925 41.6372 24.7342 41.6163 24.7864 41.6059C24.9324 41.5538 25.0679 41.5016 25.2139 41.4495C25.2556 41.439 25.2869 41.4182 25.3286 41.4078C25.7979 41.2305 26.2463 41.0324 26.6842 40.8238C26.7051 40.8134 26.7364 40.803 26.7572 40.7925C26.8824 40.73 26.9971 40.6674 27.1222 40.6048C27.1743 40.5735 27.2265 40.5527 27.2786 40.5214C27.3933 40.4588 27.4976 40.3963 27.6123 40.3337C27.6749 40.3024 27.727 40.2711 27.7896 40.2294C27.8939 40.1669 27.9981 40.1043 28.1024 40.0417C28.1545 40.0104 28.2067 39.9687 28.2693 39.9374C28.6029 39.7185 28.9262 39.489 29.239 39.2492C29.3016 39.1971 29.3642 39.1449 29.4267 39.1032C29.5102 39.0407 29.5832 38.9781 29.6562 38.9051C29.7187 38.8529 29.7917 38.7904 29.8543 38.7382C29.9273 38.6757 30.0003 38.6131 30.0733 38.5401C30.1358 38.4776 30.2088 38.415 30.2714 38.3524C30.334 38.2899 30.3965 38.2273 30.4591 38.1647C30.5425 38.0813 30.6155 37.9979 30.6989 37.9144C30.7719 37.831 30.8554 37.7476 30.9283 37.6642C31.0013 37.5703 31.0848 37.4869 31.1578 37.3931C31.2099 37.3305 31.2516 37.2679 31.3037 37.2054C31.3663 37.1219 31.4289 37.0489 31.4914 36.9655C31.5332 36.903 31.5853 36.8404 31.627 36.7778C31.6896 36.6944 31.7417 36.611 31.7938 36.5276C31.8356 36.465 31.8773 36.4024 31.919 36.3398C31.9816 36.246 32.0337 36.1521 32.0858 36.0583C32.1171 36.0062 32.1484 35.954 32.1797 35.9019C32.2631 35.7559 32.3361 35.6099 32.4091 35.4639C32.4299 35.4118 32.4508 35.3596 32.4821 35.3179C32.5342 35.2136 32.5759 35.1094 32.6281 35.0051C32.6594 34.9425 32.6802 34.88 32.7011 34.8174C32.7428 34.7235 32.7741 34.6193 32.8158 34.5254C32.8366 34.4628 32.8575 34.3898 32.8888 34.3273C32.9201 34.223 32.9513 34.1292 32.9826 34.0249C33.0035 33.9623 33.0243 33.8997 33.0348 33.8372C33.066 33.7016 33.0973 33.5765 33.1286 33.4409C33.139 33.4096 33.1495 33.3679 33.1495 33.3366C33.1808 33.1802 33.212 33.0238 33.2329 32.8674C33.2433 32.8153 33.2433 32.7631 33.2537 32.711C33.2642 32.5858 33.285 32.4711 33.2955 32.346C33.2955 32.2939 33.3059 32.2417 33.3059 32.2C33.2746 31.9393 33.285 31.7725 33.285 31.6056Z" fill="#0C2A6D"/>
<path d="M6.81966 6.41203C5.53704 7.88235 4.51511 9.59251 3.84773 11.4695C5.35976 11.0107 6.76752 10.8126 8.05014 10.8126C10.3443 10.8126 12.263 11.4382 13.8167 12.2829C17.0702 14.0556 18.7074 16.7877 18.7074 16.7877C18.7074 16.7877 21.8878 16.7981 25.0788 14.942C24.6616 13.9826 19.9587 3.8885 6.81966 6.41203Z" fill="#1F3D86"/>
<path d="M12.878 2.11578C10.5317 3.05428 8.45661 4.53503 6.81944 6.41204C19.9585 3.88851 24.6614 13.9826 25.0785 14.942C26.601 14.0556 28.1339 12.7313 29.3227 10.7813C28.7804 9.61337 24.4216 1.19813 12.878 2.11578Z" fill="white"/>
<path d="M30.9494 6.81872C30.5636 8.37246 30.0005 9.67594 29.3227 10.7813C28.1339 12.7417 26.6115 14.0556 25.0786 14.942C21.8877 16.8086 18.7072 16.7877 18.7072 16.7877C18.7072 16.7877 17.0492 19.5094 16.997 23.2008C17.0805 23.2112 28.9994 24.9735 33.6711 11.7719C33.0767 9.95749 32.1382 8.27861 30.9494 6.81872Z" fill="white"/>
<path d="M8.04997 10.8126C6.76735 10.8126 5.37002 11.0107 3.84756 11.4695C3.25318 13.1275 2.92992 14.9211 2.92992 16.7877C2.92992 21.7201 5.19275 26.131 8.74863 29.0195C2.29382 19.5407 7.55986 11.5217 8.04997 10.8126Z" fill="#F2CD16"/>
<path d="M18.3736 28.9674C18.9785 30.1144 19.8023 31.2824 20.9389 32.419C27.8212 31.4492 33.275 26.0372 34.3178 19.1861C28.9057 30.3647 18.3841 28.9674 18.3736 28.9674Z" fill="white"/>
<path d="M28.2278 8.92513C28.3321 9.07112 28.4155 9.20668 28.5094 9.34225C28.5094 9.34225 28.5094 9.35267 28.5198 9.35267C28.7805 9.74893 28.9682 10.093 29.1142 10.3537C29.1246 10.3746 29.135 10.385 29.135 10.3955C29.1663 10.458 29.1976 10.5206 29.2289 10.5727C29.2393 10.5832 29.2393 10.604 29.2497 10.6144C29.281 10.677 29.3019 10.7291 29.3227 10.7709C29.9901 9.66551 30.5532 8.36203 30.9495 6.80829C30.7826 6.61016 30.6158 6.41203 30.4385 6.2139C30.3864 6.15134 30.3238 6.08877 30.2612 6.0262C30.1465 5.9115 30.0214 5.78636 29.8962 5.66123C29.8233 5.58824 29.7503 5.52567 29.6877 5.45267C29.573 5.33797 29.4479 5.22326 29.3227 5.10856C29.2497 5.04599 29.1767 4.97299 29.1037 4.91043C28.9473 4.77487 28.7805 4.62888 28.6136 4.50374C28.4989 4.42032 28.3946 4.32647 28.2799 4.24305C28.1652 4.15963 28.0505 4.06578 27.9358 3.98235C27.8211 3.89893 27.7064 3.82594 27.5917 3.74251C27.4979 3.67995 27.404 3.61738 27.3206 3.55481C27.1954 3.47139 27.0599 3.38797 26.9348 3.30455C26.8618 3.26283 26.7888 3.2107 26.7053 3.16898C26.184 2.86658 25.6521 2.58503 25.089 2.34519C25.0682 2.33476 25.0369 2.32433 25.016 2.3139C24.8283 2.23048 24.6406 2.15749 24.4529 2.08449C24.4112 2.07406 24.3799 2.05321 24.3382 2.04278C22.5864 1.3754 20.6885 1 18.7072 1C16.6425 1 14.6821 1.39626 12.8781 2.11578C20.7406 1.49011 25.2663 5.19198 27.5187 7.98663C27.7898 8.32032 28.0192 8.63315 28.2278 8.92513Z" fill="#1F3D86"/>
<path d="M28.2381 12.2933C28.1651 16.9546 25.4956 20.9901 21.5956 22.9818C25.4956 22.2206 30.8868 19.6762 33.6814 11.7824C33.0662 9.95749 32.1381 8.27862 30.9494 6.81872C30.5635 8.37247 30.0004 9.67594 29.3226 10.7813C28.9889 11.334 28.624 11.8345 28.2381 12.2933Z" fill="white"/>
<path d="M33.6815 11.7823C33.5981 12.0118 33.5146 12.2307 33.4312 12.4497C33.3999 12.5227 33.3791 12.5853 33.3478 12.6583C33.2852 12.8043 33.2331 12.9503 33.1705 13.0962C33.1392 13.1797 33.108 13.2527 33.0662 13.3257C33.0037 13.4612 32.9515 13.5968 32.889 13.7219C32.8577 13.7949 32.816 13.8679 32.7847 13.9513C32.7221 14.0869 32.6596 14.2225 32.5866 14.3476C32.5553 14.4102 32.524 14.4727 32.4927 14.5353C32.3989 14.7126 32.305 14.8898 32.2112 15.0567C32.2007 15.0671 32.2007 15.088 32.1903 15.0984C32.086 15.2757 31.9818 15.4634 31.8775 15.6302C31.8462 15.6823 31.8149 15.7345 31.7732 15.797C31.7002 15.9118 31.6272 16.0369 31.5542 16.1516C31.5125 16.2142 31.4708 16.2767 31.4291 16.3393C31.3561 16.4436 31.2935 16.5479 31.2205 16.6521C31.1788 16.7147 31.1371 16.7773 31.0954 16.8294C31.0224 16.9337 30.9494 17.038 30.866 17.1422C30.8243 17.1944 30.793 17.2465 30.7513 17.2987C30.647 17.4342 30.5531 17.5594 30.4489 17.6845C30.4384 17.7053 30.4176 17.7158 30.4072 17.7366C30.2924 17.8826 30.1777 18.0182 30.0526 18.1537C30.0109 18.1954 29.9796 18.2372 29.9379 18.2789C29.8545 18.3727 29.7711 18.4666 29.6876 18.55C29.6459 18.6021 29.5938 18.6438 29.5521 18.696C29.4791 18.7794 29.3957 18.8524 29.3122 18.9358C29.2705 18.9775 29.2184 19.0297 29.1767 19.0714C29.0933 19.1548 29.0098 19.2278 28.9264 19.3008C28.8847 19.3425 28.843 19.3738 28.8013 19.4155C28.697 19.5093 28.5823 19.6032 28.478 19.697C28.4572 19.7075 28.4467 19.7283 28.4259 19.7388C28.3007 19.843 28.1756 19.9473 28.0505 20.0516C28.0192 20.0829 27.9775 20.1037 27.9462 20.135C27.8523 20.208 27.7585 20.281 27.6751 20.3436C27.6334 20.3749 27.5812 20.4061 27.5395 20.4374C27.4561 20.5 27.3727 20.5626 27.2788 20.6147C27.2371 20.646 27.185 20.6773 27.1433 20.7085C27.0494 20.7711 26.966 20.8233 26.8721 20.8858C26.8304 20.9067 26.7991 20.938 26.7574 20.9588C26.6427 21.0318 26.5176 21.1048 26.4029 21.1778C26.3924 21.1882 26.382 21.1882 26.3716 21.1987C26.236 21.2716 26.1109 21.3551 25.9753 21.4176C25.9545 21.4281 25.9232 21.4489 25.9023 21.4593C25.7981 21.5115 25.6938 21.5741 25.5895 21.6262C25.5478 21.647 25.5165 21.6679 25.4748 21.6783C25.381 21.72 25.2871 21.7722 25.1933 21.8139C25.1515 21.8348 25.1203 21.8452 25.0785 21.866C24.9743 21.9077 24.8804 21.9599 24.7866 22.0016C24.7553 22.012 24.724 22.0224 24.7031 22.0433C24.4424 22.158 24.1818 22.2623 23.9211 22.3561C23.9106 22.3561 23.9106 22.3561 23.9002 22.3666C23.7751 22.4083 23.6604 22.45 23.5352 22.4917C23.5144 22.5021 23.4831 22.5021 23.4622 22.5126C23.358 22.5438 23.2537 22.5751 23.1494 22.6168C23.1285 22.6273 23.0973 22.6273 23.0764 22.6377C22.9617 22.669 22.8574 22.7003 22.7427 22.7315C22.7323 22.7315 22.7114 22.742 22.701 22.742C22.3152 22.8462 21.9398 22.9297 21.5852 23.0027C18.9678 23.5136 17.0283 23.2321 16.997 23.2216C16.997 23.5762 17.0074 23.9307 17.0387 24.2957C17.0491 24.473 17.07 24.6503 17.0908 24.8275C17.0908 24.8484 17.1013 24.8692 17.1013 24.8901C17.1638 25.3593 17.2473 25.8495 17.3724 26.3396C17.3933 26.4334 17.4141 26.5273 17.4454 26.6211C17.4767 26.7254 17.508 26.8297 17.5392 26.9444C17.581 27.0695 17.6227 27.1946 17.6644 27.3198C17.6957 27.4136 17.7269 27.5075 17.7687 27.6013C17.8208 27.7473 17.8834 27.9037 17.9459 28.0497C17.9772 28.1227 18.0085 28.2061 18.0398 28.2791C18.1441 28.5085 18.2483 28.738 18.3735 28.9674C18.3839 28.9674 28.9056 30.3647 34.3176 19.1757C34.4323 18.3936 34.4949 17.6011 34.4949 16.7877C34.4949 15.0358 34.2133 13.3569 33.6815 11.7823Z" fill="#F2CD16"/>
<path d="M18.3736 28.9674C18.2484 28.738 18.1441 28.5086 18.0399 28.2792C18.0086 28.2062 17.9773 28.1227 17.946 28.0497C17.8834 27.9038 17.8209 27.7473 17.7687 27.6013C17.7375 27.5075 17.6957 27.4136 17.6645 27.3198C17.6228 27.1947 17.581 27.0695 17.5393 26.9444C17.508 26.8401 17.4768 26.7358 17.4455 26.6211C17.4142 26.5273 17.3933 26.4334 17.3725 26.3396C17.2474 25.8495 17.1535 25.3698 17.1014 24.8901C17.1014 24.8693 17.0909 24.8484 17.0909 24.8276C17.0701 24.6503 17.0492 24.473 17.0388 24.2957C17.0075 23.9308 16.9971 23.5658 16.9971 23.2112C17.0492 19.5094 18.7072 16.7981 18.7072 16.7981C18.7072 16.7981 17.0701 14.0661 13.8166 12.2933C13.3474 12.9607 9.9896 17.9556 11.4599 24.4104C11.4599 24.4209 11.4703 24.4417 11.4703 24.4522C11.5016 24.6086 11.5433 24.765 11.5851 24.9214C11.5955 24.9423 11.5955 24.9631 11.6059 24.984C11.7415 25.4949 11.9187 26.0268 12.1169 26.5481C12.1273 26.5794 12.1377 26.6107 12.1482 26.6316C12.2107 26.7776 12.2629 26.9235 12.3254 27.0695C12.3359 27.1008 12.3567 27.1321 12.3671 27.1634C12.4401 27.3407 12.5236 27.5075 12.607 27.6848C12.6904 27.862 12.7843 28.0497 12.8781 28.2374C12.8885 28.2583 12.899 28.2792 12.9094 28.3C12.9928 28.4564 13.0762 28.6128 13.1597 28.7588C13.1805 28.8005 13.2118 28.8423 13.2326 28.8944C13.3161 29.03 13.3891 29.1759 13.4829 29.3115C13.5038 29.3532 13.5351 29.3949 13.5559 29.4366C13.6602 29.6139 13.7749 29.7808 13.8896 29.958C13.8896 29.958 13.8896 29.9685 13.9 29.9685C14.0147 30.1457 14.1399 30.3334 14.2754 30.5107C14.3067 30.5524 14.338 30.5941 14.3693 30.6358C14.4631 30.7714 14.5674 30.907 14.6717 31.0425C14.7134 31.0947 14.7551 31.1572 14.7968 31.2094C14.9011 31.3345 15.0054 31.4701 15.1097 31.5952C15.1514 31.6473 15.1931 31.6995 15.2348 31.7516C15.3808 31.9289 15.5372 32.1062 15.6936 32.2834C16.6738 32.4711 17.6749 32.5754 18.7072 32.5754C19.458 32.5754 20.2089 32.5233 20.9284 32.419C19.8126 31.2719 18.9784 30.1145 18.3736 28.9674Z" fill="#F2CD16"/>
<path d="M5.57857 18.477C4.44194 16.6209 3.78499 14.4414 3.78499 12.1056C3.78499 11.9388 3.79542 11.7719 3.79542 11.5947C3.23231 13.2214 2.91948 14.9628 2.91948 16.7773C2.91948 21.7096 5.18231 26.1206 8.7382 29.0091C6.08953 25.13 5.42215 21.4698 5.57857 18.477Z" fill="#F2CD16"/>
<path d="M18.3736 28.9674C18.9784 30.1144 19.8022 31.2824 20.9388 32.419C27.8212 31.4492 33.2749 26.0372 34.3177 19.1861C28.9057 30.3647 18.384 28.9674 18.3736 28.9674Z" fill="#1F3D86"/>
<path d="M5.57863 20.1559C5.57863 20.2497 5.58906 20.3436 5.59949 20.4374C5.60992 20.5626 5.62035 20.6981 5.63077 20.8233C5.6412 20.9484 5.66206 21.084 5.67248 21.2091C5.69334 21.3968 5.72462 21.5845 5.75591 21.7722C5.77676 21.9077 5.79762 22.0329 5.81847 22.1684C5.83933 22.2832 5.86019 22.3874 5.89147 22.5021C5.92275 22.6377 5.94361 22.7628 5.97489 22.8984C6.00618 23.0131 6.02703 23.1174 6.05831 23.2321C6.10003 23.3781 6.13131 23.5136 6.17302 23.6596C6.2043 23.7639 6.23559 23.8682 6.26687 23.9725C6.31901 24.1497 6.38158 24.327 6.44414 24.5043C6.465 24.5773 6.49628 24.6503 6.51714 24.7337C6.61099 24.984 6.70484 25.2342 6.80912 25.4949C6.8404 25.5679 6.88211 25.6513 6.91339 25.7243C6.99682 25.912 7.08024 26.0893 7.16366 26.277C7.20537 26.3709 7.25751 26.4647 7.30965 26.569C7.39307 26.7463 7.48692 26.9131 7.58077 27.0904C7.63291 27.1842 7.68505 27.2885 7.73719 27.3824C7.84147 27.5701 7.94575 27.7473 8.06045 27.935C8.11259 28.0184 8.16473 28.1123 8.21687 28.1957C8.38372 28.4668 8.56099 28.738 8.74869 29.0091C10.73 30.6254 13.1075 31.762 15.704 32.273C15.5476 32.0957 15.3912 31.9184 15.2452 31.7412C15.2035 31.689 15.1618 31.6369 15.1201 31.5848C15.0158 31.4596 14.9115 31.3241 14.8072 31.1989C14.7655 31.1468 14.7238 31.0842 14.6821 31.0321C14.5778 30.8965 14.4736 30.761 14.3797 30.6254C14.3484 30.5837 14.3171 30.542 14.2859 30.5003C14.1607 30.323 14.0356 30.1353 13.9105 29.958C13.9105 29.958 13.9105 29.9476 13.9 29.9476C13.7853 29.7703 13.6706 29.6035 13.5663 29.4262C13.5351 29.3845 13.5142 29.3428 13.4933 29.3011C13.4099 29.1655 13.3265 29.0195 13.2431 28.884C13.2222 28.8422 13.1909 28.8005 13.1701 28.7484C13.0867 28.592 13.0032 28.4356 12.9198 28.2896C12.9094 28.2687 12.899 28.2479 12.8885 28.227C12.7947 28.0393 12.7008 27.862 12.6174 27.6743C12.534 27.4971 12.461 27.3302 12.3776 27.1529C12.3671 27.1217 12.3463 27.0904 12.3359 27.0591C12.2733 26.9131 12.2107 26.7671 12.1586 26.6211C12.1482 26.5898 12.1377 26.5586 12.1273 26.5377C11.9187 26.0059 11.7519 25.4845 11.6163 24.9735C11.6059 24.9527 11.6059 24.9318 11.5955 24.911C11.5538 24.7545 11.5121 24.5981 11.4808 24.4417C11.4808 24.4313 11.4703 24.4104 11.4703 24.4C11.3869 24.0559 11.3244 23.7118 11.2722 23.3676C10.3546 17.4134 13.3786 12.9086 13.827 12.2725C12.2733 11.4278 10.3546 10.8021 8.06045 10.8021C7.76847 11.2192 5.8289 14.1703 5.58906 18.4666C5.57864 18.6021 5.57863 18.7377 5.57863 18.8837C5.57863 18.9567 5.57863 19.0297 5.56821 19.1027C5.56821 19.2382 5.56821 19.3634 5.56821 19.4989C5.56821 19.5823 5.56821 19.6658 5.57863 19.7492C5.56821 19.8952 5.57863 20.0203 5.57863 20.1559Z" fill="white"/>
<path d="M28.2382 12.2933C28.2382 12.2933 28.7909 11.6677 29.3227 10.7813C29.1454 10.4059 28.5823 9.30055 27.5291 7.99707C27.988 9.27969 28.2382 10.6666 28.2382 12.1161C28.2382 12.1682 28.2382 12.2308 28.2382 12.2933Z" fill="white"/>
<path d="M6.81941 6.41204C5.53679 7.88236 4.51487 9.59252 3.84749 11.4695C5.35952 11.0107 6.76727 10.8126 8.0499 10.8126C10.344 10.8126 12.2627 11.4382 13.8165 12.2829C17.07 14.0556 18.7071 16.7877 18.7071 16.7877C18.7071 16.7877 21.8876 16.7981 25.0785 14.942C24.6614 13.9826 19.9585 3.88851 6.81941 6.41204Z" stroke="#0C2A6D" stroke-width="0.4391" stroke-miterlimit="10"/>
<path d="M12.878 2.11578C10.5317 3.05429 8.45661 4.53503 6.81944 6.41204C19.9585 3.88851 24.6614 13.9826 25.0785 14.942C26.601 14.0556 28.1339 12.7313 29.3227 10.7813C28.7804 9.61338 24.4216 1.19814 12.878 2.11578Z" stroke="#0C2A6D" stroke-width="0.4391" stroke-miterlimit="10"/>
<path d="M18.7177 1C16.653 1 14.6925 1.39626 12.8885 2.11578C24.4217 1.1877 28.7805 9.61337 29.3332 10.7709C30.0006 9.66551 30.5637 8.36203 30.9599 6.80829C28.0506 3.27326 23.65 1 18.7177 1Z" stroke="#0C2A6D" stroke-width="0.4391" stroke-miterlimit="10"/>
<path d="M30.9494 6.81872C30.5636 8.37247 30.0005 9.67594 29.3227 10.7813C28.1339 12.7417 26.6115 14.0556 25.0786 14.942C21.8877 16.8086 18.7072 16.7877 18.7072 16.7877C18.7072 16.7877 17.0492 19.5094 16.997 23.2008C17.0805 23.2112 28.9994 24.9735 33.6711 11.7719C33.0767 9.95749 32.1382 8.27862 30.9494 6.81872Z" stroke="#0C2A6D" stroke-width="0.4391" stroke-miterlimit="10"/>
<path d="M33.6814 11.7823C29.0098 24.9735 17.0908 23.2216 17.0074 23.2008C16.9865 24.9631 17.3202 26.9444 18.3734 28.9569C18.3838 28.9569 28.9055 30.3543 34.3175 19.1652C34.4322 18.3831 34.4948 17.5906 34.4948 16.7773C34.4948 15.0358 34.2132 13.3569 33.6814 11.7823Z" stroke="#0C2A6D" stroke-width="0.4391" stroke-miterlimit="10"/>
<path d="M18.3734 28.9674C17.3202 26.9444 16.9761 24.9631 17.0074 23.2112C17.0595 19.5094 18.7175 16.7981 18.7175 16.7981C18.7175 16.7981 17.0804 14.0661 13.8269 12.2933C13.1699 13.211 7.00711 22.4187 15.7039 32.2939C16.6841 32.4816 17.6852 32.5858 18.7175 32.5858C19.4683 32.5858 20.2191 32.5337 20.9387 32.4294C19.8125 31.2719 18.9782 30.1145 18.3734 28.9674Z" stroke="#0C2A6D" stroke-width="0.4391" stroke-miterlimit="10"/>
<path d="M8.04997 10.8126C6.76735 10.8126 5.37002 11.0107 3.84756 11.4695C3.25318 13.1276 2.92992 14.9211 2.92992 16.7877C2.92992 21.7201 5.19275 26.131 8.74863 29.0195C2.29382 19.5407 7.55986 11.5217 8.04997 10.8126Z" stroke="#0C2A6D" stroke-width="0.4391" stroke-miterlimit="10"/>
<path d="M18.3736 28.9674C18.9785 30.1144 19.8023 31.2824 20.9389 32.419C27.8212 31.4492 33.275 26.0372 34.3178 19.1861C28.9057 30.3647 18.3841 28.9674 18.3736 28.9674Z" stroke="#0C2A6D" stroke-width="0.4391" stroke-miterlimit="10"/>
<path d="M13.8268 12.2829C12.2731 11.4382 10.3544 10.8126 8.06027 10.8126C7.57016 11.5217 2.29369 19.5407 8.7485 29.0195C10.7298 30.6358 13.1073 31.7725 15.7038 32.2834C7.00706 22.4083 13.1699 13.2005 13.8268 12.2829Z" stroke="#0C2A6D" stroke-width="0.4391" stroke-miterlimit="10"/>
<path d="M34.4947 16.7877C34.4947 25.5053 27.4247 32.5754 18.707 32.5754C9.98938 32.5754 2.91933 25.5053 2.91933 16.7877C2.91933 8.07005 9.98938 1 18.707 1C27.4351 1 34.4947 8.07005 34.4947 16.7877Z" stroke="#0C2A6D" stroke-width="0.5855" stroke-miterlimit="10" stroke-linecap="round" stroke-linejoin="round"/>
</svg>
