<svg width="200" height="60" viewBox="0 0 200 60" fill="none" xmlns="http://www.w3.org/2000/svg">
<path d="M60.3955 11.8489L59.7386 14.5289H55.5779L52.8145 26.0516H49.6131L52.3765 14.5289H48.2158L48.8728 11.8489H60.3955Z" fill="#0C2A6D"/>
<path d="M65.1506 22.1203C64.9837 22.7773 64.942 23.4447 65.015 24.1121C65.088 24.7794 65.2131 25.3738 65.4113 25.8952L63.1067 26.2289C63.0337 26.0933 62.9711 25.9578 62.919 25.8326C62.8564 25.7075 62.8043 25.5615 62.7417 25.3947C62.4185 25.6658 62.0639 25.8848 61.6677 26.0516C61.2714 26.2289 60.8334 26.3123 60.3433 26.3123C59.7594 26.3123 59.2693 26.208 58.8626 26.0099C58.4559 25.8118 58.1118 25.5302 57.8511 25.1965C57.5904 24.8524 57.4027 24.4562 57.288 23.9973C57.1733 23.5385 57.1107 23.0484 57.1107 22.527C57.1107 21.7241 57.2567 20.9733 57.5383 20.2746C57.8198 19.5655 58.2161 18.9503 58.7166 18.4289C59.2171 17.9075 59.8115 17.4904 60.4998 17.188C61.1776 16.8856 61.9284 16.7396 62.7209 16.7396C62.8252 16.7396 63.0024 16.75 63.2631 16.7604C63.5238 16.7709 63.8262 16.8022 64.1599 16.8334C64.4936 16.8752 64.8481 16.9377 65.2236 17.0316C65.599 17.1254 65.9431 17.2506 66.2872 17.4174L65.1506 22.1203ZM63.3466 18.919C63.2006 18.8981 63.065 18.8773 62.9399 18.8669C62.8147 18.8564 62.6687 18.846 62.5019 18.846C62.1056 18.846 61.7407 18.9399 61.3965 19.138C61.0524 19.3361 60.7605 19.5968 60.4998 19.9096C60.2495 20.2329 60.0409 20.5979 59.9054 21.015C59.7594 21.4321 59.6864 21.8701 59.6864 22.3185C59.6864 22.8711 59.7802 23.3091 59.9679 23.6428C60.1556 23.9661 60.4893 24.1329 60.9899 24.1329C61.261 24.1329 61.5008 24.0808 61.7094 23.9765C61.9284 23.8722 62.1473 23.6949 62.3976 23.4551C62.4185 23.1631 62.4602 22.8607 62.5123 22.5479C62.5645 22.2246 62.6166 21.9326 62.6792 21.6719L63.3466 18.919Z" fill="#0C2A6D"/>
<path d="M69.3738 26.0516H66.8086L68.9776 16.9169H71.5637L69.3738 26.0516ZM70.6147 15.8115C70.2602 15.8115 69.9369 15.7072 69.645 15.4883C69.353 15.2693 69.207 14.946 69.207 14.508C69.207 14.2682 69.2591 14.0388 69.353 13.8198C69.4468 13.6008 69.5824 13.4235 69.7388 13.2671C69.9057 13.1107 70.0934 12.9856 70.3019 12.8917C70.5209 12.7979 70.7399 12.7562 70.9901 12.7562C71.3447 12.7562 71.6679 12.8604 71.9599 13.0794C72.2519 13.2984 72.3979 13.6217 72.3979 14.0596C72.3979 14.2995 72.3458 14.5289 72.2519 14.7479C72.1581 14.9669 72.0225 15.1441 71.8661 15.3005C71.6992 15.457 71.5115 15.5821 71.303 15.676C71.0944 15.7698 70.865 15.8115 70.6147 15.8115Z" fill="#0C2A6D"/>
<path d="M81.0529 20.4831C81.0529 21.3278 80.9173 22.0995 80.6358 22.7981C80.3542 23.4968 79.9684 24.1016 79.4783 24.6126C78.9882 25.1235 78.3938 25.5198 77.7056 25.8013C77.0173 26.0829 76.2665 26.2289 75.4532 26.2289C75.0569 26.2289 74.6711 26.1976 74.2748 26.1246L73.4927 29.2634H70.9275L73.8056 17.2505C74.2644 17.115 74.7962 16.9898 75.3906 16.8751C75.985 16.7604 76.6315 16.7083 77.3302 16.7083C77.9767 16.7083 78.5398 16.8021 79.009 17.0003C79.4783 17.1984 79.8641 17.4695 80.1665 17.8032C80.4689 18.1473 80.6879 18.5436 80.8339 19.0024C80.9799 19.4717 81.0529 19.9618 81.0529 20.4831ZM74.7545 24.039C74.9526 24.0807 75.1925 24.112 75.4844 24.112C75.9328 24.112 76.35 24.0286 76.7149 23.8618C77.0903 23.6949 77.4032 23.4551 77.6639 23.1631C77.9245 22.8607 78.1227 22.4957 78.2687 22.0786C78.4147 21.6615 78.4876 21.1922 78.4876 20.6813C78.4876 20.1807 78.3729 19.7636 78.154 19.4091C77.935 19.065 77.5491 18.8877 77.0069 18.8877C76.6315 18.8877 76.2874 18.919 75.9641 18.992L74.7545 24.039Z" fill="#0C2A6D"/>
<path d="M82.2728 22.4749C82.2728 21.7345 82.398 21.015 82.6587 20.3267C82.9194 19.6281 83.2843 19.0128 83.764 18.481C84.2437 17.9388 84.8172 17.5112 85.495 17.1775C86.1728 16.8439 86.9236 16.6874 87.7474 16.6874C88.1541 16.6874 88.5295 16.75 88.8736 16.8647C89.2177 16.9794 89.5202 17.1463 89.7809 17.3652C90.0415 17.5842 90.2397 17.8554 90.3857 18.1682C90.5317 18.4914 90.6047 18.846 90.6047 19.2527C90.6047 19.8992 90.4587 20.4519 90.1667 20.9003C89.8747 21.3487 89.4784 21.7241 88.9571 22.0056C88.4461 22.2872 87.8309 22.4957 87.1218 22.6209C86.4127 22.746 85.641 22.8086 84.8172 22.8086C84.9006 23.2987 85.0779 23.6428 85.349 23.8409C85.6202 24.039 86.0477 24.1433 86.6421 24.1433C87.0071 24.1433 87.3929 24.112 87.7683 24.0495C88.1541 23.9869 88.5087 23.8931 88.8423 23.7679L89.03 25.8013C88.7068 25.9265 88.2897 26.0412 87.7891 26.1455C87.2886 26.2497 86.7359 26.3019 86.152 26.3019C85.4325 26.3019 84.8276 26.1976 84.3375 25.9995C83.8474 25.8013 83.4512 25.5198 83.1383 25.1757C82.8359 24.8316 82.6065 24.4249 82.471 23.9556C82.3354 23.4968 82.2728 22.9963 82.2728 22.4749ZM87.3199 18.7313C86.7255 18.7313 86.2145 18.9398 85.7661 19.3674C85.3178 19.7949 85.0258 20.3476 84.8902 21.0463C85.6097 21.0254 86.1833 20.9628 86.6212 20.8586C87.0592 20.7647 87.4033 20.6396 87.6431 20.504C87.883 20.3685 88.0498 20.212 88.1333 20.0556C88.2167 19.8888 88.2584 19.7324 88.2584 19.5655C88.2584 19.0024 87.9456 18.7313 87.3199 18.7313Z" fill="#0C2A6D"/>
<path d="M93.5141 26.0516H90.9489L93.1178 16.9169H95.7039L93.5141 26.0516ZM94.7654 15.8115C94.4109 15.8115 94.0772 15.7072 93.7956 15.4883C93.5037 15.2693 93.3577 14.946 93.3577 14.508C93.3577 14.2682 93.4098 14.0388 93.5037 13.8198C93.5975 13.6008 93.7331 13.4235 93.8895 13.2671C94.0563 13.1107 94.244 12.9856 94.4526 12.8917C94.6716 12.7979 94.8906 12.7562 95.1408 12.7562C95.4954 12.7562 95.8186 12.8604 96.1106 13.0794C96.4026 13.2984 96.5486 13.6217 96.5486 14.0596C96.5486 14.2995 96.4964 14.5289 96.4026 14.7479C96.3087 14.9669 96.1732 15.1441 96.0168 15.3005C95.8499 15.457 95.6622 15.5821 95.4537 15.676C95.2347 15.7698 95.0157 15.8115 94.7654 15.8115Z" fill="#0C2A6D"/>
<path d="M58.7059 10.8896L58.049 13.5695H53.8883L51.1249 25.0923H47.9236L50.6869 13.5695H46.5262L47.1832 10.8896H58.7059Z" fill="white"/>
<path d="M63.4611 21.1505C63.2943 21.8075 63.2525 22.4749 63.3255 23.1422C63.3985 23.8096 63.5237 24.404 63.7218 24.9254L61.4173 25.2591C61.3443 25.1235 61.2817 24.988 61.2296 24.8628C61.167 24.7377 61.1148 24.5917 61.0523 24.4249C60.729 24.696 60.3745 24.915 59.9782 25.0818C59.582 25.2591 59.144 25.3425 58.6539 25.3425C58.0699 25.3425 57.5798 25.2382 57.1731 25.0401C56.7665 24.842 56.4223 24.5604 56.1616 24.2267C55.9009 23.8826 55.7132 23.4864 55.5985 23.0275C55.4838 22.5687 55.4213 22.0786 55.4213 21.5572C55.4213 20.7543 55.5673 20.0035 55.8488 19.3048C56.1304 18.5957 56.5266 17.9805 57.0271 17.4591C57.5277 16.9377 58.1221 16.5206 58.8103 16.2182C59.4881 15.9158 60.2389 15.7698 61.0314 15.7698C61.1357 15.7698 61.313 15.7802 61.5737 15.7906C61.8448 15.7802 62.1368 15.8115 62.4705 15.8428C62.8042 15.8845 63.1587 15.947 63.5341 16.0409C63.9095 16.1347 64.2536 16.2599 64.5977 16.4267L63.4611 21.1505ZM61.6571 17.9596C61.5111 17.9388 61.3755 17.9179 61.2504 17.9075C61.1253 17.897 60.9793 17.8866 60.8124 17.8866C60.4162 17.8866 60.0512 17.9805 59.7071 18.1786C59.363 18.3767 59.071 18.6374 58.8103 18.9503C58.56 19.2735 58.3515 19.6385 58.2159 20.0556C58.0699 20.4727 57.9969 20.9107 57.9969 21.3591C57.9969 21.9118 58.0908 22.3497 58.2785 22.6834C58.4662 23.0067 58.7999 23.1735 59.3004 23.1735C59.5715 23.1735 59.8114 23.1214 60.0199 23.0171C60.2389 22.9128 60.4579 22.7356 60.7082 22.4957C60.729 22.2037 60.7707 21.9013 60.8229 21.5885C60.875 21.2652 60.9271 20.9733 60.9897 20.7126L61.6571 17.9596Z" fill="white"/>
<path d="M67.6844 25.0922H65.1191L67.2881 15.9575H69.8742L67.6844 25.0922ZM68.9357 14.8521C68.5812 14.8521 68.2579 14.7479 67.9659 14.5289C67.674 14.3099 67.528 13.9866 67.528 13.5487C67.528 13.3088 67.5801 13.0794 67.674 12.8604C67.7678 12.6414 67.9034 12.4642 68.0598 12.3077C68.2266 12.1513 68.4143 12.0262 68.6229 11.9323C68.8419 11.8385 69.0609 11.7968 69.3111 11.7968C69.6657 11.7968 69.9889 11.9011 70.2809 12.12C70.5729 12.339 70.7189 12.6623 70.7189 13.1003C70.7189 13.3401 70.6667 13.5695 70.5729 13.7885C70.4686 13.9971 70.3435 14.1848 70.1766 14.3412C70.0098 14.4976 69.8221 14.6227 69.6135 14.7166C69.405 14.8 69.1756 14.8521 68.9357 14.8521Z" fill="white"/>
<path d="M79.3635 19.5238C79.3635 20.3685 79.228 21.1401 78.9464 21.8388C78.6648 22.5374 78.279 23.1422 77.7889 23.6532C77.2988 24.1642 76.7044 24.5604 76.0162 24.842C75.3279 25.1235 74.5771 25.2695 73.7638 25.2695C73.3675 25.2695 72.9817 25.2382 72.5854 25.1652L71.8034 28.304H69.2485L72.1266 16.2912C72.5854 16.1556 73.1173 16.0305 73.7116 15.9158C74.306 15.8011 74.9525 15.7489 75.6512 15.7489C76.2977 15.7489 76.8608 15.8428 77.3301 16.0409C77.7993 16.239 78.1852 16.5102 78.4876 16.8439C78.79 17.188 79.009 17.5842 79.155 18.043C79.2905 18.5123 79.3635 19.0024 79.3635 19.5238ZM73.0651 23.0797C73.2632 23.1214 73.5031 23.1527 73.7951 23.1527C74.2435 23.1527 74.6606 23.0693 75.0255 22.9024C75.4009 22.7356 75.7138 22.4957 75.9745 22.2037C76.2352 21.9013 76.4333 21.5364 76.5793 21.1193C76.7253 20.7021 76.7983 20.2329 76.7983 19.7219C76.7983 19.2214 76.6836 18.8043 76.4646 18.4497C76.2456 18.1056 75.8598 17.9283 75.3175 17.9283C74.9421 17.9283 74.598 17.9596 74.2747 18.0326L73.0651 23.0797Z" fill="white"/>
<path d="M80.5835 21.5155C80.5835 20.7751 80.7086 20.0556 80.9693 19.3674C81.23 18.6687 81.595 18.0535 82.0747 17.5217C82.5544 16.9794 83.1279 16.5519 83.8057 16.2182C84.4835 15.8845 85.2343 15.7281 86.0581 15.7281C86.4648 15.7281 86.8402 15.7907 87.1843 15.9054C87.5284 16.0201 87.8308 16.1869 88.0915 16.4059C88.3522 16.6249 88.5503 16.896 88.6963 17.2088C88.8423 17.5321 88.9153 17.8866 88.9153 18.2933C88.9153 18.9399 88.7693 19.4925 88.4773 19.9409C88.1854 20.3893 87.7891 20.7647 87.2677 21.0463C86.7568 21.3278 86.1415 21.5364 85.4324 21.6615C84.7233 21.7866 83.9517 21.8492 83.1279 21.8492C83.2113 22.3393 83.3886 22.6834 83.6597 22.8816C83.9308 23.0797 84.3584 23.184 84.9528 23.184C85.3177 23.184 85.7035 23.1527 86.0789 23.0901C86.4648 23.0276 86.8193 22.9337 87.153 22.8086L87.3407 24.842C87.0174 24.9671 86.6003 25.0818 86.0998 25.1861C85.5993 25.2904 85.0466 25.3425 84.4626 25.3425C83.7431 25.3425 83.1383 25.2382 82.6482 25.0401C82.1581 24.842 81.7618 24.5604 81.449 24.2163C81.1466 23.8722 80.9172 23.4655 80.7816 22.9963C80.6461 22.527 80.5835 22.0369 80.5835 21.5155ZM85.6306 17.7615C85.0362 17.7615 84.5252 17.9701 84.0768 18.3976C83.6284 18.8251 83.3364 19.3778 83.2009 20.0765C83.9204 20.0556 84.4939 19.9931 84.9319 19.8888C85.3699 19.7949 85.714 19.6698 85.9538 19.5342C86.1937 19.3987 86.3605 19.2423 86.4439 19.0858C86.5273 18.919 86.5691 18.7626 86.5691 18.5957C86.5691 18.0431 86.2562 17.7615 85.6306 17.7615Z" fill="white"/>
<path d="M91.8351 25.0922H89.2699L91.4389 15.9575H94.025L91.8351 25.0922ZM93.076 14.8521C92.7215 14.8521 92.3878 14.7479 92.1063 14.5289C91.8143 14.3099 91.6683 13.9866 91.6683 13.5487C91.6683 13.3088 91.7204 13.0794 91.8143 12.8604C91.9081 12.6414 92.0437 12.4642 92.2001 12.3077C92.367 12.1513 92.5547 12.0262 92.7632 11.9323C92.9822 11.8385 93.2012 11.7968 93.4514 11.7968C93.806 11.7968 94.1293 11.9011 94.4212 12.12C94.7132 12.339 94.8592 12.6623 94.8592 13.1003C94.8592 13.3401 94.8071 13.5695 94.7132 13.7885C94.6194 13.9971 94.4942 14.1848 94.3274 14.3412C94.171 14.4976 93.9833 14.6123 93.7643 14.7061C93.5557 14.8 93.3263 14.8521 93.076 14.8521Z" fill="white"/>
<path d="M51.0621 49.6497C50.791 48.2315 50.5407 46.7508 50.3009 45.2283C50.061 43.7059 49.8316 42.1834 49.6126 40.6818C49.3937 39.1698 49.206 37.6995 49.0391 36.2708C48.8723 34.8422 48.7263 33.497 48.6116 32.2353H52.8036C52.8557 33.1946 52.9183 34.2166 52.9912 35.3115C53.0642 36.4064 53.1581 37.5118 53.2519 38.6275C53.3562 39.7433 53.4605 40.8487 53.5648 41.9436C53.6691 43.0385 53.7838 44.0708 53.9089 45.0198C54.4303 44.1438 54.983 43.1949 55.5773 42.1521C56.1717 41.1093 56.7765 40.0353 57.3814 38.9091C57.9966 37.7829 58.591 36.6567 59.1854 35.52C59.7797 34.3834 60.3324 33.2885 60.833 32.2249H65.0041C64.368 33.4345 63.6693 34.7275 62.9185 36.1144C62.1677 37.5013 61.3544 38.9404 60.4993 40.4315C59.6338 41.9227 58.7265 43.4452 57.7568 44.9885C56.7974 46.5422 55.7859 48.0855 54.7327 49.6184H51.0621V49.6497Z" fill="#0C2A6D"/>
<path d="M66.2865 49.9521C65.5357 49.9521 64.8787 49.8374 64.3261 49.608C63.7734 49.3786 63.3146 49.0658 62.9496 48.6486C62.5846 48.242 62.3135 47.7518 62.1258 47.1887C61.9381 46.6256 61.8442 46.0104 61.8442 45.3222C61.8442 44.4671 61.9798 43.6224 62.2614 42.7674C62.5429 41.9123 62.9496 41.151 63.4814 40.4732C64.0236 39.7954 64.6806 39.2323 65.4627 38.8048C66.2448 38.3772 67.1416 38.1583 68.1426 38.1583C68.883 38.1583 69.5295 38.273 70.0926 38.5024C70.6557 38.7318 71.1146 39.0446 71.4795 39.4617C71.8445 39.8684 72.1156 40.3585 72.3033 40.9216C72.491 41.4847 72.5849 42.1 72.5849 42.7882C72.5849 43.6433 72.4493 44.4879 72.1782 45.343C71.9071 46.1981 71.5108 46.9593 70.9894 47.6371C70.468 48.3149 69.8111 48.8781 69.0186 49.3056C68.2365 49.7331 67.3188 49.9521 66.2865 49.9521ZM67.8611 40.8382C67.3918 40.8382 66.9851 40.9738 66.6306 41.2449C66.2761 41.516 65.9737 41.8601 65.7338 42.2668C65.494 42.6735 65.3167 43.1323 65.1916 43.6224C65.0664 44.1125 65.0143 44.5818 65.0143 45.0198C65.0143 45.7393 65.129 46.3024 65.3584 46.6882C65.5878 47.074 65.9945 47.2722 66.5889 47.2722C67.0581 47.2722 67.4648 47.1366 67.8194 46.8655C68.1739 46.5944 68.4763 46.2607 68.7162 45.8436C68.956 45.4369 69.1333 44.9781 69.2584 44.4879C69.3835 43.9978 69.4357 43.539 69.4357 43.0906C69.4357 42.3711 69.321 41.808 69.0916 41.4222C68.8726 41.0363 68.4555 40.8382 67.8611 40.8382Z" fill="#0C2A6D"/>
<path d="M78.0804 49.8687C77.0689 49.8687 76.2868 49.7331 75.7029 49.4725C75.1189 49.2118 74.7122 48.8572 74.4724 48.3984C74.2221 47.9396 74.1074 47.4182 74.1074 46.8342C74.1178 46.2503 74.1908 45.6142 74.3473 44.9468L77.0481 33.643L80.3432 33.1321L77.3818 45.3848C77.3296 45.635 77.2879 45.8749 77.2879 46.0834C77.2775 46.292 77.3192 46.4797 77.4026 46.6465C77.486 46.8134 77.632 46.9385 77.8406 47.0428C78.0491 47.1471 78.3307 47.2096 78.7061 47.2305L78.0804 49.8687Z" fill="#0C2A6D"/>
<path d="M84.5665 49.8687C83.555 49.8687 82.7729 49.7331 82.189 49.4725C81.605 49.2118 81.1983 48.8572 80.9585 48.3984C80.7082 47.9396 80.5935 47.4182 80.5935 46.8342C80.6039 46.2503 80.6769 45.6142 80.8333 44.9468L83.5341 33.643L86.8293 33.1321L83.8678 45.3848C83.8157 45.635 83.774 45.8749 83.774 46.0834C83.7636 46.292 83.8053 46.4797 83.8887 46.6465C83.9721 46.8134 84.1181 46.9385 84.3267 47.0428C84.5352 47.1471 84.8168 47.2096 85.1922 47.2305L84.5665 49.8687Z" fill="#0C2A6D"/>
<path d="M87.2673 45.27C87.2673 44.3628 87.4238 43.4869 87.747 42.6318C88.0703 41.7767 88.5187 41.0259 89.1026 40.369C89.6866 39.712 90.3852 39.1802 91.2195 38.7735C92.0537 38.3668 92.9713 38.1687 93.9724 38.1687C94.4729 38.1687 94.9318 38.2417 95.3593 38.3773C95.7869 38.5232 96.1623 38.7214 96.4751 38.9925C96.7984 39.2636 97.0382 39.5869 97.2155 39.9831C97.3927 40.369 97.4866 40.8174 97.4866 41.3179C97.4866 42.1104 97.3093 42.7882 96.9548 43.3409C96.6002 43.8936 96.1101 44.342 95.474 44.6965C94.8379 45.0406 94.0975 45.2909 93.232 45.4473C92.3665 45.6037 91.428 45.6767 90.4061 45.6767C90.5 46.2711 90.7189 46.6986 91.0526 46.9385C91.3863 47.1888 91.9181 47.3139 92.6377 47.3139C93.0965 47.3139 93.5553 47.2722 94.0246 47.1992C94.4938 47.1262 94.9318 47.0011 95.3489 46.8446L95.5783 49.3369C95.182 49.4933 94.6711 49.6393 94.0558 49.7644C93.4406 49.8896 92.7732 49.9521 92.0433 49.9521C91.1673 49.9521 90.427 49.827 89.8222 49.5767C89.2173 49.3265 88.7272 48.9928 88.3518 48.5652C87.9764 48.1377 87.7053 47.6476 87.528 47.0741C87.3508 46.5109 87.2673 45.9061 87.2673 45.27ZM93.4615 40.6714C92.7419 40.6714 92.1058 40.9321 91.5532 41.443C91.0109 41.9644 90.6459 42.6422 90.4791 43.4973C91.355 43.466 92.0641 43.393 92.6064 43.2783C93.1486 43.1532 93.5657 43.0176 93.8577 42.8404C94.1601 42.6735 94.3582 42.4858 94.4521 42.2877C94.5459 42.0896 94.5981 41.8914 94.5981 41.6933C94.6085 41.0155 94.2331 40.6714 93.4615 40.6714Z" fill="#0C2A6D"/>
<path d="M109.698 38.4607C109.301 39.5347 108.895 40.5462 108.498 41.4847C108.092 42.4232 107.675 43.3096 107.237 44.1542C106.799 44.9989 106.34 45.8018 105.871 46.5735C105.401 47.3347 104.901 48.096 104.379 48.8468C103.993 49.3994 103.597 49.9625 103.191 50.5256C102.784 51.0887 102.325 51.5997 101.814 52.0585C101.314 52.5173 100.75 52.8823 100.135 53.1639C99.52 53.4454 98.8004 53.5914 97.9975 53.5914C97.497 53.5914 97.0799 53.5497 96.7253 53.4559C96.3708 53.362 96.0371 53.2369 95.7242 53.0804L96.6836 50.5882C96.9652 50.7029 97.2258 50.7863 97.4448 50.8593C97.6742 50.9219 97.9454 50.9532 98.2791 50.9532C98.7796 50.9532 99.2488 50.7968 99.6972 50.4735C100.146 50.1502 100.521 49.7227 100.813 49.1909C100.448 47.7727 100.104 46.1877 99.8015 44.4254C99.4991 42.6631 99.2906 40.6818 99.1759 38.4711H102.429C102.44 39.0238 102.471 39.639 102.513 40.3064C102.554 40.9738 102.607 41.6411 102.659 42.319C102.711 42.9968 102.784 43.6537 102.846 44.2898C102.919 44.9259 102.992 45.4994 103.076 46.0104C103.754 44.9885 104.358 43.8518 104.869 42.6005C105.391 41.3492 105.871 39.9727 106.329 38.4711H109.698V38.4607Z" fill="#0C2A6D"/>
<path d="M116.486 38.2208C117.164 38.2208 117.758 38.346 118.248 38.5858C118.749 38.8257 119.156 39.1489 119.479 39.566C119.802 39.9727 120.042 40.4628 120.198 41.0155C120.355 41.5682 120.428 42.1626 120.428 42.7987C120.428 43.7789 120.25 44.7069 119.886 45.5725C119.521 46.4484 119.03 47.1992 118.405 47.8457C117.779 48.4922 117.039 49.0032 116.194 49.3786C115.339 49.754 114.421 49.9417 113.431 49.9417C113.306 49.9417 113.076 49.9417 112.763 49.9313C112.44 49.9208 112.075 49.8896 111.668 49.8374C111.262 49.7853 110.824 49.6914 110.355 49.5872C109.896 49.4725 109.458 49.316 109.051 49.1179L112.732 33.643L116.027 33.1321L114.703 38.6275C114.984 38.5024 115.266 38.3981 115.558 38.3251C115.86 38.2626 116.163 38.2208 116.486 38.2208ZM113.723 47.3348C114.223 47.3348 114.692 47.2096 115.13 46.9698C115.568 46.7299 115.954 46.4067 116.267 46C116.59 45.5933 116.841 45.1345 117.018 44.6235C117.206 44.1126 117.299 43.5807 117.299 43.0281C117.299 42.3503 117.185 41.8184 116.955 41.4326C116.726 41.0468 116.309 40.8591 115.704 40.8591C115.506 40.8591 115.245 40.8904 114.932 40.9634C114.609 41.0364 114.328 41.1823 114.067 41.4118L112.659 47.2409C112.742 47.2513 112.815 47.2722 112.878 47.2826C112.941 47.293 113.014 47.3035 113.076 47.3139C113.149 47.3243 113.233 47.3243 113.326 47.3243C113.42 47.3243 113.566 47.3348 113.723 47.3348Z" fill="#0C2A6D"/>
<path d="M131.784 44.8216C131.586 45.635 131.534 46.4379 131.617 47.2617C131.7 48.0751 131.867 48.8051 132.107 49.4411L129.281 49.8478C129.198 49.681 129.114 49.5141 129.052 49.3577C128.979 49.2013 128.906 49.024 128.843 48.8259C128.447 49.1492 128.009 49.4203 127.519 49.6393C127.039 49.8478 126.497 49.9625 125.903 49.9625C125.193 49.9625 124.589 49.8374 124.088 49.5871C123.588 49.3369 123.17 49.0032 122.858 48.5861C122.534 48.169 122.305 47.6788 122.169 47.1157C122.023 46.5526 121.961 45.9583 121.961 45.3222C121.961 44.3419 122.138 43.4243 122.482 42.5588C122.826 41.6933 123.316 40.9425 123.932 40.296C124.547 39.6494 125.277 39.1385 126.111 38.7735C126.945 38.4085 127.853 38.2208 128.833 38.2208C128.958 38.2208 129.187 38.2313 129.5 38.2417C129.823 38.2521 130.188 38.2834 130.595 38.3355C131.002 38.3877 131.44 38.4711 131.899 38.5754C132.357 38.6901 132.785 38.8465 133.192 39.0446L131.784 44.8216ZM129.573 40.9112C129.385 40.8799 129.219 40.8591 129.073 40.8486C128.927 40.8382 128.739 40.8278 128.53 40.8278C128.051 40.8278 127.602 40.9529 127.175 41.1928C126.758 41.4326 126.393 41.7454 126.08 42.1417C125.767 42.5275 125.527 42.9863 125.35 43.4973C125.173 44.0083 125.089 44.5401 125.089 45.0928C125.089 45.7706 125.204 46.3128 125.433 46.7091C125.663 47.1053 126.08 47.3034 126.685 47.3034C127.008 47.3034 127.31 47.2409 127.571 47.1157C127.832 46.9906 128.113 46.7716 128.416 46.4797C128.447 46.1251 128.489 45.7497 128.551 45.3639C128.614 44.978 128.687 44.6131 128.749 44.2898L129.573 40.9112Z" fill="#0C2A6D"/>
<path d="M138.447 49.8687C137.436 49.8687 136.654 49.7331 136.07 49.4725C135.486 49.2118 135.079 48.8572 134.839 48.3984C134.589 47.9396 134.474 47.4182 134.474 46.8342C134.485 46.2503 134.558 45.6142 134.714 44.9468L137.415 33.643L140.71 33.1321L137.748 45.3848C137.696 45.635 137.665 45.8749 137.655 46.0834C137.644 46.292 137.686 46.4797 137.769 46.6465C137.853 46.8134 137.999 46.9385 138.207 47.0428C138.416 47.1471 138.697 47.2096 139.073 47.2305L138.447 49.8687Z" fill="#0C2A6D"/>
<path d="M144.944 49.8687C143.932 49.8687 143.15 49.7331 142.566 49.4725C141.982 49.2118 141.576 48.8572 141.336 48.3984C141.085 47.9396 140.971 47.4182 140.971 46.8342C140.981 46.2503 141.054 45.6142 141.211 44.9468L143.911 33.643L147.207 33.1321L144.245 45.3848C144.193 45.635 144.162 45.8749 144.151 46.0834C144.141 46.292 144.182 46.4797 144.266 46.6465C144.349 46.8134 144.495 46.9385 144.704 47.0428C144.912 47.1471 145.194 47.2096 145.569 47.2305L144.944 49.8687Z" fill="#0C2A6D"/>
<path d="M161.075 32.2457C161.18 32.6941 161.305 33.3406 161.461 34.1644C161.618 34.9882 161.784 35.9059 161.962 36.907C162.139 37.908 162.316 38.93 162.504 39.9727C162.692 41.0155 162.858 41.9749 163.004 42.8508C163.578 41.9853 164.193 41.0468 164.861 40.0353C165.528 39.0342 166.195 38.0436 166.842 37.0738C167.499 36.104 168.114 35.1968 168.698 34.3521C169.282 33.5075 169.783 32.8088 170.21 32.2562H173.672C173.557 33.4136 173.401 34.7067 173.203 36.1457C173.015 37.5848 172.796 39.0759 172.546 40.6193C172.306 42.1626 172.045 43.7059 171.785 45.2701C171.514 46.8238 171.253 48.2941 170.982 49.6706H167.165C167.52 47.9604 167.885 46.1147 168.281 44.1334C168.677 42.1521 169.042 40.1396 169.376 38.1166C168.938 38.8048 168.458 39.5661 167.916 40.4107C167.384 41.2554 166.842 42.1104 166.31 42.9759C165.778 43.8415 165.257 44.6652 164.756 45.4473C164.256 46.2398 163.818 46.9072 163.453 47.4599H160.585C160.502 46.9594 160.397 46.3233 160.283 45.5516C160.168 44.78 160.033 43.9666 159.897 43.1011C159.751 42.2356 159.605 41.3701 159.459 40.4837C159.313 39.6078 159.167 38.8152 159.031 38.1062C158.374 40.1292 157.791 42.1417 157.259 44.123C156.727 46.1043 156.237 47.95 155.788 49.6602H151.993C152.379 48.2837 152.796 46.8238 153.265 45.2596C153.724 43.7059 154.203 42.1521 154.693 40.5984C155.184 39.0447 155.674 37.5535 156.164 36.1144C156.654 34.6754 157.113 33.3824 157.54 32.2457H161.075Z" fill="#0C2A6D"/>
<path d="M184.027 44.8216C183.829 45.635 183.777 46.4379 183.86 47.2617C183.944 48.0751 184.11 48.8051 184.35 49.4411L181.524 49.8478C181.441 49.681 181.357 49.5141 181.295 49.3577C181.222 49.2013 181.149 49.024 181.086 48.8259C180.69 49.1492 180.252 49.4203 179.762 49.6393C179.282 49.8478 178.74 49.9625 178.146 49.9625C177.437 49.9625 176.832 49.8374 176.331 49.5871C175.831 49.3369 175.414 49.0032 175.101 48.5861C174.778 48.169 174.548 47.6788 174.413 47.1157C174.267 46.5526 174.204 45.9583 174.204 45.3222C174.204 44.3419 174.381 43.4243 174.725 42.5588C175.069 41.6933 175.56 40.9425 176.175 40.296C176.79 39.6494 177.52 39.1385 178.354 38.7735C179.188 38.4085 180.096 38.2208 181.076 38.2208C181.201 38.2208 181.43 38.2313 181.743 38.2417C182.067 38.2521 182.432 38.2834 182.838 38.3355C183.245 38.3877 183.683 38.4711 184.131 38.5754C184.59 38.6901 185.018 38.8465 185.424 39.0446L184.027 44.8216ZM181.816 40.9112C181.629 40.8799 181.462 40.8591 181.316 40.8486C181.17 40.8382 180.982 40.8278 180.774 40.8278C180.294 40.8278 179.845 40.9529 179.418 41.1928C179.001 41.4326 178.636 41.7454 178.323 42.1417C178.01 42.5275 177.77 42.9863 177.593 43.4973C177.416 44.0083 177.332 44.5401 177.332 45.0928C177.332 45.7706 177.447 46.3128 177.676 46.7091C177.906 47.1053 178.323 47.3034 178.928 47.3034C179.251 47.3034 179.553 47.2409 179.814 47.1157C180.075 46.9906 180.356 46.7716 180.659 46.4797C180.69 46.1251 180.732 45.7497 180.794 45.3639C180.857 44.978 180.93 44.6131 180.992 44.2898L181.816 40.9112Z" fill="#0C2A6D"/>
<path d="M197.5 42.8195C197.5 43.8519 197.333 44.8008 196.989 45.6559C196.645 46.5109 196.175 47.2513 195.571 47.877C194.966 48.5027 194.246 48.9823 193.402 49.3369C192.557 49.681 191.639 49.8583 190.649 49.8583C190.169 49.8583 189.679 49.8166 189.199 49.7331L188.24 53.581H185.091L188.626 38.8569C189.189 38.6901 189.846 38.5337 190.576 38.3981C191.306 38.2625 192.098 38.2 192.953 38.2C193.746 38.2 194.434 38.3251 195.008 38.565C195.581 38.8048 196.05 39.1385 196.426 39.5556C196.791 39.9727 197.072 40.4628 197.25 41.0259C197.406 41.589 197.5 42.1834 197.5 42.8195ZM189.773 47.1888C190.013 47.2409 190.315 47.2722 190.67 47.2722C191.222 47.2722 191.723 47.1679 192.182 46.9593C192.64 46.7508 193.026 46.4692 193.339 46.0938C193.662 45.7289 193.902 45.2805 194.079 44.7591C194.257 44.2377 194.351 43.6746 194.351 43.0489C194.351 42.4441 194.215 41.9227 193.944 41.4952C193.673 41.0676 193.204 40.8591 192.536 40.8591C192.077 40.8591 191.66 40.9008 191.264 40.9842L189.773 47.1888Z" fill="#0C2A6D"/>
<path d="M48.9975 48.4714C48.7264 47.0532 48.4761 45.5724 48.2363 44.05C47.9965 42.5275 47.767 41.0051 47.5481 39.5035C47.3291 37.9914 47.1414 36.5211 46.9745 35.0925C46.8077 33.6639 46.6617 32.3187 46.547 31.0569H50.739C50.7911 32.0163 50.8537 33.0382 50.9267 34.1331C50.9997 35.2281 51.0935 36.3334 51.1874 37.4492C51.2916 38.565 51.3959 39.6703 51.5002 40.7652C51.6045 41.8601 51.7192 42.8925 51.8443 43.8414C52.3657 42.9655 52.9184 42.0166 53.5128 40.9738C54.1072 39.931 54.712 38.8569 55.3168 37.7307C55.932 36.6045 56.5264 35.4783 57.1208 34.3417C57.7152 33.2051 58.2679 32.1101 58.7684 31.0465H62.9395C62.3034 32.2561 61.6048 33.5492 60.854 34.9361C60.1031 36.323 59.2898 37.762 58.4347 39.2532C57.5692 40.7444 56.662 42.2668 55.6922 43.8101C54.7328 45.3639 53.7213 46.9072 52.6681 48.4401H48.9975V48.4714Z" fill="white"/>
<path d="M64.222 48.7634C63.4712 48.7634 62.8143 48.6487 62.2616 48.4192C61.7089 48.1898 61.2501 47.877 60.8851 47.4599C60.5202 47.0532 60.249 46.5631 60.0613 46C59.8736 45.4369 59.7798 44.8217 59.7798 44.1334C59.7798 43.2783 59.9153 42.4337 60.1969 41.5786C60.4784 40.7235 60.8851 39.9623 61.417 39.2845C61.9592 38.6067 62.6162 38.0436 63.3982 37.616C64.1803 37.1885 65.0771 36.9695 66.0782 36.9695C66.8186 36.9695 67.4651 37.0842 68.0282 37.3136C68.5913 37.543 69.0501 37.8559 69.4151 38.273C69.7801 38.6797 70.0512 39.1698 70.2389 39.7329C70.4266 40.296 70.5204 40.9112 70.5204 41.5995C70.5204 42.4545 70.3849 43.2992 70.1137 44.1543C69.8426 45.0093 69.4464 45.7706 68.925 46.4484C68.4036 47.1262 67.7466 47.6893 66.9541 48.1168C66.1616 48.5548 65.2544 48.7634 64.222 48.7634ZM65.7966 39.6599C65.3274 39.6599 64.9207 39.7954 64.5662 40.0666C64.2116 40.3377 63.9092 40.6818 63.6694 41.0885C63.4295 41.4952 63.2523 41.954 63.1271 42.4441C63.002 42.9342 62.9498 43.4035 62.9498 43.8414C62.9498 44.561 63.0645 45.1241 63.294 45.5099C63.5234 45.8957 63.9301 46.0938 64.5244 46.0938C64.9937 46.0938 65.4004 45.9583 65.7549 45.6872C66.1095 45.416 66.4119 45.0823 66.6517 44.6652C66.8916 44.2585 67.0688 43.7997 67.194 43.3096C67.3191 42.8195 67.3712 42.3607 67.3712 41.9123C67.3712 41.1928 67.2565 40.6297 67.0271 40.2438C66.7977 39.858 66.391 39.6599 65.7966 39.6599Z" fill="white"/>
<path d="M76.0053 48.6799C74.9939 48.6799 74.2118 48.5444 73.6278 48.2837C73.0439 48.023 72.6372 47.6684 72.3973 47.2096C72.1471 46.7508 72.0323 46.2294 72.0323 45.6454C72.0428 45.0615 72.1158 44.4254 72.2722 43.758L74.973 32.4543L78.2682 31.9433L75.3067 44.196C75.2545 44.4462 75.2128 44.6861 75.2128 44.8946C75.2024 45.1032 75.2441 45.2909 75.3275 45.4577C75.411 45.6246 75.5569 45.7497 75.7655 45.854C75.9741 45.9583 76.2556 46.0208 76.631 46.0417L76.0053 48.6799Z" fill="white"/>
<path d="M82.5019 48.6799C81.4904 48.6799 80.7083 48.5444 80.1244 48.2837C79.5509 48.023 79.1337 47.6684 78.8939 47.2096C78.6436 46.7508 78.5289 46.2294 78.5289 45.6454C78.5394 45.0615 78.6124 44.4254 78.7688 43.758L81.4696 32.4543L84.7648 31.9433L81.8033 44.196C81.7511 44.4462 81.7094 44.6861 81.7094 44.8946C81.699 45.1032 81.7407 45.2909 81.8241 45.4577C81.9075 45.6246 82.0535 45.7497 82.2621 45.854C82.4706 45.9583 82.7522 46.0208 83.1276 46.0417L82.5019 48.6799Z" fill="white"/>
<path d="M85.2029 44.0917C85.2029 43.1845 85.3593 42.3085 85.6826 41.4535C86.0058 40.5984 86.4542 39.8476 87.0382 39.1906C87.6221 38.5337 88.3208 38.0019 89.155 37.5952C89.9892 37.1885 90.9069 36.9904 91.908 36.9904C92.4085 36.9904 92.8673 37.0634 93.2949 37.1989C93.7224 37.3449 94.0978 37.543 94.4106 37.8142C94.7339 38.0853 94.9737 38.4085 95.151 38.8048C95.3283 39.1906 95.4221 39.639 95.4221 40.1396C95.4221 40.9321 95.2449 41.6099 94.8903 42.1625C94.5358 42.7152 94.0457 43.1636 93.4096 43.5182C92.7735 43.8623 92.0331 44.1125 91.1676 44.269C90.3021 44.4254 89.3636 44.4984 88.3417 44.4984C88.4355 45.0928 88.6545 45.5203 88.9882 45.7601C89.3219 46.0104 89.8537 46.1355 90.5732 46.1355C91.032 46.1355 91.4908 46.0938 91.9601 46.0208C92.4293 45.9478 92.8673 45.8227 93.2844 45.6663L93.5138 48.1585C93.1176 48.315 92.6066 48.4609 91.9914 48.5861C91.3761 48.7112 90.7088 48.7738 89.9788 48.7738C89.1029 48.7738 88.3625 48.6486 87.7577 48.3984C87.1529 48.1481 86.6628 47.8144 86.2874 47.3869C85.912 46.9593 85.6408 46.4692 85.4636 45.8957C85.2863 45.3326 85.2029 44.7278 85.2029 44.0917ZM91.397 39.493C90.6775 39.493 90.0414 39.7537 89.4887 40.2647C88.9465 40.7861 88.5815 41.4639 88.4146 42.319C89.2906 42.2877 89.9997 42.2147 90.5419 42.1C91.0842 41.9749 91.5013 41.8393 91.7933 41.662C92.0957 41.4952 92.2938 41.3075 92.3876 41.1093C92.4815 40.9112 92.5336 40.7131 92.5336 40.515C92.5441 39.8267 92.1582 39.493 91.397 39.493Z" fill="white"/>
<path d="M107.633 37.2719C107.237 38.346 106.83 39.3575 106.434 40.296C106.027 41.2345 105.61 42.1208 105.172 42.9655C104.734 43.8101 104.275 44.6131 103.806 45.3847C103.337 46.146 102.836 46.9072 102.315 47.658C101.929 48.2107 101.533 48.7738 101.126 49.3369C100.719 49.9 100.26 50.411 99.7495 50.8698C99.249 51.3286 98.6859 51.6936 98.0706 51.9751C97.4554 52.2567 96.7359 52.4027 95.9329 52.4027C95.4324 52.4027 95.0153 52.361 94.6607 52.2671C94.3062 52.1732 93.9725 52.0481 93.6597 51.8917L94.619 49.3995C94.9006 49.5142 95.1613 49.5976 95.3803 49.6706C95.6097 49.7331 95.8808 49.7644 96.2145 49.7644C96.715 49.7644 97.1843 49.608 97.6327 49.2847C98.0811 48.9615 98.4565 48.5339 98.7484 48.0021C98.3835 46.5839 98.0393 44.9989 97.7369 43.2366C97.4345 41.4743 97.226 39.493 97.1113 37.2823H100.365C100.375 37.835 100.406 38.4503 100.448 39.1176C100.49 39.785 100.542 40.4524 100.594 41.1302C100.646 41.808 100.719 42.465 100.782 43.1011C100.855 43.7372 100.928 44.3107 101.011 44.8216C101.689 43.7997 102.294 42.6631 102.805 41.4118C103.326 40.1604 103.806 38.7839 104.265 37.2823H107.633V37.2719Z" fill="white"/>
<path d="M114.422 37.0425C115.099 37.0425 115.694 37.1676 116.184 37.4075C116.684 37.6473 117.091 37.9706 117.414 38.3877C117.738 38.7944 117.977 39.2845 118.134 39.8372C118.29 40.3898 118.363 40.9842 118.363 41.6203C118.363 42.6005 118.186 43.5286 117.821 44.3941C117.456 45.27 116.966 46.0209 116.34 46.6674C115.715 47.3139 114.974 47.8249 114.13 48.2003C113.275 48.5757 112.357 48.7634 111.366 48.7634C111.241 48.7634 111.012 48.7634 110.699 48.7529C110.376 48.7425 110.011 48.7112 109.604 48.6591C109.197 48.6069 108.759 48.5131 108.29 48.4088C107.831 48.2941 107.393 48.1377 106.987 47.9396L110.668 32.4647L113.963 31.9537L112.638 37.4492C112.92 37.3241 113.202 37.2198 113.494 37.1468C113.786 37.0738 114.088 37.0425 114.422 37.0425ZM111.648 46.146C112.148 46.146 112.618 46.0208 113.056 45.781C113.494 45.5412 113.879 45.2179 114.192 44.8112C114.515 44.4045 114.766 43.9457 114.943 43.4348C115.131 42.9238 115.225 42.392 115.225 41.8393C115.225 41.1615 115.11 40.6297 114.88 40.2438C114.651 39.858 114.234 39.6703 113.629 39.6703C113.431 39.6703 113.17 39.7016 112.857 39.7746C112.534 39.8476 112.253 39.9936 111.992 40.223L110.584 46.0521C110.668 46.0626 110.741 46.0834 110.803 46.0938C110.866 46.1043 110.939 46.1147 111.001 46.1251C111.074 46.1356 111.158 46.1356 111.252 46.1356C111.345 46.1356 111.491 46.146 111.648 46.146Z" fill="white"/>
<path d="M129.719 43.6433C129.521 44.4567 129.469 45.2596 129.552 46.0834C129.636 46.8968 129.803 47.6267 130.042 48.2628L127.217 48.6695C127.133 48.5026 127.05 48.3358 126.987 48.1794C126.914 48.023 126.841 47.8457 126.779 47.6476C126.382 47.9708 125.944 48.2419 125.454 48.4609C124.975 48.6695 124.432 48.7842 123.838 48.7842C123.129 48.7842 122.524 48.6591 122.024 48.4088C121.523 48.1585 121.106 47.8248 120.793 47.4077C120.47 46.9906 120.24 46.5005 120.105 45.9374C119.959 45.3743 119.896 44.7799 119.896 44.1438C119.896 43.1636 120.074 42.246 120.418 41.3804C120.762 40.5149 121.252 39.7641 121.867 39.1176C122.482 38.4711 123.212 37.9601 124.047 37.5952C124.881 37.2302 125.788 37.0425 126.768 37.0425C126.893 37.0425 127.123 37.0529 127.436 37.0633C127.759 37.0738 128.124 37.105 128.53 37.1572C128.937 37.2093 129.375 37.2927 129.834 37.397C130.293 37.5117 130.72 37.6681 131.127 37.8663L129.719 43.6433ZM127.509 39.7224C127.321 39.6911 127.154 39.6703 127.008 39.6599C126.862 39.6494 126.674 39.639 126.466 39.639C125.986 39.639 125.538 39.7641 125.11 40.004C124.693 40.2438 124.328 40.5566 124.015 40.9529C123.702 41.3387 123.463 41.7976 123.285 42.3085C123.108 42.8195 123.025 43.3513 123.025 43.904C123.025 44.5818 123.139 45.124 123.369 45.5203C123.598 45.9165 124.015 46.1147 124.62 46.1147C124.943 46.1147 125.246 46.0521 125.506 45.927C125.767 45.8018 126.049 45.5829 126.351 45.2909C126.382 44.9363 126.424 44.5609 126.487 44.1751C126.549 43.7893 126.622 43.4243 126.685 43.101L127.509 39.7224Z" fill="white"/>
<path d="M136.383 48.6799C135.371 48.6799 134.589 48.5444 134.005 48.2837C133.421 48.023 133.014 47.6684 132.775 47.2096C132.524 46.7508 132.41 46.2294 132.41 45.6454C132.42 45.0615 132.493 44.4254 132.65 43.758L135.35 32.4543L138.645 31.9433L135.684 44.196C135.632 44.4462 135.601 44.6861 135.59 44.8946C135.58 45.1032 135.621 45.2909 135.705 45.4577C135.788 45.6246 135.934 45.7497 136.143 45.854C136.351 45.9583 136.633 46.0208 137.008 46.0417L136.383 48.6799Z" fill="white"/>
<path d="M142.869 48.6799C141.857 48.6799 141.075 48.5444 140.491 48.2837C139.907 48.023 139.5 47.6684 139.261 47.2096C139.01 46.7508 138.896 46.2294 138.896 45.6454C138.906 45.0615 138.979 44.4254 139.135 43.758L141.836 32.4543L145.131 31.9433L142.17 44.196C142.118 44.4462 142.087 44.6861 142.076 44.8946C142.066 45.1032 142.107 45.2909 142.191 45.4577C142.274 45.6246 142.42 45.7497 142.629 45.854C142.837 45.9583 143.119 46.0208 143.494 46.0417L142.869 48.6799Z" fill="white"/>
<path d="M159 31.0569C159.105 31.5053 159.23 32.1518 159.386 32.9756C159.543 33.7994 159.71 34.7171 159.887 35.7181C160.064 36.7192 160.241 37.7411 160.429 38.7839C160.617 39.8267 160.784 40.7861 160.93 41.662C161.503 40.7965 162.118 39.858 162.786 38.8465C163.453 37.8454 164.121 36.8548 164.767 35.885C165.424 34.9152 166.039 34.008 166.623 33.1633C167.207 32.3187 167.708 31.62 168.135 31.0673H171.597C171.483 32.2248 171.326 33.5179 171.128 34.9569C170.94 36.396 170.721 37.8871 170.471 39.4304C170.231 40.9738 169.971 42.5171 169.71 44.0812C169.439 45.635 169.178 47.1053 168.907 48.4818H165.09C165.445 46.7716 165.81 44.9259 166.206 42.9446C166.602 40.9633 166.967 38.9508 167.301 36.9278C166.863 37.616 166.383 38.3772 165.841 39.2219C165.309 40.0665 164.767 40.9216 164.235 41.7871C163.703 42.6526 163.182 43.4764 162.681 44.2585C162.181 45.051 161.743 45.7184 161.378 46.2711H158.51C158.427 45.7706 158.323 45.1345 158.208 44.3628C158.093 43.5911 157.958 42.7778 157.822 41.9123C157.676 41.0468 157.53 40.1812 157.384 39.2949C157.238 38.4189 157.092 37.6264 156.957 36.9173C156.3 38.9403 155.716 40.9529 155.184 42.9342C154.652 44.9155 154.162 46.7612 153.714 48.4714H149.918C150.304 47.0949 150.721 45.635 151.19 44.0708C151.649 42.5171 152.129 40.9633 152.619 39.4096C153.109 37.8558 153.599 36.3647 154.089 34.9256C154.579 33.4866 155.038 32.1935 155.465 31.0569H159Z" fill="white"/>
<path d="M181.962 43.6433C181.764 44.4567 181.712 45.2596 181.796 46.0834C181.879 46.8968 182.046 47.6267 182.286 48.2628L179.46 48.6695C179.376 48.5026 179.293 48.3358 179.23 48.1794C179.157 48.023 179.084 47.8457 179.022 47.6476C178.625 47.9708 178.188 48.2419 177.697 48.4609C177.218 48.6695 176.675 48.7842 176.081 48.7842C175.372 48.7842 174.767 48.6591 174.267 48.4088C173.766 48.1585 173.349 47.8248 173.036 47.4077C172.713 46.9906 172.484 46.5005 172.348 45.9374C172.202 45.3743 172.139 44.7799 172.139 44.1438C172.139 43.1636 172.317 42.246 172.661 41.3804C173.005 40.5149 173.495 39.7641 174.11 39.1176C174.725 38.4711 175.455 37.9601 176.29 37.5952C177.124 37.2302 178.031 37.0425 179.011 37.0425C179.136 37.0425 179.366 37.0529 179.679 37.0633C180.002 37.0738 180.367 37.105 180.774 37.1572C181.18 37.2093 181.618 37.2927 182.067 37.397C182.525 37.5117 182.953 37.6681 183.36 37.8663L181.962 43.6433ZM179.752 39.7224C179.564 39.6911 179.397 39.6703 179.251 39.6599C179.105 39.6494 178.917 39.639 178.709 39.639C178.229 39.639 177.781 39.7641 177.353 40.004C176.936 40.2438 176.571 40.5566 176.258 40.9529C175.946 41.3387 175.706 41.7976 175.528 42.3085C175.351 42.8195 175.268 43.3513 175.268 43.904C175.268 44.5818 175.382 45.124 175.612 45.5203C175.841 45.9165 176.258 46.1147 176.863 46.1147C177.186 46.1147 177.489 46.0521 177.75 45.927C178.01 45.8018 178.292 45.5829 178.594 45.2909C178.626 44.9363 178.667 44.5609 178.73 44.1751C178.792 43.7893 178.865 43.4243 178.928 43.101L179.752 39.7224Z" fill="white"/>
<path d="M195.435 41.6412C195.435 42.6735 195.268 43.6224 194.924 44.4775C194.58 45.3326 194.111 46.073 193.506 46.6986C192.901 47.3243 192.182 47.804 191.337 48.1585C190.493 48.5027 189.575 48.6799 188.584 48.6799C188.105 48.6799 187.614 48.6382 187.135 48.5548L186.175 52.4027H183.026L186.561 37.6786C187.124 37.5117 187.781 37.3553 188.511 37.2198C189.241 37.0842 190.034 37.0216 190.889 37.0216C191.681 37.0216 192.37 37.1468 192.943 37.3866C193.517 37.6265 193.986 37.9601 194.361 38.3773C194.726 38.7944 195.008 39.2845 195.185 39.8476C195.341 40.4002 195.435 41.0051 195.435 41.6412ZM187.708 46C187.948 46.0521 188.251 46.0834 188.605 46.0834C189.158 46.0834 189.658 45.9791 190.117 45.7706C190.576 45.562 190.962 45.2805 191.275 44.9051C191.598 44.5401 191.838 44.0917 192.015 43.5703C192.192 43.0489 192.286 42.4858 192.286 41.8601C192.286 41.2553 192.151 40.7339 191.879 40.3064C191.608 39.8789 191.139 39.6703 190.472 39.6703C190.013 39.6703 189.596 39.712 189.2 39.7954L187.708 46Z" fill="white"/>
<path d="M34.065 49.7436H7.35936C4.67941 49.7436 2.5 47.5642 2.5 44.8842V30.3166C2.5 27.6366 4.67941 25.4572 7.35936 25.4572H34.0754C36.7553 25.4572 38.9348 27.6366 38.9348 30.3166V44.8842C38.9243 47.5642 36.7553 49.7436 34.065 49.7436Z" fill="white" stroke="#0C2A6D" stroke-width="0.5822" stroke-miterlimit="10"/>
<mask id="mask0_728_14709" style="mask-type:luminance" maskUnits="userSpaceOnUse" x="3" y="26" width="35" height="23">
<path d="M33.3454 48.5235H8.08922C5.66997 48.5235 3.71997 46.5631 3.71997 44.1543V31.0465C3.71997 28.6273 5.6804 26.6773 8.08922 26.6773H33.3454C35.7646 26.6773 37.7146 28.6377 37.7146 31.0465V44.1647C37.7146 46.5735 35.7542 48.5235 33.3454 48.5235Z" fill="white"/>
</mask>
<g mask="url(#mask0_728_14709)">
<path d="M50.8224 62.3508L35.8481 59.2225L20.8842 62.3508L5.90988 59.2225L-9.06445 62.3508V18.3246L5.90988 15.1963L20.8842 18.3246L35.8481 15.1963L50.8224 18.3246V62.3508Z" fill="white"/>
<path d="M5.9101 56.9805L20.8844 60.1192L35.8483 56.9805L48.6328 59.6604V20.1077L35.8483 17.4278L20.8844 20.5666L5.9101 17.4278L-6.87439 20.1077V59.6604L5.9101 56.9805Z" fill="#D8F1F0"/>
<path d="M-6.87439 20.1077V39.6182L5.9101 36.7401L13.3973 30.4834V18.992L5.9101 17.4278L-6.87439 20.1077Z" fill="#FFE07D"/>
<path d="M48.6327 31.7869L41.9171 29.6179L35.8482 36.4273L31.6458 37.0842V48.6382L35.8482 50.6717L48.6327 45.1241V31.7869Z" fill="#FFE07D"/>
<path d="M-7.97986 39.8685L5.90998 36.7401L13.3971 30.4834L20.8843 38.7735L35.8482 36.4273L41.9172 29.6179L49.9258 32.204" stroke="white" stroke-width="1.3557" stroke-miterlimit="10"/>
<path d="M23.1573 38.419V60.1192" stroke="white" stroke-width="1.3557" stroke-miterlimit="10"/>
<path d="M31.6458 37.0842V48.6382L35.8482 50.6717L49.9257 44.561" stroke="white" stroke-width="1.3557" stroke-miterlimit="10"/>
<path d="M1.09229 46.1252L5.90993 49.2639H15.8059V60.1193" stroke="white" stroke-width="1.3557" stroke-miterlimit="10"/>
<path d="M13.3971 30.4834V18.1161" stroke="white" stroke-width="1.3557" stroke-miterlimit="10"/>
<path d="M5.91003 15.1963V59.2225L20.8844 62.3508V18.3246L5.91003 15.1963Z" fill="#EAEEF1"/>
<path d="M35.8483 15.1963V59.2225L50.8226 62.3508V18.3246L35.8483 15.1963Z" fill="#EAEEF1"/>
</g>
<path opacity="0.15" d="M35.2851 37.6056C35.2851 37.4388 35.2746 37.2615 35.2642 37.0947C35.2642 37.0321 35.2538 36.9695 35.2538 36.907C35.2434 36.8027 35.2329 36.6984 35.2225 36.5941C35.2121 36.5211 35.2017 36.4377 35.1912 36.3647C35.1808 36.2813 35.1599 36.2083 35.1495 36.1249C35.1287 36.031 35.1182 35.9372 35.0974 35.8538C35.0869 35.812 35.0765 35.7703 35.0661 35.7182C34.9722 35.3219 34.8575 34.9361 34.7115 34.5607V34.5503C34.0129 32.7358 32.699 31.1195 30.9575 29.8369C30.9367 29.8265 30.9263 29.8161 30.9054 29.8056C30.7386 29.6909 30.5717 29.5658 30.4049 29.4511C30.3631 29.4198 30.3214 29.3989 30.2797 29.3677C30.1337 29.2738 29.9773 29.18 29.8313 29.0861C29.7792 29.0548 29.7271 29.0235 29.6645 28.9923C29.5185 28.9088 29.3725 28.8254 29.2161 28.742C29.1535 28.7107 29.1014 28.6794 29.0388 28.6481C28.8928 28.5647 28.7364 28.4917 28.58 28.4187C28.5174 28.3874 28.4549 28.3562 28.4027 28.3353C28.2359 28.2623 28.069 28.1893 27.9022 28.1163C27.85 28.0955 27.7979 28.0746 27.7458 28.0538C27.5372 27.9703 27.3182 27.8869 27.0992 27.8035C27.0888 27.8035 27.0784 27.7931 27.068 27.7931C26.8281 27.7096 26.5987 27.6262 26.3484 27.5532C26.3172 27.5428 26.2859 27.5324 26.2442 27.5219C26.046 27.4594 25.8375 27.3968 25.6394 27.3447C25.5664 27.3238 25.4829 27.303 25.4099 27.2821C25.2431 27.2404 25.0763 27.1987 24.9094 27.157C24.8156 27.1361 24.7217 27.1152 24.6383 27.0944C24.4819 27.0631 24.3254 27.0318 24.169 27.0005C24.0752 26.9797 23.9709 26.9693 23.8771 26.9484C23.7311 26.9275 23.5955 26.9067 23.4495 26.8858C23.4287 26.8858 23.3974 26.8754 23.3765 26.8754C23.2931 26.865 23.1992 26.8546 23.1054 26.8441C23.0011 26.8337 22.9073 26.8233 22.803 26.8128C22.7404 26.8024 22.6674 26.8024 22.5944 26.792C22.5006 26.7816 22.4067 26.7711 22.3233 26.7711C22.2607 26.7711 22.1982 26.7607 22.1356 26.7607C22.0209 26.7503 21.8958 26.7503 21.7811 26.7398C21.6976 26.7398 21.6142 26.7294 21.5308 26.7294C21.4995 26.7294 21.4682 26.7294 21.4369 26.7294C21.1971 26.719 20.9677 26.719 20.7279 26.719C20.488 26.719 20.2377 26.719 19.9979 26.7294C19.8832 26.7294 19.7685 26.7398 19.6538 26.7503C19.5391 26.7607 19.4244 26.7607 19.3097 26.7711C19.2992 26.7711 19.2888 26.7711 19.2784 26.7711C19.122 26.7816 18.976 26.8024 18.8196 26.8128C18.7361 26.8233 18.6631 26.8233 18.5797 26.8337C18.4025 26.8546 18.2252 26.8754 18.0479 26.8963C17.9958 26.9067 17.9541 26.9067 17.9019 26.9171C17.7038 26.9484 17.5161 26.9797 17.318 27.011C17.2867 27.011 17.2658 27.0214 17.2345 27.0214C17.026 27.0631 16.8174 27.1048 16.6193 27.1465C16.6089 27.1465 16.5984 27.1465 16.588 27.157C16.3795 27.2091 16.1605 27.2508 15.9519 27.3134C14.6276 27.6575 13.3971 28.1372 12.2813 28.7316C10.7902 29.5241 9.50753 30.5251 8.50647 31.6722L8.49604 31.6826C8.3709 31.8182 8.2562 31.9642 8.15192 32.0997C8.14149 32.1102 8.14149 32.1102 8.13106 32.1206C8.02679 32.2562 7.91208 32.4021 7.81823 32.5481C7.8078 32.5586 7.8078 32.569 7.79737 32.5794C7.70352 32.715 7.59924 32.861 7.51582 33.007C7.50539 33.0174 7.5054 33.0278 7.49497 33.0382C7.40112 33.1842 7.31769 33.3302 7.23427 33.4762C7.22384 33.4866 7.22384 33.4971 7.22384 33.5075C6.99443 33.9246 6.7963 34.3626 6.63989 34.811C6.63989 34.8214 6.62946 34.8423 6.62946 34.8527C6.59818 34.957 6.55646 35.0612 6.52518 35.1655C6.50433 35.2281 6.48347 35.2907 6.46261 35.3532C6.43133 35.4471 6.41047 35.5409 6.38962 35.6243C6.37919 35.6869 6.35834 35.739 6.34791 35.8016C6.34791 35.812 6.34791 35.8225 6.33748 35.8433C6.33748 35.8538 6.33748 35.8538 6.33748 35.8642C6.31663 35.9476 6.3062 36.031 6.28534 36.1144C6.27491 36.1666 6.26449 36.2083 6.25406 36.2604C6.24363 36.2917 6.24363 36.323 6.24363 36.3647C6.24363 36.3751 6.24363 36.3856 6.24363 36.396C6.2332 36.469 6.22277 36.5524 6.21235 36.6254C6.21235 36.6567 6.20192 36.688 6.20192 36.7193C6.19149 36.7818 6.19149 36.8548 6.18106 36.9174C6.18106 36.9278 6.18106 36.9382 6.18106 36.9487C6.17064 37.0112 6.17064 37.0738 6.16021 37.1364C6.16021 37.1572 6.16021 37.1677 6.16021 37.1885C6.14978 37.3449 6.14978 37.5013 6.14978 37.6578C6.14978 37.8559 6.16021 38.0644 6.17064 38.2626C6.17064 38.3251 6.18106 38.3877 6.19149 38.4607C6.20192 38.5963 6.22277 38.7318 6.2332 38.8674C6.24363 38.9404 6.25406 39.0134 6.27491 39.0864C6.29577 39.2115 6.31662 39.3262 6.34791 39.4513C6.36876 39.5243 6.37919 39.6078 6.40005 39.6808C6.43133 39.7955 6.46261 39.9206 6.4939 40.0353C6.51475 40.1083 6.53561 40.1813 6.56689 40.2543C6.6086 40.369 6.65031 40.4941 6.69203 40.6088C6.71288 40.6818 6.74417 40.7444 6.76502 40.8174C6.81716 40.9425 6.8693 41.0677 6.93187 41.1928C6.95272 41.2449 6.984 41.3075 7.00486 41.3596C7.07785 41.5161 7.16128 41.6725 7.2447 41.8289C7.25513 41.8497 7.26556 41.8706 7.27598 41.8915C7.38026 42.0687 7.48454 42.2564 7.59924 42.4337C7.59924 42.4441 7.60967 42.4441 7.60967 42.4546C7.71395 42.6214 7.82866 42.7882 7.95379 42.9447C7.98507 42.9864 8.01636 43.0177 8.03721 43.0594C8.13106 43.1845 8.23534 43.3201 8.33962 43.4452C8.38133 43.4869 8.41261 43.539 8.45432 43.5808C8.5586 43.6955 8.65245 43.8102 8.76716 43.9249C8.80887 43.9666 8.85058 44.0187 8.89229 44.0604C8.99657 44.1751 9.11128 44.2794 9.22598 44.3941C9.2677 44.4358 9.30941 44.4776 9.35112 44.5193C9.47625 44.634 9.60138 44.7487 9.72652 44.853C9.76823 44.8842 9.79951 44.9155 9.84122 44.9468C9.98721 45.0719 10.1436 45.1971 10.3 45.3222C10.3209 45.3326 10.3313 45.3535 10.3522 45.3639C10.7172 45.6455 11.103 45.9062 11.5097 46.1564C11.6348 46.2398 11.7704 46.3128 11.9059 46.3858C11.9789 46.4276 12.0519 46.4693 12.1145 46.5005C12.2083 46.5527 12.3126 46.6048 12.4169 46.657C12.5212 46.7091 12.6254 46.7612 12.7297 46.8134C12.834 46.8655 12.9279 46.9072 13.0321 46.9594C13.1156 47.0011 13.199 47.0324 13.2824 47.0741C13.3971 47.1262 13.5014 47.1679 13.6161 47.2201C13.7308 47.2722 13.8455 47.3139 13.9706 47.3661C14.0541 47.3973 14.1375 47.4286 14.2209 47.4599C14.3148 47.4912 14.4086 47.5329 14.5025 47.5642C14.638 47.6163 14.784 47.658 14.93 47.7102C15.0343 47.7415 15.1385 47.7727 15.2428 47.804C15.3158 47.8249 15.3888 47.8457 15.4618 47.8666C15.6391 47.9187 15.8164 47.9709 16.0041 48.0126C16.0771 48.0334 16.1396 48.0439 16.2126 48.0647C16.3273 48.096 16.442 48.1169 16.5567 48.1481C16.6193 48.1586 16.6923 48.1794 16.7549 48.1899C16.953 48.2316 17.1511 48.2733 17.3492 48.3046C17.4222 48.315 17.4848 48.3254 17.5578 48.3463C17.6725 48.3671 17.7976 48.388 17.9123 48.3984H17.9228C17.9332 48.3984 17.9436 48.3984 17.9645 48.3984C18.173 48.4297 18.392 48.461 18.611 48.4818C18.6214 48.4818 18.6214 48.4818 18.6319 48.4818C18.8508 48.5027 19.0698 48.5235 19.2992 48.5444C19.341 48.5444 19.3931 48.5444 19.4348 48.5548C19.6225 48.5652 19.8102 48.5757 19.9979 48.5861H20.0083C20.2482 48.5965 20.4776 48.5965 20.7174 48.5965C20.8947 48.5965 21.0615 48.5965 21.2388 48.5861C21.2805 48.5861 21.3222 48.5861 21.364 48.5861C21.4474 48.5861 21.5308 48.5757 21.6142 48.5757C21.7289 48.5653 21.8541 48.5652 21.9688 48.5548C22.4172 48.5235 22.8551 48.4818 23.2931 48.4193C23.3348 48.4193 23.3661 48.4088 23.4078 48.4088C23.5746 48.388 23.7415 48.3567 23.8979 48.3358C23.9396 48.3254 23.9709 48.3254 24.0126 48.315C24.7426 48.1898 25.4412 48.023 26.119 47.8144C26.1503 47.804 26.1816 47.7936 26.2025 47.7936C26.3484 47.7519 26.4944 47.6997 26.6508 47.6476C26.6926 47.6372 26.7343 47.6163 26.7864 47.6059C26.9324 47.5538 27.068 47.5016 27.214 47.4495C27.2557 47.439 27.2869 47.4182 27.3287 47.4078C27.7979 47.2305 28.2463 47.0324 28.6843 46.8238C28.7051 46.8134 28.7364 46.803 28.7573 46.7925C28.8824 46.73 28.9971 46.6674 29.1222 46.6048C29.1744 46.5735 29.2265 46.5527 29.2787 46.5214C29.3934 46.4588 29.4976 46.3963 29.6123 46.3337C29.6749 46.3024 29.7271 46.2711 29.7896 46.2294C29.8939 46.1669 29.9982 46.1043 30.1025 46.0417C30.1546 46.0104 30.2067 45.9687 30.2693 45.9374C30.603 45.7185 30.9263 45.489 31.2391 45.2492C31.3017 45.1971 31.3642 45.1449 31.4268 45.1032C31.5102 45.0407 31.5832 44.9781 31.6562 44.9051C31.7188 44.853 31.7918 44.7904 31.8543 44.7382C31.9273 44.6757 32.0003 44.6131 32.0733 44.5401C32.1359 44.4776 32.2089 44.415 32.2714 44.3524C32.334 44.2898 32.3966 44.2273 32.4591 44.1647C32.5426 44.0813 32.6156 43.9979 32.699 43.9144C32.772 43.831 32.8554 43.7476 32.9284 43.6642C33.0014 43.5703 33.0848 43.4869 33.1578 43.3931C33.2099 43.3305 33.2517 43.2679 33.3038 43.2054C33.3664 43.1219 33.4289 43.0489 33.4915 42.9655C33.5332 42.9029 33.5853 42.8404 33.6271 42.7778C33.6896 42.6944 33.7418 42.611 33.7939 42.5276C33.8356 42.465 33.8773 42.4024 33.919 42.3398C33.9816 42.246 34.0337 42.1521 34.0859 42.0583C34.1172 42.0062 34.1484 41.954 34.1797 41.9019C34.2632 41.7559 34.3361 41.6099 34.4091 41.4639C34.43 41.4118 34.4508 41.3596 34.4821 41.3179C34.5343 41.2136 34.576 41.1094 34.6281 41.0051C34.6594 40.9425 34.6803 40.88 34.7011 40.8174C34.7428 40.7235 34.7741 40.6193 34.8158 40.5254C34.8367 40.4628 34.8575 40.3898 34.8888 40.3273C34.9201 40.223 34.9514 40.1292 34.9827 40.0249C35.0035 39.9623 35.0244 39.8997 35.0348 39.8372C35.0661 39.7016 35.0974 39.5765 35.1287 39.4409C35.1391 39.4096 35.1495 39.3679 35.1495 39.3366C35.1808 39.1802 35.2121 39.0238 35.2329 38.8674C35.2434 38.8153 35.2434 38.7631 35.2538 38.711C35.2642 38.5858 35.2851 38.4711 35.2955 38.346C35.2955 38.2939 35.3059 38.2417 35.3059 38.2C35.2746 37.9393 35.2851 37.7725 35.2851 37.6056Z" fill="#0C2A6D"/>
<path d="M8.81958 12.412C7.53696 13.8824 6.51504 15.5925 5.84766 17.4695C7.35969 17.0107 8.76744 16.8126 10.0501 16.8126C12.3442 16.8126 14.2629 17.4382 15.8166 18.2829C19.0701 20.0556 20.7073 22.7877 20.7073 22.7877C20.7073 22.7877 23.8878 22.7981 27.0787 20.942C26.6616 19.9826 21.9586 9.88851 8.81958 12.412Z" fill="#1F3D86"/>
<path d="M14.8779 8.11577C12.5316 9.05427 10.4565 10.535 8.81934 12.412C21.9584 9.8885 26.6613 19.9826 27.0784 20.942C28.6009 20.0556 30.1338 18.7313 31.3225 16.7813C30.7803 15.6134 26.4215 7.19812 14.8779 8.11577Z" fill="white"/>
<path d="M32.9494 12.8187C32.5635 14.3724 32.0004 15.6759 31.3226 16.7813C30.1338 18.7417 28.6114 20.0556 27.0785 20.942C23.8876 22.8085 20.7071 22.7877 20.7071 22.7877C20.7071 22.7877 19.0491 25.5093 18.9969 29.2008C19.0804 29.2112 30.9994 30.9735 35.671 17.7719C35.0766 15.9575 34.1381 14.2786 32.9494 12.8187Z" fill="white"/>
<path d="M10.0499 16.8126C8.76724 16.8126 7.36992 17.0107 5.84746 17.4695C5.25307 19.1275 4.92981 20.9211 4.92981 22.7877C4.92981 27.72 7.19264 32.131 10.7485 35.0195C4.29371 25.5406 9.55976 17.5217 10.0499 16.8126Z" fill="#F2CD16"/>
<path d="M20.3735 34.9674C20.9783 36.1144 21.8021 37.2824 22.9388 38.419C29.8211 37.4492 35.2749 32.0372 36.3177 25.1861C30.9056 36.3647 20.384 34.9674 20.3735 34.9674Z" fill="white"/>
<path d="M30.2278 14.9251C30.3321 15.0711 30.4155 15.2067 30.5093 15.3422C30.5093 15.3422 30.5093 15.3527 30.5198 15.3527C30.7805 15.7489 30.9682 16.093 31.1141 16.3537C31.1246 16.3746 31.135 16.385 31.135 16.3955C31.1663 16.458 31.1976 16.5206 31.2289 16.5727C31.2393 16.5832 31.2393 16.604 31.2497 16.6144C31.281 16.677 31.3018 16.7291 31.3227 16.7709C31.9901 15.6655 32.5532 14.362 32.9494 12.8083C32.7826 12.6102 32.6158 12.412 32.4385 12.2139C32.3863 12.1513 32.3238 12.0888 32.2612 12.0262C32.1465 11.9115 32.0214 11.7864 31.8962 11.6612C31.8232 11.5882 31.7502 11.5257 31.6877 11.4527C31.573 11.338 31.4478 11.2233 31.3227 11.1086C31.2497 11.046 31.1767 10.973 31.1037 10.9104C30.9473 10.7749 30.7805 10.6289 30.6136 10.5037C30.4989 10.4203 30.3946 10.3265 30.2799 10.243C30.1652 10.1596 30.0505 10.0658 29.9358 9.98235C29.8211 9.89893 29.7064 9.82594 29.5917 9.74251C29.4978 9.67995 29.404 9.61738 29.3206 9.55481C29.1954 9.47139 29.0599 9.38797 28.9347 9.30455C28.8617 9.26283 28.7887 9.2107 28.7053 9.16898C28.1839 8.86658 27.6521 8.58503 27.089 8.34519C27.0682 8.33476 27.0369 8.32433 27.016 8.3139C26.8283 8.23048 26.6406 8.15749 26.4529 8.08449C26.4112 8.07406 26.3799 8.05321 26.3382 8.04278C24.5863 7.3754 22.6885 7 20.7072 7C18.6425 7 16.6821 7.39626 14.8781 8.11578C22.7406 7.49011 27.2663 11.192 29.5187 13.9866C29.7898 14.3203 30.0192 14.6332 30.2278 14.9251Z" fill="#1F3D86"/>
<path d="M30.2381 18.2933C30.1651 22.9546 27.4956 26.9901 23.5956 28.9818C27.4956 28.2206 32.8868 25.6762 35.6814 17.7824C35.0662 15.9575 34.1381 14.2786 32.9493 12.8187C32.5635 14.3725 32.0004 15.6759 31.3226 16.7813C30.9889 17.334 30.6239 17.8345 30.2381 18.2933Z" fill="white"/>
<path d="M35.6814 17.7823C35.598 18.0118 35.5146 18.2307 35.4312 18.4497C35.3999 18.5227 35.379 18.5853 35.3478 18.6583C35.2852 18.8043 35.233 18.9503 35.1705 19.0963C35.1392 19.1797 35.1079 19.2527 35.0662 19.3257C35.0036 19.4612 34.9515 19.5968 34.8889 19.7219C34.8576 19.7949 34.8159 19.8679 34.7846 19.9513C34.7221 20.0869 34.6595 20.2225 34.5865 20.3476C34.5552 20.4102 34.524 20.4727 34.4927 20.5353C34.3988 20.7126 34.305 20.8898 34.2111 21.0567C34.2007 21.0671 34.2007 21.088 34.1903 21.0984C34.086 21.2757 33.9817 21.4634 33.8774 21.6302C33.8461 21.6823 33.8149 21.7345 33.7732 21.7971C33.7002 21.9118 33.6272 22.0369 33.5542 22.1516C33.5125 22.2142 33.4707 22.2767 33.429 22.3393C33.356 22.4436 33.2935 22.5479 33.2205 22.6521C33.1788 22.7147 33.1371 22.7773 33.0953 22.8294C33.0223 22.9337 32.9494 23.038 32.8659 23.1422C32.8242 23.1944 32.7929 23.2465 32.7512 23.2987C32.6469 23.4342 32.5531 23.5594 32.4488 23.6845C32.4384 23.7053 32.4175 23.7158 32.4071 23.7366C32.2924 23.8826 32.1777 24.0182 32.0526 24.1537C32.0109 24.1954 31.9796 24.2372 31.9379 24.2789C31.8544 24.3727 31.771 24.4666 31.6876 24.55C31.6459 24.6021 31.5937 24.6438 31.552 24.696C31.479 24.7794 31.3956 24.8524 31.3122 24.9358C31.2705 24.9775 31.2183 25.0297 31.1766 25.0714C31.0932 25.1548 31.0098 25.2278 30.9264 25.3008C30.8846 25.3425 30.8429 25.3738 30.8012 25.4155C30.6969 25.5094 30.5822 25.6032 30.478 25.6971C30.4571 25.7075 30.4467 25.7283 30.4258 25.7388C30.3007 25.843 30.1756 25.9473 30.0504 26.0516C30.0191 26.0829 29.9774 26.1037 29.9461 26.135C29.8523 26.208 29.7584 26.281 29.675 26.3436C29.6333 26.3749 29.5812 26.4061 29.5395 26.4374C29.456 26.5 29.3726 26.5626 29.2788 26.6147C29.2371 26.646 29.1849 26.6773 29.1432 26.7086C29.0494 26.7711 28.9659 26.8233 28.8721 26.8858C28.8304 26.9067 28.7991 26.938 28.7574 26.9588C28.6427 27.0318 28.5175 27.1048 28.4028 27.1778C28.3924 27.1882 28.382 27.1882 28.3715 27.1987C28.236 27.2717 28.1109 27.3551 27.9753 27.4176C27.9544 27.4281 27.9232 27.4489 27.9023 27.4594C27.798 27.5115 27.6937 27.5741 27.5895 27.6262C27.5478 27.6471 27.5165 27.6679 27.4748 27.6783C27.3809 27.72 27.2871 27.7722 27.1932 27.8139C27.1515 27.8348 27.1202 27.8452 27.0785 27.866C26.9742 27.9077 26.8804 27.9599 26.7865 28.0016C26.7552 28.012 26.724 28.0225 26.7031 28.0433C26.4424 28.158 26.1817 28.2623 25.921 28.3561C25.9106 28.3561 25.9106 28.3561 25.9002 28.3666C25.775 28.4083 25.6603 28.45 25.5352 28.4917C25.5143 28.5021 25.483 28.5021 25.4622 28.5126C25.3579 28.5438 25.2536 28.5751 25.1494 28.6168C25.1285 28.6273 25.0972 28.6273 25.0764 28.6377C24.9617 28.669 24.8574 28.7003 24.7427 28.7315C24.7322 28.7315 24.7114 28.742 24.701 28.742C24.3151 28.8463 23.9397 28.9297 23.5852 29.0027C20.9678 29.5136 19.0282 29.2321 18.9969 29.2217C18.9969 29.5762 19.0074 29.9307 19.0387 30.2957C19.0491 30.473 19.0699 30.6503 19.0908 30.8275C19.0908 30.8484 19.1012 30.8692 19.1012 30.8901C19.1638 31.3594 19.2472 31.8495 19.3723 32.3396C19.3932 32.4334 19.4141 32.5273 19.4453 32.6211C19.4766 32.7254 19.5079 32.8297 19.5392 32.9444C19.5809 33.0695 19.6226 33.1946 19.6643 33.3198C19.6956 33.4136 19.7269 33.5075 19.7686 33.6013C19.8207 33.7473 19.8833 33.9037 19.9459 34.0497C19.9772 34.1227 20.0084 34.2061 20.0397 34.2791C20.144 34.5086 20.2483 34.738 20.3734 34.9674C20.3838 34.9674 30.9055 36.3647 36.3175 25.1757C36.4322 24.3936 36.4948 23.6011 36.4948 22.7877C36.4948 21.0358 36.2133 19.3569 35.6814 17.7823Z" fill="#F2CD16"/>
<path d="M20.3735 34.9674C20.2483 34.738 20.1441 34.5086 20.0398 34.2792C20.0085 34.2062 19.9772 34.1227 19.9459 34.0498C19.8834 33.9038 19.8208 33.7473 19.7687 33.6014C19.7374 33.5075 19.6957 33.4137 19.6644 33.3198C19.6227 33.1947 19.581 33.0695 19.5393 32.9444C19.508 32.8401 19.4767 32.7358 19.4454 32.6211C19.4141 32.5273 19.3933 32.4334 19.3724 32.3396C19.2473 31.8495 19.1534 31.3698 19.1013 30.8901C19.1013 30.8693 19.0909 30.8484 19.0909 30.8276C19.07 30.6503 19.0491 30.473 19.0387 30.2957C19.0074 29.9308 18.997 29.5658 18.997 29.2112C19.0491 25.5094 20.7072 22.7981 20.7072 22.7981C20.7072 22.7981 19.07 20.0661 15.8165 18.2933C15.3473 18.9607 11.9895 23.9556 13.4598 30.4104C13.4598 30.4209 13.4703 30.4417 13.4703 30.4522C13.5016 30.6086 13.5433 30.765 13.585 30.9214C13.5954 30.9423 13.5954 30.9631 13.6058 30.984C13.7414 31.4949 13.9187 32.0268 14.1168 32.5481C14.1272 32.5794 14.1377 32.6107 14.1481 32.6316C14.2106 32.7776 14.2628 32.9236 14.3254 33.0695C14.3358 33.1008 14.3566 33.1321 14.3671 33.1634C14.4401 33.3407 14.5235 33.5075 14.6069 33.6848C14.6903 33.8621 14.7842 34.0498 14.878 34.2375C14.8885 34.2583 14.8989 34.2792 14.9093 34.3C14.9927 34.4564 15.0762 34.6129 15.1596 34.7588C15.1804 34.8006 15.2117 34.8423 15.2326 34.8944C15.316 35.03 15.389 35.176 15.4828 35.3115C15.5037 35.3532 15.535 35.3949 15.5558 35.4366C15.6601 35.6139 15.7748 35.7808 15.8895 35.958C15.8895 35.958 15.8895 35.9685 15.9 35.9685C16.0147 36.1457 16.1398 36.3334 16.2754 36.5107C16.3066 36.5524 16.3379 36.5941 16.3692 36.6358C16.4631 36.7714 16.5673 36.907 16.6716 37.0425C16.7133 37.0947 16.755 37.1572 16.7967 37.2094C16.901 37.3345 17.0053 37.4701 17.1096 37.5952C17.1513 37.6473 17.193 37.6995 17.2347 37.7516C17.3807 37.9289 17.5371 38.1062 17.6935 38.2834C18.6737 38.4711 19.6748 38.5754 20.7072 38.5754C21.458 38.5754 22.2088 38.5233 22.9283 38.419C21.8125 37.2719 20.9783 36.1145 20.3735 34.9674Z" fill="#F2CD16"/>
<path d="M7.57852 24.477C6.44189 22.6209 5.78494 20.4415 5.78494 18.1056C5.78494 17.9388 5.79537 17.7719 5.79537 17.5947C5.23227 19.2214 4.91943 20.9628 4.91943 22.7773C4.91943 27.7096 7.18227 32.1206 10.7382 35.0091C8.08949 31.13 7.42211 27.4698 7.57852 24.477Z" fill="#F2CD16"/>
<path d="M20.3735 34.9674C20.9783 36.1144 21.8021 37.2824 22.9388 38.419C29.8211 37.4492 35.2749 32.0372 36.3177 25.1861C30.9056 36.3647 20.384 34.9674 20.3735 34.9674Z" fill="#1F3D86"/>
<path d="M7.57867 26.1559C7.57867 26.2497 7.58909 26.3436 7.59952 26.4374C7.60995 26.5626 7.62038 26.6981 7.6308 26.8232C7.64123 26.9484 7.66209 27.0839 7.67251 27.2091C7.69337 27.3968 7.72465 27.5845 7.75594 27.7722C7.77679 27.9077 7.79765 28.0329 7.81851 28.1684C7.83936 28.2831 7.86022 28.3874 7.8915 28.5021C7.92278 28.6377 7.94364 28.7628 7.97492 28.8984C8.00621 29.0131 8.02706 29.1174 8.05834 29.2321C8.10006 29.3781 8.13134 29.5136 8.17305 29.6596C8.20433 29.7639 8.23562 29.8682 8.2669 29.9724C8.31904 30.1497 8.38161 30.327 8.44417 30.5043C8.46503 30.5773 8.49631 30.6503 8.51717 30.7337C8.61102 30.9839 8.70487 31.2342 8.80915 31.4949C8.84043 31.5679 8.88214 31.6513 8.91342 31.7243C8.99685 31.912 9.08027 32.0893 9.16369 32.277C9.2054 32.3708 9.25754 32.4647 9.30968 32.569C9.3931 32.7462 9.48695 32.9131 9.5808 33.0904C9.63294 33.1842 9.68508 33.2885 9.73722 33.3823C9.8415 33.57 9.94578 33.7473 10.0605 33.935C10.1126 34.0184 10.1648 34.1123 10.2169 34.1957C10.3837 34.4668 10.561 34.738 10.7487 35.0091C12.73 36.6254 15.1075 37.762 17.7041 38.273C17.5477 38.0957 17.3912 37.9184 17.2452 37.7412C17.2035 37.689 17.1618 37.6369 17.1201 37.5847C17.0158 37.4596 16.9116 37.3241 16.8073 37.1989C16.7656 37.1468 16.7239 37.0842 16.6821 37.0321C16.5779 36.8965 16.4736 36.761 16.3797 36.6254C16.3485 36.5837 16.3172 36.542 16.2859 36.5003C16.1608 36.323 16.0356 36.1353 15.9105 35.958C15.9105 35.958 15.9105 35.9476 15.9001 35.9476C15.7854 35.7703 15.6706 35.6035 15.5664 35.4262C15.5351 35.3845 15.5142 35.3428 15.4934 35.3011C15.4099 35.1655 15.3265 35.0195 15.2431 34.8839C15.2222 34.8422 15.191 34.8005 15.1701 34.7484C15.0867 34.592 15.0033 34.4355 14.9198 34.2896C14.9094 34.2687 14.899 34.2478 14.8886 34.227C14.7947 34.0393 14.7009 33.862 14.6174 33.6743C14.534 33.497 14.461 33.3302 14.3776 33.1529C14.3672 33.1216 14.3463 33.0904 14.3359 33.0591C14.2733 32.9131 14.2108 32.7671 14.1586 32.6211C14.1482 32.5898 14.1378 32.5585 14.1273 32.5377C13.9188 32.0059 13.7519 31.4845 13.6164 30.9735C13.6059 30.9527 13.6059 30.9318 13.5955 30.9109C13.5538 30.7545 13.5121 30.5981 13.4808 30.4417C13.4808 30.4313 13.4704 30.4104 13.4704 30.4C13.387 30.0559 13.3244 29.7118 13.2722 29.3676C12.3546 23.4134 15.3787 18.9085 15.8271 18.2724C14.2733 17.4278 12.3546 16.8021 10.0605 16.8021C9.76851 17.2192 7.82893 20.1703 7.58909 24.4666C7.57867 24.6021 7.57867 24.7377 7.57867 24.8837C7.57867 24.9567 7.57867 25.0297 7.56824 25.1027C7.56824 25.2382 7.56824 25.3634 7.56824 25.4989C7.56824 25.5823 7.56824 25.6658 7.57867 25.7492C7.56824 25.8952 7.57867 26.0203 7.57867 26.1559Z" fill="white"/>
<path d="M30.2381 18.2933C30.2381 18.2933 30.7908 17.6677 31.3226 16.7813C31.1454 16.4059 30.5823 15.3005 29.5291 13.9971C29.9879 15.2797 30.2381 16.6666 30.2381 18.1161C30.2381 18.1682 30.2381 18.2308 30.2381 18.2933Z" fill="white"/>
<path d="M8.81934 12.412C7.53672 13.8824 6.51479 15.5925 5.84741 17.4695C7.35944 17.0107 8.7672 16.8126 10.0498 16.8126C12.3439 16.8126 14.2627 17.4382 15.8164 18.2829C19.0699 20.0556 20.707 22.7877 20.707 22.7877C20.707 22.7877 23.8875 22.7981 27.0784 20.942C26.6613 19.9826 21.9584 9.88851 8.81934 12.412Z" stroke="#0C2A6D" stroke-width="0.4391" stroke-miterlimit="10"/>
<path d="M14.8779 8.11577C12.5316 9.05427 10.4565 10.535 8.81934 12.412C21.9584 9.8885 26.6613 19.9826 27.0784 20.942C28.6009 20.0556 30.1338 18.7313 31.3225 16.7813C30.7803 15.6134 26.4215 7.19812 14.8779 8.11577Z" stroke="#0C2A6D" stroke-width="0.4391" stroke-miterlimit="10"/>
<path d="M20.7176 7C18.6529 7 16.6924 7.39626 14.8884 8.11578C26.4216 7.1877 30.7804 15.6134 31.3331 16.7709C32.0005 15.6655 32.5636 14.362 32.9598 12.8083C30.0505 9.27326 25.6499 7 20.7176 7Z" stroke="#0C2A6D" stroke-width="0.4391" stroke-miterlimit="10"/>
<path d="M32.9494 12.8187C32.5635 14.3725 32.0004 15.6759 31.3226 16.7813C30.1338 18.7417 28.6114 20.0556 27.0785 20.942C23.8876 22.8086 20.7071 22.7877 20.7071 22.7877C20.7071 22.7877 19.0491 25.5094 18.9969 29.2008C19.0804 29.2112 30.9994 30.9735 35.671 17.7719C35.0766 15.9575 34.1381 14.2786 32.9494 12.8187Z" stroke="#0C2A6D" stroke-width="0.4391" stroke-miterlimit="10"/>
<path d="M35.6813 17.7823C31.0097 30.9735 19.0907 29.2217 19.0073 29.2008C18.9864 30.9631 19.3201 32.9444 20.3733 34.9569C20.3837 34.9569 30.9054 36.3543 36.3174 25.1652C36.4321 24.3831 36.4947 23.5906 36.4947 22.7773C36.4947 21.0358 36.2131 19.3569 35.6813 17.7823Z" stroke="#0C2A6D" stroke-width="0.4391" stroke-miterlimit="10"/>
<path d="M20.3734 34.9674C19.3202 32.9444 18.9761 30.9631 19.0073 29.2112C19.0595 25.5094 20.7175 22.7981 20.7175 22.7981C20.7175 22.7981 19.0803 20.0661 15.8269 18.2933C15.1699 19.211 9.00708 28.4187 17.7039 38.2939C18.6841 38.4816 19.6852 38.5858 20.7175 38.5858C21.4683 38.5858 22.2191 38.5337 22.9386 38.4294C21.8124 37.2719 20.9782 36.1145 20.3734 34.9674Z" stroke="#0C2A6D" stroke-width="0.4391" stroke-miterlimit="10"/>
<path d="M10.0499 16.8126C8.76724 16.8126 7.36992 17.0107 5.84746 17.4695C5.25307 19.1276 4.92981 20.9211 4.92981 22.7877C4.92981 27.7201 7.19264 32.131 10.7485 35.0195C4.29371 25.5407 9.55976 17.5217 10.0499 16.8126Z" stroke="#0C2A6D" stroke-width="0.4391" stroke-miterlimit="10"/>
<path d="M20.3735 34.9674C20.9783 36.1144 21.8021 37.2824 22.9388 38.419C29.8211 37.4492 35.2749 32.0372 36.3177 25.1861C30.9056 36.3647 20.384 34.9674 20.3735 34.9674Z" stroke="#0C2A6D" stroke-width="0.4391" stroke-miterlimit="10"/>
<path d="M15.8268 18.2829C14.2731 17.4383 12.3543 16.8126 10.0602 16.8126C9.57011 17.5217 4.29364 25.5407 10.7485 35.0195C12.7297 36.6359 15.1073 37.7725 17.7038 38.2834C9.00701 28.4083 15.1698 19.2006 15.8268 18.2829Z" stroke="#0C2A6D" stroke-width="0.4391" stroke-miterlimit="10"/>
<path d="M36.4947 22.7877C36.4947 31.5053 29.4247 38.5754 20.707 38.5754C11.9894 38.5754 4.91931 31.5053 4.91931 22.7877C4.91931 14.0701 11.9894 7 20.707 7C29.4351 7 36.4947 14.0701 36.4947 22.7877Z" stroke="#0C2A6D" stroke-width="0.5855" stroke-miterlimit="10" stroke-linecap="round" stroke-linejoin="round"/>
</svg>
