<svg width="66" height="66" viewBox="0 0 66 66" fill="none" xmlns="http://www.w3.org/2000/svg">
<path d="M8.90019 11.966C6.29147 14.9444 4.23649 18.4152 2.87061 22.2183C5.94693 21.2829 8.77714 20.8891 11.3859 20.8891C16.0373 20.8891 19.938 22.1568 23.0882 23.8675C29.6838 27.4491 32.9939 32.9998 32.9939 32.9998C32.9939 32.9998 39.4296 33.0368 45.9022 29.2583C45.0654 27.3137 35.5165 6.84598 8.90019 11.966Z" fill="white"/>
<path d="M21.1808 3.26437C16.4187 5.15975 12.2226 8.1628 8.90015 11.9659C35.5165 6.84588 45.0654 27.3136 45.9144 29.2582C49.0031 27.449 52.104 24.7905 54.5035 20.8151C53.3961 18.452 44.5486 1.38129 21.1808 3.26437Z" fill="#F26F55"/>
<path d="M57.7891 12.7783C57.0015 15.9168 55.8571 18.5752 54.4912 20.8152C52.0794 24.7783 48.9908 27.4491 45.9022 29.2583C39.4296 33.0368 32.9939 32.9998 32.9939 32.9998C32.9939 32.9998 29.6346 38.5014 29.5361 46.0091C29.7084 46.0337 53.8637 49.5906 63.3388 22.846C62.0959 19.1414 60.2009 15.7445 57.7891 12.7783Z" fill="white"/>
<path d="M11.3859 20.8892C8.77718 20.8892 5.94697 21.283 2.87065 22.2184C1.66473 25.5907 1.00024 29.2092 1.00024 32.9999C1.00024 43.0061 5.59011 51.9415 12.7887 57.7999C-0.291813 38.5876 10.3892 22.3292 11.3859 20.8892Z" fill="#F26F55"/>
<path d="M32.3049 57.6891C33.5232 60.0153 35.209 62.3784 37.4978 64.6799C51.452 62.7107 62.5021 51.7568 64.6186 37.8491C53.6546 60.5322 32.3295 57.6891 32.3049 57.6891Z" fill="white"/>
<path d="M52.2887 17.0614C52.4855 17.3568 52.6824 17.6399 52.8547 17.8984C52.8547 17.9107 52.867 17.9106 52.867 17.923C53.3838 18.723 53.7776 19.4122 54.0606 19.9414C54.0729 19.9784 54.0975 20.003 54.1099 20.0399C54.1837 20.1753 54.2452 20.2984 54.2944 20.4091C54.3067 20.4337 54.3313 20.4707 54.3437 20.4953C54.4052 20.6184 54.4544 20.7291 54.5036 20.8153C55.8572 18.5753 57.0016 15.9168 57.8014 12.7784C57.4692 12.3722 57.1247 11.9784 56.7678 11.5845C56.657 11.4614 56.534 11.326 56.4109 11.203C56.1648 10.9445 55.9187 10.686 55.6726 10.4276C55.525 10.2799 55.3896 10.1445 55.2419 9.9968C54.9958 9.76296 54.7497 9.52911 54.5036 9.30758C54.356 9.17219 54.2083 9.03682 54.0606 8.90144C53.7407 8.61836 53.4085 8.33529 53.0639 8.06453C52.8424 7.87991 52.6086 7.70757 52.3871 7.53527C52.1533 7.36296 51.9318 7.17836 51.6857 7.01836C51.4519 6.85836 51.2181 6.69835 50.9843 6.53835C50.7997 6.41527 50.6152 6.29221 50.4306 6.16913C50.1722 5.99682 49.9138 5.83683 49.643 5.67683C49.4954 5.59068 49.3354 5.49221 49.1877 5.40606C48.1295 4.79068 47.0466 4.2245 45.9145 3.7322C45.8653 3.70758 45.8161 3.68298 45.7669 3.67067C45.3854 3.51067 45.0039 3.35067 44.6225 3.20297C44.5486 3.17836 44.4748 3.14143 44.401 3.11681C40.8571 1.76297 37.0178 1.01221 32.994 1.01221C28.8225 1.01221 24.8356 1.82451 21.1809 3.27682C37.1039 1.99682 46.2837 9.51683 50.8613 15.1784C51.3904 15.8307 51.8703 16.4584 52.2887 17.0614Z" fill="#F2CAC2"/>
<path d="M63.3387 22.8462C63.1788 23.3139 63.0065 23.7693 62.8342 24.2124C62.785 24.3601 62.7235 24.4954 62.6619 24.6308C62.5389 24.9385 62.4158 25.2339 62.2928 25.5293C62.2313 25.6893 62.1574 25.8493 62.0836 25.997C61.9606 26.2677 61.8498 26.5385 61.7268 26.797C61.6529 26.9447 61.5914 27.1047 61.5176 27.2524C61.3822 27.5231 61.2591 27.7939 61.1238 28.0647C61.0623 28.1878 61.0007 28.3231 60.9269 28.4462C60.7423 28.8031 60.5578 29.16 60.3609 29.5047C60.3486 29.5293 60.3363 29.5662 60.3116 29.5908C60.1025 29.96 59.8933 30.317 59.6841 30.6739C59.6225 30.7847 59.5487 30.8954 59.4749 31.0062C59.3272 31.2523 59.1796 31.4862 59.0319 31.7201C58.9458 31.8431 58.8719 31.9662 58.7858 32.1016C58.6504 32.3108 58.5028 32.52 58.3551 32.7293C58.269 32.8523 58.1828 32.9754 58.0967 33.0985C57.949 33.3077 57.7891 33.517 57.6414 33.7262C57.5676 33.8247 57.4814 33.9355 57.4076 34.0339C57.1984 34.3047 57.0015 34.5631 56.7923 34.8093C56.7677 34.8462 56.7431 34.8831 56.7062 34.9077C56.4724 35.1908 56.2263 35.4739 55.9925 35.7447C55.9187 35.8308 55.8448 35.917 55.771 35.9908C55.5987 36.1754 55.4388 36.36 55.2665 36.5447C55.1803 36.6431 55.0819 36.7416 54.9958 36.8277C54.8358 36.9877 54.6758 37.1477 54.5159 37.3077C54.4174 37.3939 54.3313 37.4923 54.2328 37.5785C54.0606 37.7385 53.9006 37.8985 53.7283 38.0462C53.6422 38.12 53.556 38.2062 53.4699 38.28C53.2484 38.477 53.0392 38.6739 52.8177 38.8585C52.7808 38.8831 52.7439 38.9201 52.7193 38.9447C52.4609 39.1662 52.2025 39.3631 51.944 39.5724C51.8702 39.6339 51.7964 39.6831 51.7226 39.7447C51.538 39.8924 51.3534 40.0277 51.1565 40.1631C51.0704 40.2247 50.9719 40.2985 50.8858 40.36C50.7135 40.4831 50.5412 40.6062 50.369 40.7293C50.2828 40.7908 50.1844 40.8524 50.0983 40.9139C49.9137 41.037 49.7291 41.16 49.5445 41.2708C49.4707 41.32 49.3845 41.3693 49.3107 41.4185C49.0769 41.5662 48.8308 41.7139 48.597 41.8616C48.5724 41.8739 48.5601 41.8862 48.5355 41.8985C48.2648 42.0585 47.9941 42.2062 47.7356 42.3539C47.6864 42.3785 47.6249 42.4031 47.5757 42.44C47.3665 42.5508 47.1573 42.6616 46.9358 42.7723C46.862 42.8093 46.7881 42.8462 46.702 42.8831C46.5174 42.9816 46.3205 43.0677 46.136 43.1539C46.0621 43.1908 45.976 43.2278 45.9022 43.2647C45.7053 43.3508 45.4961 43.4493 45.2992 43.5354C45.2377 43.56 45.1761 43.5847 45.1146 43.6093C44.5855 43.8308 44.0441 44.04 43.5272 44.237C43.5149 44.237 43.5026 44.2493 43.4903 44.2493C43.2442 44.3354 42.9981 44.4216 42.752 44.5077C42.7028 44.52 42.6536 44.5447 42.6043 44.557C42.3952 44.6308 42.1737 44.6924 41.9645 44.7539C41.9152 44.7662 41.866 44.7785 41.8168 44.7908C41.5953 44.8524 41.3738 44.9262 41.1523 44.9754C41.1277 44.9877 41.0908 44.9877 41.0662 45C40.2909 45.2093 39.528 45.3816 38.802 45.5293C33.4984 46.5754 29.5607 45.997 29.4992 45.9847C29.4869 46.6985 29.5238 47.4247 29.573 48.1754C29.5977 48.5324 29.6346 48.8893 29.6715 49.2585C29.6715 49.3077 29.6838 49.3447 29.6838 49.3939C29.8068 50.3539 29.9791 51.3385 30.2375 52.3231C30.2867 52.5077 30.3237 52.7046 30.3852 52.8893C30.4467 53.0985 30.5082 53.32 30.5821 53.5416C30.6559 53.8 30.742 54.0462 30.8282 54.3046C30.8897 54.5016 30.9635 54.6862 31.0374 54.8831C31.1481 55.1908 31.2712 55.4862 31.4065 55.7939C31.4681 55.9539 31.5296 56.1016 31.6034 56.2616C31.8126 56.7293 32.0341 57.197 32.2802 57.6646C32.2925 57.6646 53.6299 60.5077 64.5939 37.8247C64.84 36.2493 64.963 34.6247 64.963 32.9754C64.9877 29.4554 64.397 26.0339 63.3387 22.8462Z" fill="#F26F55"/>
<path d="M32.305 57.6894C32.0589 57.2217 31.8374 56.7541 31.6282 56.2864C31.5543 56.1264 31.4928 55.9787 31.4313 55.8187C31.3082 55.511 31.1852 55.2156 31.0621 54.9079C30.9883 54.711 30.9268 54.5264 30.8529 54.3294C30.7668 54.071 30.6807 53.8125 30.6068 53.5664C30.5453 53.3448 30.4715 53.1356 30.4099 52.9141C30.3607 52.7171 30.3115 52.5325 30.2623 52.3479C30.0162 51.351 29.8316 50.3664 29.7085 49.4187C29.7085 49.3695 29.6962 49.3325 29.6962 49.2833C29.6593 48.9264 29.6224 48.5571 29.5978 48.2002C29.5486 47.4494 29.5117 46.7233 29.524 46.0094C29.6224 38.5017 32.9818 33.0002 32.9818 33.0002C32.9818 33.0002 29.6716 27.4495 23.076 23.8679C22.1162 25.2218 15.3114 35.351 18.2892 48.4341C18.3015 48.4587 18.3015 48.4833 18.3139 48.5202C18.3877 48.8402 18.4615 49.1602 18.5476 49.4679C18.56 49.5048 18.5723 49.5541 18.5846 49.591C18.8676 50.6371 19.2121 51.6956 19.6305 52.7663C19.6551 52.8279 19.6797 52.8894 19.7043 52.9387C19.8274 53.2341 19.9505 53.5418 20.0735 53.8371C20.0981 53.8987 20.1227 53.9602 20.1596 54.0341C20.3073 54.3787 20.4673 54.7356 20.6395 55.0802C20.8118 55.4494 20.9964 55.8187 21.1933 56.1879C21.2179 56.2248 21.2425 56.274 21.2548 56.311C21.4148 56.6187 21.5871 56.9387 21.7716 57.2464C21.8209 57.3325 21.8701 57.4187 21.9193 57.5048C22.0793 57.7879 22.2515 58.071 22.4238 58.3418C22.473 58.4279 22.5223 58.5141 22.5838 58.6002C22.8053 58.9448 23.0268 59.3017 23.2606 59.6587C23.2606 59.671 23.2729 59.671 23.2729 59.6833C23.519 60.0525 23.7651 60.4094 24.0358 60.7787C24.0973 60.8648 24.1589 60.951 24.2204 61.0371C24.4173 61.3079 24.6265 61.591 24.8357 61.8617C24.9218 61.9725 25.0079 62.0833 25.0941 62.194C25.3033 62.4525 25.5124 62.7233 25.7216 62.9817C25.8078 63.0802 25.8939 63.191 25.98 63.2894C26.2754 63.6464 26.583 64.0156 26.9029 64.3725C28.8841 64.7541 30.9268 64.9633 33.0064 64.9633C34.5322 64.9633 36.0458 64.8525 37.5224 64.6433C35.209 62.3664 33.5232 60.0156 32.305 57.6894Z" fill="#F26F55"/>
<path d="M32.3049 57.6891C33.5232 60.0153 35.209 62.3784 37.4978 64.6799C51.452 62.7107 62.5021 51.7568 64.6186 37.8491C53.6546 60.5322 32.3295 57.6891 32.3049 57.6891Z" fill="#F2CAC2"/>
<path d="M6.37764 39.8307C6.38995 40.0153 6.40225 40.2123 6.41456 40.4092C6.43917 40.6677 6.45147 40.9261 6.47609 41.1969C6.5007 41.4553 6.53761 41.7138 6.56222 41.9723C6.61144 42.3538 6.66067 42.7353 6.72219 43.1292C6.75911 43.3999 6.80832 43.6584 6.85755 43.9292C6.89446 44.1507 6.94368 44.3846 6.9929 44.6061C7.05443 44.8769 7.10365 45.1477 7.16518 45.4184C7.2144 45.64 7.27593 45.8738 7.33746 46.0953C7.41129 46.3784 7.49742 46.6738 7.57125 46.9692C7.63278 47.1784 7.69431 47.3877 7.75584 47.6092C7.86658 47.9661 7.98963 48.323 8.11269 48.6922C8.16191 48.8399 8.21113 49 8.27266 49.1477C8.45723 49.6523 8.65412 50.1692 8.87562 50.6861C8.93714 50.8461 9.01097 51.0061 9.0848 51.1538C9.24477 51.523 9.41705 51.9046 9.58932 52.2861C9.67546 52.483 9.7739 52.68 9.87234 52.8769C10.0446 53.2215 10.2292 53.5784 10.4138 53.9353C10.5245 54.1322 10.623 54.3292 10.7337 54.5384C10.9429 54.9076 11.1644 55.2892 11.3859 55.6584C11.4843 55.8307 11.5951 56.003 11.6935 56.1877C12.0381 56.7415 12.3826 57.283 12.7641 57.8492C16.7756 61.123 21.587 63.4368 26.8659 64.4584C26.546 64.1015 26.2384 63.7323 25.943 63.3753C25.8569 63.2646 25.7708 63.1661 25.6846 63.0676C25.4754 62.8092 25.2663 62.5384 25.0571 62.2799C24.9709 62.1692 24.8848 62.0584 24.7987 61.9476C24.5895 61.6769 24.3803 61.3938 24.1834 61.123C24.1219 61.0369 24.0603 60.9507 23.9988 60.8646C23.7404 60.4953 23.482 60.1384 23.2359 59.7692C23.2359 59.7568 23.2236 59.7569 23.2236 59.7446C22.9898 59.3876 22.7683 59.043 22.5468 58.6861C22.4976 58.6 22.4483 58.5138 22.3868 58.4276C22.2145 58.1445 22.0546 57.8615 21.8823 57.5907C21.8331 57.5046 21.7839 57.4184 21.7346 57.3323C21.5624 57.0246 21.3901 56.7046 21.2178 56.3969C21.1932 56.3599 21.1686 56.3107 21.1563 56.2738C20.9594 55.9045 20.7748 55.5353 20.6026 55.1661C20.4303 54.8092 20.2826 54.4645 20.1226 54.1199C20.098 54.0584 20.0734 53.9969 20.0365 53.923C19.9135 53.6276 19.7904 53.32 19.6673 53.0246C19.6427 52.963 19.6181 52.9015 19.5935 52.8522C19.1751 51.7815 18.8306 50.723 18.5476 49.6769C18.5353 49.64 18.523 49.5907 18.5107 49.5538C18.4245 49.2338 18.3507 48.9138 18.2769 48.6061C18.2645 48.5815 18.2645 48.5569 18.2522 48.52C18.0923 47.8184 17.9569 47.1169 17.8585 46.4399C15.9881 34.3784 22.1284 25.2338 23.039 23.9538C19.8888 22.2431 15.9881 20.9753 11.3367 20.9753C10.746 21.8246 6.80832 27.8061 6.32842 36.5076C6.32842 36.5076 6.32842 36.5076 6.32842 36.52C6.31611 36.7907 6.30381 37.0738 6.30381 37.3569C6.30381 37.5046 6.2915 37.6523 6.2915 37.8C6.2915 38.0707 6.2915 38.3292 6.2915 38.6C6.2915 38.7723 6.29151 38.9446 6.30381 39.1169C6.35303 39.2892 6.36534 39.56 6.37764 39.8307Z" fill="white"/>
<path d="M8.90019 11.9662C6.29147 14.9447 4.23649 18.4155 2.87061 22.2186C5.94693 21.2832 8.77714 20.8893 11.3859 20.8893C16.0373 20.8893 19.938 22.157 23.0882 23.8678C29.6838 27.4493 32.9939 33.0001 32.9939 33.0001C32.9939 33.0001 39.4296 33.037 45.9022 29.2586C45.0654 27.3139 35.5165 6.84623 8.90019 11.9662Z" stroke="black" stroke-width="0.7542" stroke-miterlimit="10"/>
<path d="M21.1808 3.26437C16.4187 5.15975 12.2226 8.1628 8.90015 11.9659C35.5165 6.84588 45.0654 27.3136 45.9144 29.2582C49.0031 27.449 52.104 24.7905 54.5035 20.8151C53.3961 18.452 44.5486 1.38129 21.1808 3.26437Z" stroke="black" stroke-width="0.7542" stroke-miterlimit="10"/>
<path d="M32.994 1C28.8225 1 24.8356 1.81234 21.1809 3.26465C44.561 1.39388 53.3961 18.4523 54.5036 20.8154C55.8572 18.5754 57.0016 15.9169 57.8014 12.7785C51.9195 5.59078 42.9982 1 32.994 1Z" stroke="black" stroke-width="0.7542" stroke-miterlimit="10"/>
<path d="M57.7891 12.7786C57.0015 15.917 55.8571 18.5755 54.4912 20.8155C52.0794 24.7786 48.9908 27.4493 45.9022 29.2586C39.4296 33.037 32.9939 33.0001 32.9939 33.0001C32.9939 33.0001 29.6346 38.5016 29.5361 46.0093C29.7084 46.0339 53.8637 49.5908 63.3388 22.8462C62.0959 19.1416 60.2009 15.7447 57.7891 12.7786Z" stroke="black" stroke-width="0.7542" stroke-miterlimit="10"/>
<path d="M63.3387 22.8462C53.8637 49.5908 29.7084 46.0339 29.5361 46.0093C29.4869 49.5785 30.176 53.5908 32.3171 57.6893C32.3294 57.6893 53.6668 60.5323 64.6308 37.8493C64.8769 36.2739 65 34.6493 65 33C64.9877 29.4554 64.397 26.0339 63.3387 22.8462Z" stroke="black" stroke-width="0.7542" stroke-miterlimit="10"/>
<path d="M32.3049 57.6892C30.1637 53.603 29.4747 49.5784 29.5239 46.0092C29.6223 38.5015 32.9817 33 32.9817 33C32.9817 33 29.6715 27.4492 23.0759 23.8677C21.7469 25.7261 9.25706 44.3969 26.8782 64.4092C28.8594 64.7907 30.9021 64.9999 32.9817 64.9999C34.5075 64.9999 36.0211 64.8892 37.4977 64.68C35.2089 62.3661 33.5231 60.0153 32.3049 57.6892Z" stroke="black" stroke-width="0.7542" stroke-miterlimit="10"/>
<path d="M11.3859 20.8892C8.77718 20.8892 5.94697 21.283 2.87065 22.2184C1.66473 25.5907 1.00024 29.2092 1.00024 32.9999C1.00024 43.0061 5.59011 51.9415 12.7887 57.7999C-0.291813 38.5876 10.3892 22.3292 11.3859 20.8892Z" stroke="black" stroke-width="0.7542" stroke-miterlimit="10"/>
<path d="M32.3049 57.6891C33.5232 60.0153 35.209 62.3784 37.4978 64.6799C51.452 62.7107 62.5021 51.7568 64.6186 37.8491C53.6546 60.5322 32.3295 57.6891 32.3049 57.6891Z" stroke="black" stroke-width="0.7542" stroke-miterlimit="10"/>
<path d="M23.0883 23.8676C19.9381 22.1569 16.0374 20.8892 11.386 20.8892C10.3892 22.3292 -0.291747 38.5876 12.7888 57.8122C16.8003 61.0861 21.6117 63.3999 26.8906 64.4214C9.25716 44.3968 21.7593 25.7261 23.0883 23.8676Z" stroke="black" stroke-width="0.7542" stroke-miterlimit="10"/>
<path d="M64.9875 33C64.9875 50.6738 50.6641 65 32.9937 65C15.3234 65 1 50.6738 1 33C1 15.3261 15.3234 1 32.9937 1C50.6641 1 64.9875 15.3261 64.9875 33Z" stroke="black" stroke-width="1.0057" stroke-miterlimit="10" stroke-linecap="round" stroke-linejoin="round"/>
<path fill-rule="evenodd" clip-rule="evenodd" d="M9.47681 55.0745C33.9974 54.233 53.6163 34.0321 53.6163 9.23293C53.6163 9.10014 53.6157 8.96748 53.6146 8.83496C60.3656 14.7018 64.6338 23.3521 64.6338 33C64.6338 50.6739 50.3104 65 32.64 65C23.5268 65 15.3038 61.1895 9.47681 55.0745Z" fill="black" fill-opacity="0.13"/>
</svg>
