<svg width="40" height="41" viewBox="0 0 40 41" fill="none" xmlns="http://www.w3.org/2000/svg">
<path d="M32.1578 40.3861C30.7347 41.4504 21.6037 34.7041 19.8549 34.6893C18.1061 34.6746 8.87227 41.2657 7.4658 40.1775C6.05934 39.0894 9.36587 27.9126 8.83893 26.1668C8.312 24.421 -0.528839 17.2633 0.0249574 15.5265C0.578875 13.7898 11.7535 13.6285 13.1765 12.5642C14.5996 11.5001 18.3696 0.485315 20.1185 0.500015C21.8672 0.514842 25.4668 11.5919 26.8733 12.68C28.2798 13.7681 39.4506 14.1183 39.9776 15.8641C40.5046 17.6099 31.5547 24.6173 31.0008 26.3541C30.447 28.0908 33.5809 39.3219 32.1578 40.3861Z" fill="#FBBC05"/>
</svg>
