<svg width="720" height="1231" viewBox="0 0 720 1231" fill="none" xmlns="http://www.w3.org/2000/svg">
<g clip-path="url(#clip0_902_8293)">
<g filter="url(#filter0_f_902_8293)">
<path d="M190.036 749.962L186.97 750.069C186.97 750.069 168.496 822.428 159.837 872.12C159.272 875.4 158.654 878.654 158.035 881.827C162.042 877.309 173.04 865.747 187.32 858.621C187.32 858.621 165.108 875.158 156.691 888.415C148.059 930.308 136.63 963.006 140.314 967.093C140.341 967.12 140.368 967.173 140.395 967.227C140.556 967.657 141.524 969.943 145.101 973.116C145.262 973.277 145.369 973.519 145.316 973.734L131.924 1034.02C131.87 1034.32 131.601 1034.5 131.332 1034.5C76.0979 1034.75 18.3895 1075.32 -12.2664 1100.62C-12.5353 1100.84 -12.858 1100.79 -13.0731 1100.57C-13.1538 1100.89 -17.4295 1118.91 -21.759 1124.45C-26.1153 1130.04 -26.5994 1135.12 -18.29 1137.97C-11.9168 1140.18 -8.98568 1144 -7.96381 1145.69C-7.58734 1146.2 -7.50667 1146.52 -7.50667 1146.52C-7.50667 1146.52 -7.66801 1146.2 -7.96381 1145.69C-8.82433 1144.48 -11.1639 1142.17 -17.3757 1140.37C-26.196 1137.81 -29.907 1132.68 -25.9271 1126.41C-21.9741 1120.2 -13.2614 1100.81 -13.1269 1100.54C-13.2345 1100.44 -13.3152 1100.3 -13.3152 1100.14C-13.342 1096.3 -15.6278 1092.67 -19.4194 1091.08C-27.2985 1087.77 -39.1844 1083.23 -48.1123 1081.56L-60.4822 1135.77C-60.4822 1123.53 -50.8821 1081.64 -50.8821 1081.64L-49.9947 1081.26C-53.7325 1080.73 -56.7981 1080.78 -58.5998 1081.83C-67.3932 1086.97 -72.637 1148.57 -74.0085 1162.17C-75.3799 1175.78 -86.217 1177.15 -82.9094 1198.91C-79.6018 1220.66 -72.5026 1234.67 -61.2352 1228.56C-49.9947 1222.46 -53.7594 1185.86 -35.1508 1175C-17.5908 1164.73 0.695129 1156.12 -6.10833 1148C-6.35035 1147.71 -6.32346 1147.25 -6.00076 1147.06C16.2651 1132.11 36.0032 1122.38 53.5093 1116.14C54.1009 1115.92 54.585 1116.62 54.2085 1117.13C50.5244 1122.06 46.5176 1126.81 46.8134 1139.88C47.3244 1160.37 52.2454 1174.17 63.3784 1169.84C74.4844 1165.51 75.318 1131.25 93.7923 1123.37C107.964 1117.35 122.431 1112.38 124.529 1106.27C124.609 1106 124.852 1105.84 125.147 1105.84C134.909 1106.33 143.084 1107.16 149.887 1106.97C143.944 1104.39 134.452 1098.39 131.225 1085.43C131.225 1085.43 137.679 1102.56 155.427 1106.49C164.758 1104.77 177.854 1090.7 190.977 1072.98C191.084 1072.85 191.246 1072.74 191.407 1072.74C239.246 1067.17 295.664 1067.79 305.721 1065.1C299.241 1065.8 288.215 1065.24 279.045 1055.77C279.045 1055.77 292.787 1067.04 309.755 1062.17C319.705 1050.23 332.236 1004.98 336.028 990.702C336.108 990.379 336.431 990.271 336.754 990.352C346.623 992.53 361.01 910.921 360.687 828.963C360.176 828.371 341.944 807.559 329.547 799.465C329.547 799.465 351.436 810.409 359.638 821.353L360.687 828.667C360.606 808.177 359.584 787.687 357.379 768.462C357.379 768.435 357.379 768.435 357.379 768.408C357.299 768.435 263.153 787.042 190.493 749.935C190.331 749.854 190.224 749.8 190.089 749.747L190.036 749.962ZM54.827 1115.92C91.4796 1101.19 123.641 1106.08 123.641 1106.08C87.5535 1104.47 54.827 1115.92 54.827 1115.92ZM146.66 967.953C199.636 960.29 240.914 992.906 240.914 992.906C203.078 967.657 146.66 967.953 146.66 967.953ZM192.617 1071.67L235.804 1003.9C221.337 1035.55 192.617 1071.67 192.617 1071.67ZM337.211 986.292C317.688 961.93 260.302 956.713 260.302 956.713C329.681 961.07 337.211 986.292 337.211 986.292ZM305.452 861.203C293.916 873.895 273.156 899.251 273.156 899.251C280.659 879.084 305.452 861.203 305.452 861.203ZM251.025 993.767L249.734 999.629C249.68 999.898 249.411 1000.14 249.115 1000.14C245.485 1000.27 244.087 997.128 237.418 999.037C238.924 996.402 237.31 999.414 238.305 997.612C240.833 997.8 243.468 997.988 246.131 998.15C247.018 998.311 247.341 998.419 247.341 998.419L247.529 997.773C248.766 992.853 260.437 945.635 267.025 876.395C267.052 876.422 261.512 958.488 251.025 993.767ZM251.267 890.055C244.221 860.1 220.45 825.763 220.45 825.763C245.969 848.645 251.267 890.055 251.267 890.055Z" fill="white" fill-opacity="0.12"/>
<path d="M654.66 337.669C668.132 330.919 666.949 314.678 661.41 321.024C657.887 325.031 646.754 331.43 639.063 335.571C638.391 335.921 637.772 335.034 638.337 334.549C650.761 323.202 669.961 297.711 665.067 297.012C659.07 296.152 630.781 341.568 595.634 351.866C560.487 362.138 545.912 388.731 496.217 401.584C469.461 408.495 453.165 418.148 443.78 425.57C443.565 425.704 443.349 425.785 443.134 425.946C420.626 441.192 361.089 463.699 323.334 465.877C301.472 467.141 286.009 477.385 276.813 485.802C276.651 485.936 276.436 485.99 276.221 485.936C264.093 482.199 253.874 486.151 247.555 491.233C237.229 499.596 232.469 495.078 222.896 496.934C222.6 496.988 222.331 496.853 222.197 496.584L218.54 488.706C218.405 488.41 218.513 488.06 218.808 487.899C218.862 487.872 218.889 487.845 218.943 487.818C178.714 503.441 162.122 483.14 162.122 483.14C181.484 498.44 216.012 488.679 218.997 487.791C251.669 468.781 217.948 404.677 208.886 388.731C208.751 388.516 208.778 388.274 208.939 388.059C210.607 385.962 212.22 383.38 213.699 380.234C226.096 353.802 192.697 334.146 173.82 351.06C154.942 367.946 145.53 364.665 128.885 368.322C113.449 371.737 114.578 392.227 114.847 395.212C114.874 395.454 114.74 395.642 114.552 395.776C93.684 408.387 113.718 436.756 128.75 453.696C128.992 453.992 128.938 454.395 128.616 454.61C125.469 456.949 123.695 461.87 126.895 468.673C132.838 481.338 143.836 473.675 143.836 473.675C143.836 473.675 144.078 473.97 144.535 474.428L163.735 516.321C163.87 516.617 163.735 516.939 163.467 517.101L164.085 516.993C164.085 516.993 184.146 523.42 196.838 519.763C197.672 519.521 198.506 519.225 199.312 518.902C194.338 515.219 181.941 507.77 181.941 507.77C192.348 510.647 197.78 516.348 199.689 518.714C203.965 516.939 207.891 514.089 211.118 511.239C211.575 508.523 212.274 503.871 212.408 501.021C212.408 501.021 213.565 505.807 212.301 510.19C217.007 505.807 220.019 501.72 220.019 501.72C202.97 534.848 165.806 518.822 162.633 517.37C158.976 518.338 154.861 519.548 150.102 521.134C148.031 521.833 146.579 523.662 146.337 525.813C145.611 532.481 141.362 547.055 118.747 552.864C118.747 552.864 119.392 554.208 120.387 556.52C118.02 557.542 68.729 578.919 49.8246 589.729C45.28 592.31 10.3753 598.091 -0.945908 600.538C-0.945908 600.538 -28.9665 609.223 -42.4927 618.258C-42.4927 618.258 -36.1195 609.385 -0.139175 597.984C10.2677 586.798 46.8396 547.405 56.0364 535.843C56.144 535.681 56.3053 535.627 56.4936 535.627C60.5003 535.627 106.135 535.412 106.807 524.226C107.183 517.854 92.7697 525.974 85.8318 522.506C78.8939 519.037 91.452 498.897 109.012 497.498C116.326 496.907 119.123 489.432 105.543 486.259C98.7664 490.453 84.1108 501.048 84.1108 501.048C84.2452 500.053 98.7664 488.975 103.015 485.748C99.8421 485.21 95.9429 484.887 91.21 484.861C86.7461 487.711 79.862 492.927 79.862 492.927C79.9695 492.067 85.3746 487.361 88.2789 484.887C84.9713 484.941 81.3141 485.156 77.2804 485.533C74.4031 486.823 69.8853 489.781 69.8853 489.781C69.9929 488.921 72.3324 486.931 73.5963 485.882C72.6013 485.99 71.6064 486.097 70.5576 486.232C50.8195 488.679 33.1521 515.541 25.5419 521.08C17.9317 526.62 -83.3135 602.878 -83.9857 627.831C-84.6849 652.784 -59.7299 660.394 1.95834 655.554C22.5032 653.94 37.4815 653.618 49.8514 653.214C80.2384 646.68 87.8486 637.188 87.8486 637.188C82.067 646.492 75.8552 650.31 71.4988 651.897C85.2133 650.364 97.5563 646.976 115.627 638.237C117.725 637.215 119.58 636.086 121.274 634.849C121.489 634.688 121.758 634.688 121.973 634.849C131.627 641.867 180.838 678.302 195.064 699.948C196.919 700.889 198.533 701.83 198.533 701.83C198.533 701.83 211.037 715.328 224.509 720.303C224.509 720.303 212.462 719.416 198.748 708.122C198.99 709.628 198.909 710.999 198.344 712.129C193.773 721.298 189.39 730.037 193.719 735.334C193.853 735.495 193.88 735.684 193.853 735.872L190.089 749.693C190.223 749.774 190.358 749.827 190.492 749.908C199.635 754.13 242.849 770.559 357.378 768.381C357.378 768.354 357.378 768.354 357.378 768.327L354.878 758.566C354.824 758.378 354.905 758.163 355.039 758.002C356.599 756.254 358.642 749.182 354.205 721.11C348.262 683.438 359.933 638.829 333.338 565.044C333.284 564.883 333.284 564.695 333.392 564.533C333.472 564.399 333.553 564.211 333.634 564.076C333.607 563.996 333.58 563.942 333.553 563.861C333.096 562.49 332.235 559.908 330.944 556.467C315.724 518.149 278.211 484.914 278.211 484.914C306.124 497.498 324.195 538.532 330.944 556.467C331.913 558.914 332.8 561.387 333.553 563.861C333.58 563.942 333.607 564.023 333.634 564.076C339.119 553.778 330.245 525.625 353.802 521.027C379.94 515.945 415.517 498.52 435.121 489.808C454.724 481.096 472.069 474.562 472.069 474.562C451.82 475.288 439.773 470.582 439.773 470.582C450.476 472.895 478.362 471.981 478.362 471.981L472.069 474.562C536.715 450.738 580.575 386.069 583.829 381.149C584.125 379.939 585.577 374.964 591.224 370.904C591.224 370.904 587.782 377.357 586.975 380.88C625.483 380.853 615.426 365.391 634.76 365.391C654.579 365.391 663.695 359.852 660.926 357.056C658.156 354.286 634.76 358.642 631.184 354.69C627.688 350.764 641.161 344.418 654.66 337.669ZM141.577 425.623C143.433 432.803 144.643 441.192 144.643 441.192C144.024 436.675 136.145 429.899 139.157 416.831C142.169 403.762 170.646 413.147 173.658 404.435C176.67 395.723 179.682 395.05 190.734 396.744C201.786 398.438 207.81 388.704 207.81 388.704C200.899 409.759 180.489 390.183 177.208 400.428C173.927 410.673 170.243 411.076 154.673 411.695C139.13 412.286 139.749 418.444 141.577 425.623ZM134.101 615.758C130.552 628.395 121.651 634.607 121.651 634.607C130.39 623.636 134.101 600.35 127.755 583.356C121.436 566.362 120.468 556.494 120.468 556.494C120.468 556.494 137.651 603.12 134.101 615.758ZM349.58 633.773L350.172 639.797C346.541 628.933 315.159 618.662 315.159 618.662C339.335 621.108 349.58 633.773 349.58 633.773ZM347.16 618.07L347.751 622.91C334.467 609.035 294.023 607.825 294.023 607.825C320.618 602.394 347.16 618.07 347.16 618.07ZM309.216 723.1C324.437 724.363 344.659 727.214 354.797 758.271C354.797 758.271 342.185 728.477 314.299 727.214C286.413 725.95 204.287 761.444 194.149 735.764C194.149 735.764 200.818 744.96 223.326 740.524C245.807 736.087 293.996 721.809 309.216 723.1Z" fill="white" fill-opacity="0.12"/>
</g>
</g>
<defs>
<filter id="filter0_f_902_8293" x="-90" y="291" width="761.849" height="945" filterUnits="userSpaceOnUse" color-interpolation-filters="sRGB">
<feFlood flood-opacity="0" result="BackgroundImageFix"/>
<feBlend mode="normal" in="SourceGraphic" in2="BackgroundImageFix" result="shape"/>
<feGaussianBlur stdDeviation="3" result="effect1_foregroundBlur_902_8293"/>
</filter>
<clipPath id="clip0_902_8293">
<rect width="720" height="1231" fill="white"/>
</clipPath>
</defs>
</svg>
