<svg width="26" height="28" viewBox="0 0 26 28" fill="none" xmlns="http://www.w3.org/2000/svg">
<path fill-rule="evenodd" clip-rule="evenodd" d="M17.9756 7C17.9756 9.76142 15.737 12 12.9756 12C10.2142 12 7.97559 9.76142 7.97559 7C7.97559 4.23858 10.2142 2 12.9756 2C15.737 2 17.9756 4.23858 17.9756 7ZM16.7102 12.9216C18.6725 11.6814 19.9756 9.4929 19.9756 7C19.9756 3.13401 16.8416 0 12.9756 0C9.10959 0 5.97559 3.13401 5.97559 7C5.97559 9.4929 7.27872 11.6814 9.24095 12.9216C3.89517 14.7707 0 20.4869 0 27.252C0 27.6703 0.345849 28 0.764132 28H25.1871C25.6054 28 25.9512 27.6703 25.9512 27.252C25.9512 20.4869 22.056 14.7707 16.7102 12.9216ZM12.9756 14.2927C18.4488 14.2927 23.3595 19.2062 23.9016 26H2.04958C2.59167 19.2062 7.50247 14.2927 12.9756 14.2927Z" fill="white"/>
</svg>
