<svg width="24" height="24" viewBox="0 0 24 24" fill="none" xmlns="http://www.w3.org/2000/svg">
<g clip-path="url(#clip0_1379_7805)">
<path d="M2 17.2105C2 18.2295 2.4875 19.1442 3.25 19.7811V21.8421C3.25 22.4789 3.8125 23 4.5 23H5.75C6.4375 23 7 22.4789 7 21.8421V20.6842H17V21.8421C17 22.4789 17.5625 23 18.25 23H19.5C20.1875 23 20.75 22.4789 20.75 21.8421V19.7811C21.5125 19.1442 22 18.2295 22 17.2105V5.63158C22 1.57895 17.525 1 12 1C6.475 1 2 1.57895 2 5.63158V17.2105ZM6.375 18.3684C5.3375 18.3684 4.5 17.5926 4.5 16.6316C4.5 15.6705 5.3375 14.8947 6.375 14.8947C7.4125 14.8947 8.25 15.6705 8.25 16.6316C8.25 17.5926 7.4125 18.3684 6.375 18.3684ZM17.625 18.3684C16.5875 18.3684 15.75 17.5926 15.75 16.6316C15.75 15.6705 16.5875 14.8947 17.625 14.8947C18.6625 14.8947 19.5 15.6705 19.5 16.6316C19.5 17.5926 18.6625 18.3684 17.625 18.3684ZM19.5 11.4211H4.5V5.63158H19.5V11.4211Z" fill="white" fill-opacity="0.2"/>
</g>
<defs>
<clipPath id="clip0_1379_7805">
<rect width="24" height="24" fill="white"/>
</clipPath>
</defs>
</svg>
