<svg width="24" height="24" viewBox="0 0 24 24" fill="none" xmlns="http://www.w3.org/2000/svg">
<g clip-path="url(#clip0_1134_2757)">
<path d="M1 17.6842C1 18.7958 1.53625 19.7937 2.375 20.4884V22.7368C2.375 23.4316 2.99375 24 3.75 24H5.125C5.88125 24 6.5 23.4316 6.5 22.7368V21.4737H17.5V22.7368C17.5 23.4316 18.1187 24 18.875 24H20.25C21.0063 24 21.625 23.4316 21.625 22.7368V20.4884C22.4638 19.7937 23 18.7958 23 17.6842V5.05263C23 0.631579 18.0775 0 12 0C5.9225 0 1 0.631579 1 5.05263V17.6842ZM5.8125 18.9474C4.67125 18.9474 3.75 18.1011 3.75 17.0526C3.75 16.0042 4.67125 15.1579 5.8125 15.1579C6.95375 15.1579 7.875 16.0042 7.875 17.0526C7.875 18.1011 6.95375 18.9474 5.8125 18.9474ZM18.1875 18.9474C17.0462 18.9474 16.125 18.1011 16.125 17.0526C16.125 16.0042 17.0462 15.1579 18.1875 15.1579C19.3288 15.1579 20.25 16.0042 20.25 17.0526C20.25 18.1011 19.3288 18.9474 18.1875 18.9474ZM20.25 11.3684H3.75V5.05263H20.25V11.3684Z" fill="white" fill-opacity="0.7"/>
</g>
<defs>
<clipPath id="clip0_1134_2757">
<rect width="24" height="24" fill="white"/>
</clipPath>
</defs>
</svg>
