<svg width="24" height="24" viewBox="0 0 24 24" fill="none" xmlns="http://www.w3.org/2000/svg">
<g clip-path="url(#clip0_1134_2760)">
<path d="M15.5 17C16.0523 17 16.5 16.5523 16.5 16C16.5 15.4477 16.0523 15 15.5 15C14.9477 15 14.5 15.4477 14.5 16C14.5 16.5523 14.9477 17 15.5 17Z" fill="white" fill-opacity="0.7"/>
<path d="M8.5 17C9.05228 17 9.5 16.5523 9.5 16C9.5 15.4477 9.05228 15 8.5 15C7.94772 15 7.5 15.4477 7.5 16C7.5 16.5523 7.94772 17 8.5 17Z" fill="white" fill-opacity="0.7"/>
<path d="M6.012 8.4H18.012V14.4H6.012V8.4ZM18.96 0.96C16.8 0.108 14.232 0 12 0C9.768 0 7.2 0.108 5.04 0.96C1.836 2.208 0 4.86 0 8.232V24H24V8.232C24 4.86 22.164 2.208 18.96 0.96ZM19.2 16.656C19.2 18.396 17.784 19.8 16.044 19.8L17.4 21.144V21.6H15.6L13.8 19.8H10.404L8.604 21.6H6.6V21.144L7.944 19.8C6.216 19.8 4.8 18.384 4.8 16.656V8.4C4.8 5.244 8.4 4.8 12 4.8C15.984 4.8 19.2 5.256 19.2 8.4V16.656Z" fill="white" fill-opacity="0.7"/>
</g>
<defs>
<clipPath id="clip0_1134_2760">
<rect width="24" height="24" fill="white"/>
</clipPath>
</defs>
</svg>
