<svg width="24" height="24" viewBox="0 0 24 24" fill="none" xmlns="http://www.w3.org/2000/svg">
<g clip-path="url(#clip0_1134_2754)">
<path d="M0 12C0 5.37258 5.37258 0 12 0C18.6274 0 24 5.37258 24 12C24 18.6274 18.6274 24 12 24C5.37258 24 0 18.6274 0 12Z" fill="white" fill-opacity="0.7"/>
<path d="M12.9231 4H7V20H10.3846V14.6667H12.9231C15.7238 14.6667 18 12.2756 18 9.33333C18 6.39111 15.7238 4 12.9231 4ZM13.0923 11.1111H10.3846V7.55556H13.0923C14.0231 7.55556 14.7846 8.35556 14.7846 9.33333C14.7846 10.3111 14.0231 11.1111 13.0923 11.1111Z" fill="#123659"/>
</g>
<defs>
<clipPath id="clip0_1134_2754">
<rect width="24" height="24" fill="white"/>
</clipPath>
</defs>
</svg>
