<svg width="16" height="16" viewBox="0 0 16 16" fill="none" xmlns="http://www.w3.org/2000/svg">
<path d="M12.8631 15.9545C12.2939 16.3802 8.64148 13.6816 7.94196 13.6757C7.24244 13.6698 3.54891 16.3063 2.98632 15.871C2.42373 15.4357 3.74635 10.965 3.53557 10.2667C3.3248 9.5684 -0.211535 6.70531 0.00998294 6.01062C0.23155 5.31592 4.70138 5.2514 5.27061 4.82569C5.83984 4.40004 7.34783 -0.00587399 8.0474 5.87984e-06C8.74687 0.00593688 10.1867 4.43675 10.7493 4.87202C11.3119 5.30723 15.7802 5.44732 15.991 6.14565C16.2018 6.84397 12.6219 9.64693 12.4003 10.3416C12.1788 11.0363 13.4324 15.5288 12.8631 15.9545Z" fill="#FBBC05"/>
</svg>
